<svg xmlns="http://www.w3.org/2000/svg" viewBox="0 0 100 100">
  <defs>
    <style>
      .cls-1 {
        fill: #2d2926;
      }

      .cls-2 {
        fill: #fff;
      }
    </style>
  </defs>
  <g id="Layer_4" data-name="Layer 4">
    <g>
      <circle class="cls-1" cx="50" cy="50" r="50"/>
      <path class="cls-2" d="M79.87,37.83,51.52,19.05a3.05,3.05,0,0,0-3.39,0L19.83,37.83a3.08,3.08,0,0,0-1.38,2.57V58.86a3.1,3.1,0,0,0,1.35,2.55L48.23,80.6a3.06,3.06,0,0,0,3.46,0l28.22-19.3a3.06,3.06,0,0,0,1.34-2.54V40.4A3.09,3.09,0,0,0,79.87,37.83ZM52.58,26.59l20.82,14-9.25,6L52.58,38.92Zm-5.46,0V38.8L35.66,46.6l-9.42-6.23Zm-23,18.9L30.6,50l-6.51,4.21Zm23,27.91-20.88-14,9.19-6.17L47.12,60.9Zm2.7-17.21L40.55,50,50,43.63,59.39,50ZM52.58,73.4V60.78l11.75-7.56,9.07,6.23Zm23-19.19L69.15,50l6.46-4.51Z"/>
    </g>
  </g>
</svg>
