<svg id="Layer_1" data-name="Layer 1" xmlns="http://www.w3.org/2000/svg" viewBox="0 0 824.01 1281.15">
  <defs>
    <style>
      path{
        fill:var(--body-color);
      }

      path.cls-8{
        fill:#2d2926;
        fill:var(--body-color);
      }

      .cls-12{
        fill:white;
        fill:var(--background-color);
      }

      #skin{
        fill:var(--background-color);
      }

      .eyeball{
        transform-box: fill-box;
        transform-origin:50% 50%;
        <!-- transform:rotate(50deg); -->
      }

      circle.cls-9{
        fill:transparent;
        
      }

      .hide{
        opacity:0;
      }
    </style>
  </defs>
  <g id="face">
    <g id="ear">
      <path class="cls-1" d="M72.39,426.11A4.12,4.12,0,0,0,74.76,423c.37-3-2.17-6.52-4.17-8.42-5.12-4.88-12.79-6.44-18.82-9.94a31.15,31.15,0,0,0-22,3.38c-17.44,9.86-25.61,31.26-28,50.13-2.82,22.36,2.29,44.74,9,66,7.21,22.93,15.79,45.4,23.13,68.29,1.93,6,3.78,12,5.51,18.13-3,12.21-5.37,30.31,4.38,38.63a5.79,5.79,0,0,1,1.31.22c8.22,2.43,11.3-4.92,12-13.4a5.27,5.27,0,0,1-1.15-2v0l-.15,1.1c-.1-.5-.21-1-.31-1.52-2.14-10.19-4.78-20.27-7.73-30.26-5.81-19.72-12.8-39.07-19.51-58.49C16,509.58-.08,466.18,20.88,431c4.61-7.74,11.74-15.34,21-17.08,7.36-1.39,16.54,1.79,19.32,9.25a5.34,5.34,0,0,0,4,3.33C66.94,424.26,70.12,423.34,72.39,426.11Z"/>
      <path class="cls-1" d="M63.84,573.29a15.24,15.24,0,0,1-1.37-3L62,572.94a24.31,24.31,0,0,1-2.13-4.88c-1.31-4.17-.92-7.15.7-11.11a31.66,31.66,0,0,0,1.9-16.67,74.83,74.83,0,0,0-2.66-11.06l.13-.15.39-.51a3.88,3.88,0,0,0,0-4A5.58,5.58,0,0,0,59,523a32.4,32.4,0,0,1-2.54-15.46,20.38,20.38,0,0,1,1.62-5.36,4,4,0,0,0-.53-4.39c1-7.28,2.05-14.62,2-22,0-10.77-3.07-22.11-10.69-29.63a3.36,3.36,0,0,0-1.14-2.5l-10.3-8.62a4.07,4.07,0,0,0-5.63.14,4,4,0,0,0-1.23,1.35A4.7,4.7,0,0,0,27,440.05c-.17.88-.32,1.75-.46,2.63-2.38,7.22-2.73,14.86-2.41,22.46.33,8.09.57,16.62,3.49,24.26,1.83,4.79,10.56,4.73,9.82-1.33-1.39-11.48-2.8-23.14-2.1-34.7a4.83,4.83,0,0,0,1.37,1c2.42,2.45,6.31,1.38,7.92-1.05,7.51,8.64,7.51,22.22,6.28,33.44-.81,7.47-2.19,14.92-2.76,22.41a31.92,31.92,0,0,0,2,13.23c.29,1.21.6,2.42.92,3.63a1.47,1.47,0,0,1-.08.28,16.47,16.47,0,0,0,.17,5.24,34.43,34.43,0,0,0,3,19.18c0,.06.07.11.1.16a21.48,21.48,0,0,1-.76,2.44c-1.32,3.4-2.71,6.31-2.54,10,.31,7.06,3.68,13.6,8,19,.05.07.11.13.17.2,2.64.14,8.78-1.13,8.24-4.32C67.05,576.59,64.72,574.75,63.84,573.29Z"/>
    </g>
    <path id="bear" class="cls-2 face active" d="M723.32,438.68l-.42.16c-2.26,8.74-4.42,17.5-6.2,26.35s-5.31,20.08-2.32,29q0,15.15-1.53,30.24c0,8.21-.37,16.57-3.34,24q-.56,3.13-1.17,6.24a5.38,5.38,0,0,0,.63,4l-6.59,44.5v.33l-6.66,38.84c-1.09,5.26-2,10.57-2.79,15.91a8.09,8.09,0,0,0-1.44,3.19c-.62,3-1.25,6-1.87,9l-.41.38c.06,4.1-1.05,7.89-2.63,11.95-.66,1.69-1.21,3.43-1.75,5.16a6,6,0,0,1,.2,3.8l.26-.16-1.43,6.53a9.68,9.68,0,0,0-.76,1.93,10.49,10.49,0,0,0-3.46,5.45c-4.8,17-9.67,34-15.85,50.48-3.51,8.62-7.54,18.74-13.84,25.93a10.52,10.52,0,0,0-3.92,2.5l-.39.39a10.74,10.74,0,0,0-2.63,4.31,36.35,36.35,0,0,0-2.4,4.42,17.82,17.82,0,0,0-2.17,3.08c-3.92,7-8.09,13.89-12.57,20.56q-3.36,5-6.94,9.86c-.35.47-3,3.9-3,3.93-.95,1.2-1.89,2.4-2.86,3.58q-5.76,7-12,13.63l-5,4.63a48.77,48.77,0,0,1-10-5.15,41.68,41.68,0,0,0-3-3.33,25.08,25.08,0,0,0-3-2.33c-.22-.28-.44-.56-.65-.85-5-7-9-14.66-15.61-20.31a10.68,10.68,0,0,0-4.62-2.34q-2.66-4.22-5.71-8.15a85.5,85.5,0,0,0-22-19.8,19.66,19.66,0,0,0-1.53-1.63,14.21,14.21,0,0,0-9.14-3.88,68.23,68.23,0,0,0-16.21-4.55,12,12,0,0,0-8.91,1.93l.27-.85a2.41,2.41,0,0,0-1.45-2.93,2.56,2.56,0,0,0-1.09-.19,3.84,3.84,0,0,0-.48,0,2.77,2.77,0,0,0-1.77.74,25.57,25.57,0,0,0-4.82,5.61,9.86,9.86,0,0,0-10.8,1.33,109.15,109.15,0,0,1-22.72,5.64c-5.54.69-12.78,1.14-17.17-2.91a10.25,10.25,0,0,0-11-2.07,10.68,10.68,0,0,0-9.79,2.59,9.89,9.89,0,0,0-1.92,2.71,14.74,14.74,0,0,0-5.42-3.16,15.07,15.07,0,0,0-7.7-1.73h-.29a20.75,20.75,0,0,0-10.66-10.67,19.64,19.64,0,0,0-3.81-1.14,11.24,11.24,0,0,0-9-5.36,126.83,126.83,0,0,0-68.94,13.81,11.91,11.91,0,0,0-6.52,1.41,92.68,92.68,0,0,0-20.72,14.61A10.38,10.38,0,0,0,277.1,804c-5.27,4.57-10.41,9.3-15.37,14.23-9.23,9.15-17.49,19.73-27.31,28.36-1.86-3.34-7.59-3.23-9,.53-.69-.51-1.4-1-2.11-1.5q-3.18-9.26-7.11-18.26c-1.47-3.39-6.85-3.1-8.55-.14q-3-10-6-20.09a5.08,5.08,0,0,0-6.32-3.37,5.41,5.41,0,0,0-1.15.52L191.1,793c-.83-3-4-4-6.55-3.28l-2.31-8.33c-1.23-4.43-8.84-5.09-9.65,0v.25l-5.21-11.55c-1.68-3.83-8.44-2.9-9.14,1.19a27.32,27.32,0,0,1-.63,2.82c-.45-1.12-.89-2.24-1.29-3.38a24.47,24.47,0,0,0-1.85-5.34,4.48,4.48,0,0,0-6.18-2l-2.52-5.54c-1.14-2.5-3.85-2.89-6.08-2-.57-1.91-1.11-3.83-1.65-5.75a42.68,42.68,0,0,0-2.82-10.41,5.37,5.37,0,0,0-7-3,5.06,5.06,0,0,0-1,.54c-3.33-13-7.29-28.86-7.87-31.2-.77-3.13-4.28-4.08-6.9-3.18a22.11,22.11,0,0,0-1.07-2.32c-.34-1.35-.66-2.71-.92-4.08a4.28,4.28,0,0,0-2.73-3.14c-6.48-18.29-10.38-37.89-13.07-56.95-1.49-10.56-3-21.14-3.77-31.79-.83-11.26-.4-22.57-1.56-33.81a5.51,5.51,0,0,0-1.25-2.88q1.07-23.36,4.21-46.53a4.25,4.25,0,0,1-.51-4.31,36.51,36.51,0,0,0,1.71-6.32,5.54,5.54,0,0,0-4.7-4.42c-.2,0-.39,0-.58-.05.48-2.62,1-5.25,1.45-7.87,1,2.07,2.17,4.13,3.31,6.16a74.43,74.43,0,0,1-.51-9.41c0-12.73-1.82-25.45-.53-38.13-.12-.41-.26-.81-.37-1.23a4.61,4.61,0,0,0-2.68-3.16q-1.62-5.6-3-11.29a4.54,4.54,0,0,0-.63-2.9l0,0q-1.84-8.12-3.14-16.42c-2.65-2.43-7.87-8.86-11.81-9.11a3.77,3.77,0,0,0-1.58.27A25.64,25.64,0,0,1,67,421.8,6.06,6.06,0,0,1,64.39,425a5.11,5.11,0,0,0,2-.34,4.61,4.61,0,0,0,.51-.22q1,11.85,2.2,23.67l.19,2.46a3.2,3.2,0,0,0,.17.87q1.09,10.32,2.38,20.62a4.25,4.25,0,0,0,.93,2.2,5,5,0,0,0-1,2.67h0Q70,498.11,68.42,519.29a101.39,101.39,0,0,0-2.51,16.15c-.79,3.77-1.6,7.55-2.45,11.31a5,5,0,0,0,.38,3.58l-2.21,13.06a5.27,5.27,0,0,1,.25,5,48.49,48.49,0,0,0-3.6,13.33,3.2,3.2,0,0,0,2.22.3,4.77,4.77,0,0,0,.52.48q-1.64,7.46-3.76,14.79c-.14,4.71-.27,9.38-.79,13.91-.18,1.5-.39,3-.61,4.48-.42,6-1,11.89-1.88,17.79-.1-.5-.21-1-.31-1.52s-.28-1.2-.41-1.8l-.45,2.55c-.08.44-.17.88-.26,1.32a18.57,18.57,0,0,1-2.11,8.76c-.19.8-.38,1.6-.56,2.4.12,2.81.16,5.62.16,8.45a4.66,4.66,0,0,1-1.16,3.11c.55,1.81,1.14,3.6,1.81,5.36l-2.65,16-2.49,15.47c-.55,3.45-2.16,8-1.1,11.57a78.63,78.63,0,0,0-1.49,26c-1.88,6.78-3.89,13.53-5.89,20.28-3.73,11.43-7.45,22.86-10.77,34.39a111.86,111.86,0,0,0-3.6,47.46c0,12.4.55,24.84,1.23,37.22q-.09,14.67-1,29.3c-.18,2.24-.33,4.48-.43,6.71A18.89,18.89,0,0,0,27.84,920c.81,6.65,1.76,13.28,2.9,19.88a170.61,170.61,0,0,0,7,44.48c6,20.25,16.15,39.1,26.37,57.48,9.84,17.7,19.83,35.36,30.15,52.77,10.5,17.69,24.28,32.72,38.2,47.74,7.17,7.75,14.46,15.38,22.15,22.61,3.94,3.71,8,7.32,12.17,10.76,6.15,5.07,13.09,11.86,21.65,11.44,25,33.66,60.21,58.54,100.82,69.58a171.34,171.34,0,0,0,40.41,5.81,17.81,17.81,0,0,0,4.18,1.61q18.06,4.32,36.38,7.64c13.7,2.46,29.63,6.83,42.15-1.74a26.06,26.06,0,0,0,4.1-3.47l4.16-.2c22.26,1.93,44.51,3.67,66-3.75a71.71,71.71,0,0,0,13.56-3.13,22.46,22.46,0,0,0,11.65-8.91c13.16-7.87,25.17-17.54,36.54-28.08a290.7,290.7,0,0,0,43-49.77c13.79-20.34,24.34-43.5,29.18-67.66a24.47,24.47,0,0,0,.43-4.1c6.72-.22,13.61-3.37,16.31-9.66.7-1.64,1.35-3.23,2-4.81h.07l.19-.73a62.24,62.24,0,0,0,3-10.55l.3-1.65,3.9-14.62a20.53,20.53,0,0,0,.43-2.21l.86-2.37c.21-.55,2.24-5.6,1.92-4.87,2.21-5.28,4.52-10.52,6.67-15.82q5.64-14,10-28.36c.71-2.36,1.4-4.72,2.06-7.1a16.45,16.45,0,0,0,8.5-7.85c4.37-9.16,6.29-18.77,4.32-28.6l2.82-16.71a507.11,507.11,0,0,0,15-97.22,16.85,16.85,0,0,0-1.51-7.85q1.17-14.07,2-28.16a16.94,16.94,0,0,0-1.25-7.24c.08-3,.25-6,.46-9a339.43,339.43,0,0,0,3.27-36.44,11,11,0,0,0-.87-4.81q0-1.79-.15-3.57a12.65,12.65,0,0,0-1-4.2c-.13-10.46,1.33-21,2.79-31.27l2-14.06a15.52,15.52,0,0,0,.66-2.87c1.1-8.49,2.53-16.94,4.18-25.35v0c0-8,0-16,1.32-23.93a23.43,23.43,0,0,1-.8-7.21c-.35.65-.7,1.3-1.06,1.95,1.68-10.42,4.12-20.81,5.91-30.95a7.32,7.32,0,0,0,.09-1.48,3.93,3.93,0,0,0,1.28-2.72l2.19-34.17a5.49,5.49,0,0,1-.38-1c-4.5-15.6,3.55-29.42,6.23-44.41-.43-.11-.85-.21-1.27-.33q1.17-10.69,1.64-21.46l.65.65c-.3-10.61-1-21.22,1.34-31.74q1.9-13.31,4.73-26.49c.18-.77.36-1.55.55-2.32C729.56,443.94,726.84,439.86,723.32,438.68ZM485.38,890.26c-.71,1-1.37,2-2,3-.2.31-.39.62-.58.94l-.37.62c-.23.38-.46.75-.68,1.14-10,.17-19.81,4.51-27.33,11A17.55,17.55,0,0,0,441,908.2l-.08-.08a25.74,25.74,0,0,0-18.81-7.55,23.29,23.29,0,0,0-4.49.58,8.89,8.89,0,0,0-5.44-1.41l-53,5.19a12.51,12.51,0,0,0-7.67,3.23A20,20,0,0,0,348,907c-3.89-2-7.73-4.18-11.56-6.33-6.64-3.75-15.25-7.36-19.77-13.81-3.08-4.4-8.47-6.66-13.49-4.69a12,12,0,0,0-.38-1.2,14.87,14.87,0,0,0,6.82-4.64c2.6-3.21,5.12-6.48,7.58-9.78a22.7,22.7,0,0,0,2.51-3.25c.34-.52.66-1,1-1.58l.78-1.09c.15.12.29.25.45.37a20.22,20.22,0,0,0,19.62,2.79,16.74,16.74,0,0,0,3.44,4.58c6.09,5.59,16.94,8.44,24.23,3.12q2.63-1.9,5.26-3.8a25.22,25.22,0,0,0,11.76,4.23l20.66,2.34a16.56,16.56,0,0,0,12.51-4.35,11.38,11.38,0,0,0,9.4,6.23q14.46,1.5,28.78,4c9.42,2.78,18.66,6.59,27.94,10.16Z"/>
    <path id="bear-mouth-O" class="cls-3 faceup hide" d="M724.34,439.05l-.43.16c-2.25,8.74-4.42,17.5-6.2,26.35s-5.31,20.08-2.32,29q0,15.15-1.53,30.24c0,8.22-.37,16.57-3.34,24-.37,2.08-.75,4.16-1.17,6.23a5.43,5.43,0,0,0,.63,4l-6.59,44.5v.33l-6.66,38.84c-1.09,5.26-2,10.57-2.79,15.91a8.38,8.38,0,0,0-1.44,3.19c-.62,3-1.25,6-1.87,9l-.4.39c.06,4.09-1.06,7.88-2.64,11.94-.66,1.7-1.2,3.43-1.75,5.17a5.86,5.86,0,0,1,.2,3.79,2.26,2.26,0,0,0,.26-.16l-1.43,6.53a22.45,22.45,0,0,1-4.22,7.38c-4.8,17-9.67,34-15.85,50.48-3.51,8.62-7.54,18.74-13.84,25.93a10.81,10.81,0,0,0-3.92,2.5l-.39.39a11,11,0,0,0-2.63,4.31,37.77,37.77,0,0,0-2.4,4.42,18.8,18.8,0,0,0-2.17,3.08c-3.92,7-8.09,13.89-12.57,20.56q-3.36,5-6.94,9.86c-.35.47-3,3.9-3,3.93-1,1.2-1.89,2.4-2.86,3.58q-5.75,7-12,13.63l-5,4.63a48.28,48.28,0,0,1-10-5.15,41.68,41.68,0,0,0-3-3.33,25.08,25.08,0,0,0-3-2.33c-.22-.28-.44-.56-.65-.85-5-7-9-14.66-15.61-20.31a10.63,10.63,0,0,0-4.62-2.34,97.62,97.62,0,0,0-5.71-8.15,85.33,85.33,0,0,0-22-19.8,21.38,21.38,0,0,0-1.53-1.63,14.21,14.21,0,0,0-9.14-3.88,68.1,68.1,0,0,0-16.21-4.55,12,12,0,0,0-8.91,1.93l.27-.85a2.51,2.51,0,0,0-.25-1.93,2.73,2.73,0,0,0-1.2-1,2.54,2.54,0,0,0-1.09-.19H494a2.82,2.82,0,0,0-1.77.74,25.84,25.84,0,0,0-4.82,5.61,9.88,9.88,0,0,0-10.8,1.33,109.15,109.15,0,0,1-22.72,5.64c-5.54.69-12.78,1.14-17.17-2.91a10.25,10.25,0,0,0-11-2.07,10.71,10.71,0,0,0-9.79,2.59,9.89,9.89,0,0,0-1.92,2.71,14.88,14.88,0,0,0-5.42-3.16,15,15,0,0,0-7.7-1.73h-.29a20.79,20.79,0,0,0-10.66-10.67,20.14,20.14,0,0,0-3.81-1.14,11.25,11.25,0,0,0-9-5.36,127,127,0,0,0-68.94,13.81,11.93,11.93,0,0,0-6.52,1.41,93.14,93.14,0,0,0-20.72,14.61,10.45,10.45,0,0,0-2.79,4.12c-5.27,4.57-10.41,9.3-15.37,14.23-9.23,9.15-17.49,19.73-27.31,28.36-1.86-3.34-7.59-3.23-9,.53-.69-.51-1.4-1-2.11-1.5q-3.16-9.26-7.11-18.26c-1.47-3.39-6.85-3.1-8.55-.14q-3-10-6-20.09a5,5,0,0,0-6.31-3.36,4.81,4.81,0,0,0-1.16.51l-3.08-11.22c-.83-3-4-4-6.55-3.28l-2.31-8.33c-1.23-4.43-8.84-5.09-9.65,0V782l-5.21-11.55c-1.68-3.83-8.44-2.9-9.14,1.19a22.14,22.14,0,0,1-.63,2.82c-.45-1.12-.89-2.24-1.29-3.38a23.63,23.63,0,0,0-1.85-5.34,4.48,4.48,0,0,0-6.18-2l-2.52-5.54c-1.14-2.5-3.85-2.89-6.08-2-.57-1.91-1.11-3.83-1.65-5.75a42.36,42.36,0,0,0-2.82-10.41,5.36,5.36,0,0,0-7-3,5.7,5.7,0,0,0-1,.54c-3.33-13-7.29-28.86-7.87-31.2-.77-3.13-4.28-4.08-6.9-3.18a23.09,23.09,0,0,0-1.07-2.32c-.34-1.35-.66-2.71-.92-4.08a4.28,4.28,0,0,0-2.73-3.14c-6.48-18.29-10.38-37.89-13.07-56.95-1.49-10.56-3-21.14-3.77-31.79-.83-11.26-.4-22.57-1.56-33.81a5.43,5.43,0,0,0-1.25-2.88q1.08-23.34,4.21-46.53a4.23,4.23,0,0,1-.5-4.3,36.58,36.58,0,0,0,1.7-6.33,5.53,5.53,0,0,0-4.7-4.42l-.58-.05c.48-2.62,1-5.25,1.45-7.87,1.06,2.08,2.17,4.13,3.31,6.17a76.61,76.61,0,0,1-.51-9.42c0-12.73-1.82-25.45-.53-38.13-.12-.41-.25-.81-.37-1.23A4.58,4.58,0,0,0,89.89,453q-1.62-5.6-3-11.29a4.48,4.48,0,0,0-.63-2.9l0,0q-1.84-8.1-3.13-16.41c-2.66-2.44-7.87-8.87-11.82-9.12a3.72,3.72,0,0,0-1.57.27A25.65,25.65,0,0,1,68,422.17a6.11,6.11,0,0,1-2.63,3.19,5.53,5.53,0,0,0,2-.34,4.52,4.52,0,0,0,.5-.23q1,11.85,2.2,23.67l.19,2.46a3.62,3.62,0,0,0,.17.87q1.1,10.32,2.38,20.62a4.33,4.33,0,0,0,.93,2.2,5.12,5.12,0,0,0-1,2.67h0q-1.62,21.2-3.23,42.38a101.39,101.39,0,0,0-2.51,16.15c-.79,3.77-1.6,7.55-2.45,11.31a5.1,5.1,0,0,0,.38,3.58l-2.2,13.07a5.31,5.31,0,0,1,.25,5,48.25,48.25,0,0,0-3.61,13.33,3.15,3.15,0,0,0,2.22.3,4.69,4.69,0,0,0,.52.48c-1.08,5-2.35,9.91-3.75,14.8-.14,4.7-.27,9.38-.8,13.91-.17,1.5-.38,3-.61,4.48Q56.26,625,55,633.81c-.1-.5-.21-1-.31-1.52s-.27-1.19-.4-1.79c-.15.84-.31,1.69-.45,2.54-.08.44-.18.89-.27,1.33a18.49,18.49,0,0,1-2.1,8.76c-.2.79-.39,1.59-.57,2.39.12,2.81.16,5.63.16,8.45a4.7,4.7,0,0,1-1.15,3.12c.55,1.8,1.13,3.59,1.8,5.35l-2.65,16L46.56,694c-.55,3.45-2.16,8-1.1,11.57a78.66,78.66,0,0,0-1.49,26c-1.88,6.78-3.89,13.53-5.89,20.28-3.73,11.43-7.45,22.86-10.77,34.39a112,112,0,0,0-3.6,47.46c0,12.4.55,24.84,1.23,37.22q-.09,14.67-1,29.3c-.18,2.24-.33,4.48-.43,6.71a18.93,18.93,0,0,0,5.34,13.51c.81,6.65,1.76,13.28,2.9,19.88a170.61,170.61,0,0,0,7,44.48c6,20.25,16.15,39.1,26.37,57.48C75,1059.94,85,1077.6,95.27,1095c10.5,17.69,24.28,32.72,38.2,47.74,7.17,7.75,14.46,15.38,22.15,22.61,3.94,3.71,8,7.32,12.17,10.76,6.15,5.07,13.09,11.86,21.65,11.44,25,33.66,60.21,58.54,100.82,69.58a171.41,171.41,0,0,0,40.41,5.81,17.55,17.55,0,0,0,4.18,1.61q18.07,4.32,36.38,7.64c13.7,2.46,29.63,6.83,42.15-1.74a25.62,25.62,0,0,0,4.1-3.47l4.16-.2c22.26,1.93,44.51,3.67,66-3.75a70.94,70.94,0,0,0,13.56-3.13,22.37,22.37,0,0,0,11.65-8.91c13.16-7.87,25.17-17.54,36.54-28.08a289.88,289.88,0,0,0,43-49.77c13.79-20.34,24.34-43.5,29.18-67.66a23.47,23.47,0,0,0,.43-4.1c6.72-.22,13.61-3.37,16.31-9.66.7-1.64,1.35-3.23,2-4.81h.07l.19-.73a61.33,61.33,0,0,0,3-10.55l.3-1.65,3.9-14.62a18,18,0,0,0,.43-2.21l.86-2.37c.21-.55,2.24-5.6,1.92-4.87,2.21-5.28,4.52-10.52,6.67-15.82q5.64-14,10-28.36c.71-2.36,1.4-4.72,2.06-7.1a16.45,16.45,0,0,0,8.5-7.85c4.37-9.16,6.29-18.77,4.32-28.6l2.82-16.71a506.33,506.33,0,0,0,15-97.22,16.72,16.72,0,0,0-1.51-7.85q1.17-14.07,2-28.16a16.64,16.64,0,0,0-1.25-7.24c.08-3,.25-6,.46-9a336.66,336.66,0,0,0,3.27-36.44,10.91,10.91,0,0,0-.87-4.81q0-1.77-.15-3.57a12.77,12.77,0,0,0-1-4.2c-.13-10.46,1.33-21,2.79-31.27l2-14.06a15.52,15.52,0,0,0,.66-2.87c1.1-8.49,2.54-16.94,4.19-25.35v0c0-8,0-16,1.31-23.93a23.7,23.7,0,0,1-.79-7.21c-.36.65-.71,1.31-1.07,1.95,1.68-10.42,4.12-20.81,5.91-30.95a7.27,7.27,0,0,0,.09-1.48,3.91,3.91,0,0,0,1.28-2.72l2.19-34.17a6.39,6.39,0,0,1-.37-1c-4.5-15.6,3.54-29.42,6.22-44.41-.42-.11-.85-.21-1.27-.33q1.17-10.7,1.64-21.46l.66.65c-.3-10.61-1-21.22,1.34-31.74q1.9-13.3,4.72-26.49c.19-.77.37-1.54.55-2.32C730.58,444.31,727.85,440.24,724.34,439.05ZM430.41,869.17a11.33,11.33,0,0,1-3.46-.53Zm48.23,20.4a15.61,15.61,0,0,0-2.72,7.53h0a.09.09,0,0,0,0,0c0,.09,0,.17,0,.26a3.84,3.84,0,0,0,.23,1.81,3.33,3.33,0,0,1-.07.54,27.16,27.16,0,0,1-7.39,14.12,7.59,7.59,0,0,1-.39.66c-5.32,7.72-15.08,13.1-23.27,17.23-10.9,5.5-22.4,7-34.51,7.12-12.51.14-23.71-2.95-34.72-8.84s-21-13.41-32.16-18.94a4.28,4.28,0,0,1-2.62-4.22c-3-1.41-5.85-2.84-8.72-4.26-2.15-4.78-4-9.76-3.82-14.74.09-3.4,1-6.54,1.19-9.64.64-.57,1.28-1.14,1.94-1.69a3.05,3.05,0,0,0,1-1.48c.8-.49,1.6-1,2.43-1.42a3.78,3.78,0,0,0,1.69-1.78,55,55,0,0,1,9.72-.66,4.34,4.34,0,0,0,.91-.08,3.71,3.71,0,0,0,1.86,1,39.48,39.48,0,0,0,25.41-2.51,3.51,3.51,0,0,0,1.05-.67c4.6,3.34,10.56,4.08,16.31,3.51l.34,0c8.34,2.81,16.69,4.43,24.63-1.09,2.86,1.74,4.79,4.72,8.29,5.56,4.23,1,9-.36,13.33-.11,9.78.54,18.61,6.78,28.47,5h0a6.37,6.37,0,0,1-.17,1.44c4.46,1.56,8.89,3.28,13.33,5A4.64,4.64,0,0,0,478.64,889.57Z"/>
    <!-- <path id="bear-mouth-O" class="cls-3 faceup hide" d="M723.28,433c-.1.1-.3.1-.4.2-2.3,8.7-4.4,17.5-6.2,26.4s-5.3,20.1-2.3,29c0,10.1-.5,20.2-1.5,30.2,0,8.2-.4,16.6-3.3,24-.4,2.1-.8,4.2-1.2,6.2a5.54,5.54,0,0,0,.6,4l-6.6,44.5v.3l-6.7,38.8c-1.1,5.3-2,10.6-2.8,15.9a7.14,7.14,0,0,0-1.4,3.2c-.6,3-1.2,6-1.9,9l-.4.4c.1,4.1-1.1,7.9-2.6,11.9-.7,1.7-1.2,3.4-1.8,5.2a5.54,5.54,0,0,1,.2,3.8c.1-.1.2-.1.3-.2l-1.4,6.5a15.39,15.39,0,0,0-.8,1.9,10.69,10.69,0,0,0-3.5,5.5c-4.8,17-9.7,34-15.8,50.5-3.5,8.6-7.5,18.7-13.8,25.9a10.06,10.06,0,0,0-3.9,2.5l-.4.4a10.59,10.59,0,0,0-2.6,4.3,37.51,37.51,0,0,0-2.4,4.4,17,17,0,0,0-2.2,3.1c-3.9,7-8.1,13.9-12.6,20.6-2.2,3.3-4.6,6.6-6.9,9.9-.4.5-3,3.9-3,3.9-1,1.2-1.9,2.39-2.9,3.6-3.8,4.7-7.8,9.2-12,13.6l-5,4.6a47.52,47.52,0,0,1-10-5.2,32.85,32.85,0,0,0-3-3.3,17,17,0,0,0-3-2.3,5.55,5.55,0,0,0-.6-.8c-5-7-9-14.7-15.6-20.3a9.15,9.15,0,0,0-4.6-2.3c-1.8-2.8-3.7-5.5-5.7-8.2a86.6,86.6,0,0,0-22-19.8c-.5-.6-1-1.1-1.5-1.6a14.19,14.19,0,0,0-9.1-3.9,65,65,0,0,0-16.2-4.5,11.72,11.72,0,0,0-8.9,1.9l.3-.8a2.49,2.49,0,0,0-.2-1.9,2.94,2.94,0,0,0-1.2-1,3.59,3.59,0,0,0-1.1-.2h-.5a2.87,2.87,0,0,0-1.8.7,23.37,23.37,0,0,0-4.8,5.6,9.92,9.92,0,0,0-10.8,1.3,104.67,104.67,0,0,1-22.7,5.6c-5.5.7-12.8,1.1-17.2-2.9a10.34,10.34,0,0,0-11-2.1,10.66,10.66,0,0,0-9.8,2.6,10.15,10.15,0,0,0-1.9,2.7,16.44,16.44,0,0,0-5.4-3.2,13.84,13.84,0,0,0-7.7-1.7h-.3a20.71,20.71,0,0,0-10.7-10.7,16.57,16.57,0,0,0-3.8-1.1,11.15,11.15,0,0,0-9-5.4,126.63,126.63,0,0,0-68.9,13.8,11.3,11.3,0,0,0-6.5,1.4,93.35,93.35,0,0,0-20.7,14.6,9.71,9.71,0,0,0-2.8,4.1c-5.3,4.6-10.4,9.3-15.4,14.2-9.2,9.2-17.5,19.7-27.3,28.4-1.9-3.3-7.6-3.2-9,.5l-2.1-1.5c-2.1-6.2-4.5-12.3-7.1-18.3-1.5-3.4-6.8-3.1-8.5-.1l-6-20.1a5,5,0,0,0-6.3-3.4,6.12,6.12,0,0,0-1.2.5l-3.1-11.2c-.8-3-4-4-6.6-3.3l-2.3-8.3c-1.2-4.4-8.8-5.1-9.6,0v.2l-5.2-11.5c-1.7-3.8-8.4-2.9-9.1,1.2-.2,1-.4,1.9-.6,2.8-.4-1.1-.9-2.2-1.3-3.4a25.49,25.49,0,0,0-1.8-5.3,4.51,4.51,0,0,0-6.2-2l-2.5-5.5c-1.1-2.5-3.9-2.9-6.1-2-.6-1.9-1.1-3.8-1.6-5.8a41,41,0,0,0-2.8-10.4,5.34,5.34,0,0,0-7-3,3.13,3.13,0,0,0-1,.5c-3.3-13-7.3-28.9-7.9-31.2-.8-3.1-4.3-4.1-6.9-3.2a16.27,16.27,0,0,0-1.1-2.3c-.3-1.3-.7-2.7-.9-4.1a4.07,4.07,0,0,0-2.7-3.1c-6.5-18.3-10.4-37.9-13.1-57-1.5-10.6-3-21.1-3.8-31.8-.8-11.3-.4-22.6-1.6-33.8a5.8,5.8,0,0,0-1.2-2.9q1-23.4,4.2-46.5a4.28,4.28,0,0,1-.5-4.3,36.82,36.82,0,0,0,1.7-6.3,5.41,5.41,0,0,0-4.7-4.4h-.6c.5-2.6,1-5.2,1.4-7.91,1.1,2.1,2.2,4.1,3.3,6.2a73,73,0,0,1-.5-9.4c0-12.7-1.8-25.4-.5-38.1-.1-.4-.3-.8-.4-1.2a4.55,4.55,0,0,0-2.7-3.19c-1.1-3.7-2.1-7.5-3-11.31a4.92,4.92,0,0,0-.6-2.9c-1.2-5.4-2.3-10.9-3.1-16.4-2.7-2.4-7.9-8.9-11.8-9.1a4.33,4.33,0,0,0-1.6.31,25.69,25.69,0,0,1-1.7,8.59,6.37,6.37,0,0,1-2.6,3.2,7.47,7.47,0,0,0,2-.3c.2-.1.3-.1.5-.2.7,7.9,1.4,15.8,2.2,23.7l.2,2.5a2.92,2.92,0,0,0,.2.9c.7,6.9,1.5,13.8,2.4,20.6a4.31,4.31,0,0,0,.9,2.2,5.23,5.23,0,0,0-1,2.7c-1.1,14.1-2.2,28.3-3.2,42.4a97.53,97.53,0,0,0-2.5,16.2c-.8,3.8-1.6,7.5-2.4,11.3a5,5,0,0,0,.4,3.6l-2.2,13.1a5.16,5.16,0,0,1,.2,5,46.81,46.81,0,0,0-3.6,13.3,2.82,2.82,0,0,0,2.2.3l.5.5c-1.1,5-2.3,9.9-3.8,14.8-.1,4.7-.3,9.4-.8,13.9l-.6,4.5c-.4,6-1,11.9-1.9,17.8l-.3-1.5c-.1-.6-.3-1.2-.4-1.8-.2.8-.3,1.7-.5,2.5-.1.4-.2.9-.3,1.3a18.68,18.68,0,0,1-2.1,8.8l-.6,2.4c.1,2.8.2,5.6.2,8.5a4.57,4.57,0,0,1-1.2,3.1,56,56,0,0,0,1.8,5.4l-2.6,16L45.58,688c-.6,3.5-2.2,8-1.1,11.6a81.09,81.09,0,0,0-1.5,26c-1.9,6.81-3.9,13.5-5.9,20.31-3.7,11.39-7.5,22.89-10.8,34.39a112.23,112.23,0,0,0-3.6,47.5c0,12.4.6,24.8,1.2,37.2-.1,9.8-.4,19.5-1,29.3-.2,2.2-.3,4.5-.4,6.7a18.88,18.88,0,0,0,5.3,13.5c.8,6.6,1.8,13.3,2.9,19.9a172.16,172.16,0,0,0,7,44.5c6,20.2,16.1,39.1,26.4,57.5,9.8,17.7,19.8,35.4,30.2,52.8,10.5,17.7,24.3,32.7,38.2,47.7,7.2,7.8,14.5,15.4,22.2,22.6,3.9,3.7,8,7.3,12.2,10.8,6.1,5.11,13.1,11.9,21.6,11.4,25,33.7,60.2,58.5,100.8,69.6a172.81,172.81,0,0,0,40.4,5.8,15.23,15.23,0,0,0,4.2,1.61c12,2.89,24.2,5.39,36.4,7.6,13.7,2.5,29.6,6.8,42.1-1.7a23,23,0,0,0,4.1-3.5l4.2-.2c22.3,1.9,44.5,3.7,66-3.8a70.52,70.52,0,0,0,13.6-3.1,22,22,0,0,0,11.6-8.9,215,215,0,0,0,36.5-28.1,287.66,287.66,0,0,0,43-49.8c13.8-20.3,24.3-43.5,29.2-67.7a19,19,0,0,0,.4-4.1c6.7-.2,13.6-3.4,16.3-9.7.7-1.61,1.4-3.2,2-4.8h.1l.2-.7a64,64,0,0,0,3-10.61l.3-1.6,3.9-14.6a17,17,0,0,0,.4-2.2l.9-2.4c.2-.6,2.2-5.6,1.9-4.89,2.2-5.31,4.5-10.5,6.7-15.81,3.8-9.3,7.1-18.8,10-28.39.7-2.4,1.4-4.7,2.1-7.11a16.4,16.4,0,0,0,8.5-7.89c4.4-9.2,6.3-18.8,4.3-28.61l2.8-16.69a506.78,506.78,0,0,0,15-97.2,17.26,17.26,0,0,0-1.5-7.8c.8-9.4,1.4-18.81,2-28.2a17.62,17.62,0,0,0-1.2-7.2c.1-3,.2-6,.5-9,1.7-12.1,2.8-24.2,3.3-36.4a10,10,0,0,0-.9-4.8c0-1.2-.1-2.4-.2-3.6a12.29,12.29,0,0,0-1-4.2c-.1-10.5,1.3-21,2.8-31.3l2-14.11a24,24,0,0,0,.7-2.89c1.1-8.5,2.5-16.9,4.2-25.4,0-8,0-16,1.3-23.9a25.27,25.27,0,0,1-.8-7.2c-.4.7-.7,1.3-1.1,2,1.7-10.4,4.1-20.8,5.9-31a7.57,7.57,0,0,0,.1-1.5,4.08,4.08,0,0,0,1.3-2.7l2.2-34.2a10.37,10.37,0,0,1-.4-1c-4.5-15.6,3.5-29.4,6.2-44.4-.4-.1-.8-.2-1.3-.3.8-7.1,1.3-14.3,1.6-21.5a4.35,4.35,0,0,0,.7.6c-.3-10.6-1-21.2,1.3-31.7,1.3-8.9,2.8-17.7,4.7-26.5.2-.8.4-1.5.6-2.3C729.58,438.3,726.88,434.2,723.28,433ZM511.68,913.81c-5.57,14.69-17.67,24.33-32.16,29.57-12.76,4.61-27.36,5.54-40.82,5.83-14,.3-28-.64-42.05-.69a21,21,0,0,1-10.49-2.79c-2.58,0-5.16-.11-7.74-.23a115.54,115.54,0,0,1-45.82-11.21c-14.79-7.17-26.47-18.85-35.86-32.14-4.32-6.12-3.56-15,0-21.37a19.86,19.86,0,0,1-1.16-2.36,11.49,11.49,0,0,0,7.55-5A89.57,89.57,0,0,1,317,857.21a9.25,9.25,0,0,0,2.11-3,10,10,0,0,0,6.17,1.95,11.76,11.76,0,0,0,1.21-.07,10.55,10.55,0,0,0,4.74,1.06,10.34,10.34,0,0,0,5.21-1.31c2.39,1,4.78,1.94,7.19,2.88a9.53,9.53,0,0,0,9.4,6.35,10.38,10.38,0,0,0,5-1.2c4.81,1.58,10.38,3.55,15.47,3.94-.73-.09-.25-.21,1.72,0,1.67.15,3.35.25,5,.31q4.85.17,9.69-.14c12.87-.81,25.61-3.09,38.5-3.73,13.47-.67,26.81.68,40.06,3,.89-.47,1.79-.88,2.7-1.27a9.09,9.09,0,0,0,.31,2.17c1.64,6,7.29,8.23,12.92,7.34,5.1-.81,10.18,7.59,12.5,10.89,3.2,4.56,9,6.72,14.14,3.88a5.05,5.05,0,0,0,.28.51,11.09,11.09,0,0,0,1.75,2.1A38.11,38.11,0,0,1,511.68,913.81Z"/> -->
    <path class="cls-4" d="M794.54,261.5c-11.23-18-25.5-33.33-41.08-47.68-.46-.42-.92-.86-1.39-1.28-.14-.28-.29-.56-.44-.84a6,6,0,0,0-3.75-3.06c-7.33-6.84-14.52-13.74-21.51-20.85q-.12-.3-.27-.6c-26.81-54-69.59-99.51-120.92-131C557,26.67,501.35,10.33,445,7.3A286,286,0,0,0,335.69,18a4.41,4.41,0,0,0-1.1.51C294,28.74,254.65,44.89,217.81,64.17c-28.26,14.79-55.22,32.67-78.16,55a247.29,247.29,0,0,0-44.09,58C69.39,217.83,54.67,266,51.93,314.25a4,4,0,0,0-.28,1.54v3.11A291.52,291.52,0,0,0,54,369.19v6q.08,11.64.51,23.28a6.61,6.61,0,0,0,3.76,6,48.51,48.51,0,0,0,.21,5.25c5.36,2.89,11,5,16.75,5.45a24.14,24.14,0,0,0,5.39-.25c2.81-2.07,5.62-4.13,8.46-6.16a139.83,139.83,0,0,1,2-16.68,312.94,312.94,0,0,1,25.31-58.58,3.73,3.73,0,0,0-2.12-5.6l.67-.78a5.53,5.53,0,0,0,.53-.74h.14c25.24,4.94,45.94-13.68,67.08-24.14,25.46-12.6,53.33-20.08,79.76-30.38,53.25-20.74,104.13-46.74,157-68.23,25.46-10.35,52-19.08,79.52-21.61l.63-.06a3.16,3.16,0,0,0,2.77,2.73l28.82,3.9a270.59,270.59,0,0,1,101,41.6,3,3,0,0,0,.84.41q14.72,13,28.36,27.17A301.37,301.37,0,0,1,690,305c7.53,19.13,13.47,39,19.15,58.6,3.19,11,6.37,22,8.62,33.13a288.41,288.41,0,0,1,2.46,36.91,7.39,7.39,0,0,0-.51,8.17V442a4.63,4.63,0,0,0,.17,2.1,4.76,4.76,0,0,1,3-.81,27.93,27.93,0,0,0,9.1-1,30.17,30.17,0,0,1,7.81-2.51c0-.27,0-.55,0-.82a122.43,122.43,0,0,0,61.19-34.39,61.26,61.26,0,0,0,11.88-14.28,116.83,116.83,0,0,0,6.8-10.77,4,4,0,0,0,4.55-3.36,3.73,3.73,0,0,0,0-.47A199.64,199.64,0,0,0,794.54,261.5ZM83.17,390.44q-2.19,7-4,14.09a2.38,2.38,0,0,0,0-.65l0,0a3.85,3.85,0,0,0-3.84-3.86h-.16a23.31,23.31,0,0,1-.62-8.36Q80.75,374.13,87,356.57c1.64,2.1,5,2.75,6.35-.3A84.81,84.81,0,0,1,99,345.7l.34-.38A148.69,148.69,0,0,0,83.17,390.44Zm4.62-41.25a3.76,3.76,0,0,0-1-.77c.4-.9.82-1.79,1.25-2.67l.06-.14c-.15.81-.27,1.63-.36,2.47A3.44,3.44,0,0,0,87.79,349.19Zm30.59-31.84a3.8,3.8,0,0,0-1.51,1.44,4,4,0,0,0-3.42,2,4,4,0,0,0-4.13.82c-1.82,1.57-3.57,3.2-5.24,4.91a4.9,4.9,0,0,0-1.73-3.63c-6.39-4.88-8.43-13.36-6-20.8,1.62-4.9-6.1-7-7.72-2.13a26.3,26.3,0,0,0,4.23,24.16c-4.21,3-7.06,8.54-9.35,12.82-2,3.75-3.83,7.61-5.48,11.54a4.18,4.18,0,0,0-1.29,1.76Q71.88,362.41,68,374.86c-.28-51.74,4.92-104.07,22.6-153h0c9.95-27.5,24.22-53.72,43.18-76.07a243.13,243.13,0,0,1,26.56-26.66c19.59-14.9,41-27.53,62.37-39.58,14-7.87,28.13-15.4,42.57-22.36q12.4-5.22,25-9.93c32.13-12,65.46-21.21,99.67-24.68a352,352,0,0,1,76.24.58,3.69,3.69,0,0,0,1.08,3.21,187.5,187.5,0,0,1,30,41.25A180.88,180.88,0,0,1,507.76,91.3c.31.85.6,1.71.89,2.58q1,6.77,2.26,13.49C408.44,115.52,312.69,158.3,221.23,203c-27,13.18-55.87,25.14-79.11,44.56-4,3.3,1.73,8.93,5.65,5.65,20.4-17,45.61-27.66,69.27-39.28,23.9-11.72,47.88-23.28,72.17-34.2,48.71-21.9,98.85-41.26,151-53.27a487.54,487.54,0,0,1,72.19-11.15c.24,1.22.5,2.45.75,3.68,3.41-.79,6.86-1.43,10.32-1.94,0-1.5-.11-3-.23-4.52a55,55,0,0,0-1.62-9c-2-5-4.1-10-5.81-15.1-1.14-2.31-2.22-4.66-3.27-7h-.11c-.54-1.32-1.11-2.63-1.68-3.93-.18-.42-.37-.84-.56-1.25a.24.24,0,0,0-.07-.2c-2.08-4.68-4.32-9.28-6.78-13.77a193.71,193.71,0,0,0-26.91-37.59q13.62,2,27,5.13a4,4,0,0,0,.42.49,149.41,149.41,0,0,1,41,71.8,5.3,5.3,0,0,0-.84.73,3.81,3.81,0,0,1,.5,1.06c.06.18.1.37.15.56a4.06,4.06,0,0,1,.92,1.58,22.68,22.68,0,0,1,.93,4.31h.08c.11.62.23,1.24.34,1.87.11,1.13.18,2.21.31,2.89v.09q5.12-.16,10.22-.19a44.9,44.9,0,0,0-2.33-5.77,3.83,3.83,0,0,0-.9-1.21c-.06-.21-.11-.42-.17-.62a157.81,157.81,0,0,0-33.84-71.23q5.88,2.85,11.66,6a3.67,3.67,0,0,1,3-.54A161.45,161.45,0,0,1,560,49.51l-5.7-3.43q12.61,5.24,24.79,11.57a319,319,0,0,1,63.78,44c-1.72-1.29-3.47-2.54-5.22-3.79,1.38,1.4,2.7,2.86,3.94,4.35a124.39,124.39,0,0,1,15.47,16.65c1.12,1.44,2.19,2.92,3.31,4.36l1.45,1.66c1.81,2,3.67,4,5.51,6.08,1.5,1.66,3.61,3.66,5.29,5.87a43.67,43.67,0,0,1,8.09,10.63,25.06,25.06,0,0,1,4.57,6.6l4.69,5.43c4.58,5.34,9.17,10.68,13.82,16q3.18,5.43,6.13,11-3.24-1.65-6.55-3.15a302.18,302.18,0,0,0-27.35-14.86,222,222,0,0,0-54.78-21.11,225.26,225.26,0,0,0-23.49-4.22c-2.38-.43-4.76-.82-7.14-1.19-3.33-.73-6.67-1.39-10-2a4,4,0,0,0-2.55.33c-3.47-.39-7-.74-10.44-1a3.38,3.38,0,0,0-3.31-1.63l-6,.33a3.22,3.22,0,0,0,.57-1.33c.26-1.4.44-2.79.57-4.17-3,0-6,.12-9,.23l.71,3.94a3.35,3.35,0,0,0,.86,1.68l-1.86.1q-12.5-.24-25,.59a4.7,4.7,0,0,0-.59-1.16,4,4,0,0,0,.19-2.51c-.07-.33-.15-.67-.22-1-2.67.24-5.33.51-8,.81.13.54.24,1.09.37,1.64a461.93,461.93,0,0,0-85.55,25.35l-.32.16c-44.29,16.6-87,37.53-128.79,59.65C288.61,229.21,275,236.6,261.46,244q-60.58,29.4-120.08,61Q129.88,311.15,118.38,317.35Zm678.31,67.2a4,4,0,0,0-.19,1.61c-5,5.72-11.72,10.44-17.7,14.6a293.7,293.7,0,0,1-34.59,20.64l-4.06,1a5.73,5.73,0,0,0-.81-1.45c-.11-.83-.23-1.65-.35-2.47-2.93-43.78-12.58-87.19-32.76-126.39C683.63,248.19,648.06,211,602.47,191c-48.08-21.08-101.19-22.52-151.13-7.3-27.11,8.26-53,20.14-78.75,31.77-26.75,12.06-53.42,24.31-80.44,35.76-15.52,6.58-31.17,12.88-47,18.73-15.07,5.58-30.4,10.44-45.38,16.25A283.07,283.07,0,0,0,159,306.38c-8,4.67-16.53,9.6-25.58,11.77q55.14-29.55,111.27-57.23a3.73,3.73,0,0,0,2.92-.38l17.57-9.65q18.17-8.82,36.44-17.46c30-14.14,60-28.05,90.48-41.13,30-12.88,60.61-24.6,92.28-32.67,26.85-6.85,54.63-10.79,82.19-10.52a291.92,291.92,0,0,1,138.79,52.55c1,.7,1.94,1.39,2.91,2.11l.33.24q7.46,5.51,14.57,11.47c1.19,1,2.38,2,3.55,3l.11.08a313,313,0,0,1,24.56,23.62,347.79,347.79,0,0,1,26.18,36.48q5.38,8.61,10.3,17.53,4.33,8.81,8.49,17.7a3.3,3.3,0,0,0,.26.45,234.6,234.6,0,0,1,6,39.26A133.18,133.18,0,0,1,796.69,384.55Z"/>
    <g id="nose">
      <path class="cls-5" d="M413.46,773.51a1.09,1.09,0,0,1-.24-.48,2.32,2.32,0,0,0-1.41-1.59,1,1,0,0,0,0-1c-3.49-5.89-9.4-9.58-15.4-12.54-1.16-.57-2.39-1.2-3.66-1.8-1-.54-2-1.06-3.09-1.52-3.34-1.49-6.85-2.71-10.52-1.72l-.19.07a.92.92,0,0,0-.37.05,2.82,2.82,0,0,0-1,.52,10,10,0,0,0-1.47.63,1,1,0,0,0,.33,1.81,2.49,2.49,0,0,0,2.11,2.64,3.12,3.12,0,0,0,1.63-.15l4.62,1.67q3.36,1.83,6.8,3.46c2.21,3.76,6.65,4,10.25,5.64a4.89,4.89,0,0,1,.64.34c.54.55,1.07,1.11,1.58,1.69a30.9,30.9,0,0,0,3.66,4.09,11.07,11.07,0,0,0,3.17,2.52,2.52,2.52,0,1,0,2.56-4.33Z"/>
      <path class="cls-5" d="M523.08,744.29a27.79,27.79,0,0,1-10.35,15.64,44.88,44.88,0,0,1-9.09,4.67c-3.24,1.4-7.79,3.58-8,7.58-.19,3.22,4.81,3.21,5,0,0,.42.19-.08.43-.3a10.14,10.14,0,0,1,.89-.73,15.11,15.11,0,0,1,2.05-1.21c1.55-.8,3.19-1.43,4.8-2.11a33.47,33.47,0,0,0,8.73-5.36,32.57,32.57,0,0,0,10.39-16.85C528.67,742.51,523.85,741.17,523.08,744.29Z"/>
      <path class="cls-5" d="M420.27,623a22.9,22.9,0,0,0-2.21-7.41,59,59,0,0,1-9.68,11.25,4.66,4.66,0,0,0,.22.45c-6.61,18.63-18.88,34.51-34.38,46.54a4.05,4.05,0,0,1-1.45,5c-5.11,4.05-7.77,9.6-11.54,14.76-.21.28-.43.54-.65.82,1-.52,2-1,3-1.59-1.44,1.67-2.88,3.33-4.29,5a4.14,4.14,0,0,0,.08,5.45,3.68,3.68,0,0,0-1.93,1.18,36,36,0,0,0-9.45,23,34.48,34.48,0,0,0,2.93,15.89c1,6.76,3.35,14.64,9.29,12.57,3.32-1.16,4.28-5,2.87-8-1.23-2.57-2.85-4.68-4.2-7a41.7,41.7,0,0,1,5.39-27.83,3.63,3.63,0,0,0-.36-4.42,4.08,4.08,0,0,0-.88-3.94,3.49,3.49,0,0,0,1.83-1.22q11.31-13.5,23.65-26a3.65,3.65,0,0,0,1-3.61,112.47,112.47,0,0,0,27.76-41.23,95.16,95.16,0,0,0,3.07-9.43C420.31,623.14,420.28,623.08,420.27,623Z"/>
      <path class="cls-5" d="M435.55,570a3.79,3.79,0,0,0-.45-1.17c-1.23.19-2.49.28-3.73.36-2.35.16-4.63,0-5.86,1.83.2,0,.41,0,.62,0a20.46,20.46,0,0,0-3.09,6,4.19,4.19,0,0,0-.11.78.88.88,0,0,1,.05.15,5.27,5.27,0,0,1,.38,1.77,3.93,3.93,0,0,0,2.62,2.13,4,4,0,0,0,3.94-1.23,3.86,3.86,0,0,0,4.66-2.64h.54C440.12,578.11,440.25,570.61,435.55,570Z"/>
    </g>
    <g id="eyebrows" class="face active">
      <path class="cls-6" d="M423.8,486.85c-1.81-3.43-4.13-6.52-7.1-7.92s-5.06-.87-6.72.54a38,38,0,0,0-6.06-10.72,4.91,4.91,0,0,0-5.85-.87c-.46-.81-.94-1.61-1.42-2.41a5,5,0,0,0-4.68-2.35,18.34,18.34,0,0,1-4.47-6.55c-1.41-3.35-5.16-3.07-7.43-1.09a179.84,179.84,0,0,1-18.58-14.93,4.57,4.57,0,0,0-6.44-.32l-.26.25v-.35a15.76,15.76,0,0,0-4.72-8.07c-2.8-2.21-8.35-1.38-8.55,2.77A97.18,97.18,0,0,1,324,423.75a5.23,5.23,0,0,0-7.37.58,6.16,6.16,0,0,0-.53.73,5.55,5.55,0,0,0-4.51.82q-.39-.84-.84-1.68a20.61,20.61,0,0,0-2.69-3.62,4.47,4.47,0,0,0-3.75-1.39,5.45,5.45,0,0,0-3.24-2.13c-1.08-4.65-8.38-4.65-9.67,0a5.26,5.26,0,0,0-1.31.57,24.22,24.22,0,0,1-4.59,2.13A6.62,6.62,0,0,0,284,414c-3.12-3.27-8.51-1.8-12.32-1-2.06.4-4,1-5.7-.41s-2-3.28-4.15-4.29a10.75,10.75,0,0,0-6.7-.42c-.17-3.4-4.1-6.22-7.51-4.19l-11.37,6.66a4.87,4.87,0,0,0-8-1.7c-1.93,1.82-3.91,3.55-5.94,5.21a5,5,0,0,0-4.73,0,329.37,329.37,0,0,0-52.13,31.45,5.18,5.18,0,0,0-2.08,5,5.5,5.5,0,0,0-3.36,5.61q-4.49-.24-9-.64c-5.75-.51-6.59,8.3-1.33,9.83q6.2,1.8,12.36,3.71a4.63,4.63,0,0,0,4,1.27l.25.08a10,10,0,0,0,9.92,2.31,4.86,4.86,0,0,0,3.42-6,2.78,2.78,0,0,0-.12-.38l3-.09a10.18,10.18,0,0,0,1.33-.14,4,4,0,0,0,3.54-3.91,11.9,11.9,0,0,0,2-1.75l1.91-.26a5,5,0,0,0,5.52.55l7.6-4.13a4.51,4.51,0,0,0,5.57,3.12,4.17,4.17,0,0,0,1.33-.63c1.57-.92,3.11-1.87,4.64-2.84,2.32,0,4.65,0,7-.19a13.29,13.29,0,0,0,7.18-1h.07l9.44,2.49a5.07,5.07,0,0,0,6.27-4.9,4,4,0,0,0,4.77,1.4,4.91,4.91,0,0,0,6,.89q2.33-1.26,4.62-2.56a4.75,4.75,0,0,0,1.82,1.48l10,4.93a5,5,0,0,0,5.66-.72,48.72,48.72,0,0,0,13.53-.64,2.13,2.13,0,0,0,.51-.14A46.27,46.27,0,0,0,305,461.58a4.92,4.92,0,0,0,5.62-2.71l1.06.68a47,47,0,0,0,8,8.67,5.66,5.66,0,0,0,4.88,1A10.24,10.24,0,0,0,330.4,473a8.35,8.35,0,0,0,5.84-.81c.54.91,1.12,1.8,1.76,2.67a6.09,6.09,0,0,0,6.09,2.14,8.24,8.24,0,0,0,8.81,1.48,7,7,0,0,0,4.66,2.39,6.21,6.21,0,0,0,3.77-.8h.42c.28.3.54.61.84.9,3.3,3.18,6.5,3,9.94,1.52,1.88,1,3.72,3.07,5.12,4.21l5.21,4.27,11.19,9.17c3.26,2.67,8.46,1.07,8.53-3.54l.08-4.62a4.53,4.53,0,0,0,1.42.07l.48,1.29c1.82,4.58,7.92,4.87,9.64,0,.17-.46.33-1.07.5-1.72.37.6.67,1.1.75,1.24a38.66,38.66,0,0,1,2.73,6.31,5.07,5.07,0,0,0,6.3,3.41,5,5,0,0,0,2-1.2,15,15,0,0,0,4.63-8.57A5.57,5.57,0,0,0,423.8,486.85Z"/>
      <path id="right-eyebrow" class="cls-6" d="M702.61,489.9c-1.76-4.23-3.76-8.35-5.88-12.41s-3.92-8.2-7.8-10.77a89.32,89.32,0,0,1-11-8.08c-3.48-3.14-7-6.14-11.36-8A20.35,20.35,0,0,0,655,449c-4.61.86-7.07,3.68-10.53,6.45-4,3.17-6.66.35-10.43-1.44s-7.65-2-11.2.11c-3.22,1.89-5,5.46-8.24,7.25-4,2.21-9.22,1.78-13.65,2.14-9.7.8-18.34,5.22-28,6.07a41.6,41.6,0,0,0-13.25,3.64c-4.46,1.9-8.86,2-13.47,3.13a16.28,16.28,0,0,0-5.82,2.69,8.72,8.72,0,0,0-1.12,1c-.92.32-1.84.63-2.72,1-2-.49-3.69-.82-5.75.21-1.77.89-2.51,2.73-4,3.86-3.35,2.56-7.78,2.48-11,5.68a18.2,18.2,0,0,0-2.39,3c-.91.32-1.78.68-2.64,1.08a5.65,5.65,0,0,0-3,1.6,29.56,29.56,0,0,0-4.66,3.6,5.58,5.58,0,0,0-1-.12c-1-3-5.25-4.48-7.11-1-.22.41-.45.79-.69,1.16a17.59,17.59,0,0,0-1.92,2.13l-.65.55a8,8,0,0,1-1.53.82c-1.87.76-3.61,2.94-2.86,5a39.87,39.87,0,0,0-2.72,6.17c-1.27,3.77,4,6.78,6.68,3.89.42-.45.81-.91,1.21-1.36a4,4,0,0,0,5.58.93,3.89,3.89,0,0,0,1.11-1.21l1.26-2.21a4.6,4.6,0,0,0,2.61-.4,4.92,4.92,0,0,0,0,2.47,64.14,64.14,0,0,0-2,6.29c-1.65,6,7.13,8.63,9.38,3.39a5.61,5.61,0,0,0,4.86,1.11,5.39,5.39,0,0,0,7.54,4c11.7-5.54,24.35-8.31,37.09-10.34a4.92,4.92,0,0,0,6.32-.36c.28-.25.57-.49.85-.72l6.52-.91a3.87,3.87,0,0,0,3.61-4.15,2.21,2.21,0,0,0,0-.35,95.26,95.26,0,0,1,14.43-3.35,191.52,191.52,0,0,1,30.7-2.63A198,198,0,0,1,679.49,517a4.65,4.65,0,0,0,3.76,1.87c4.42.15,8,3.35,12.54,1.61a7.7,7.7,0,0,0,1.75-.92,4.2,4.2,0,0,0,.22.88,3.12,3.12,0,0,0-.57,1,3.08,3.08,0,0,0-.35,1.54L697,524v0a5.62,5.62,0,0,1,1.37.88c.07.06.12.14.19.2a8.14,8.14,0,0,1,2.51.91c.92,0,1.85.05,2.76.08a2.61,2.61,0,0,0,.44-.37,2.81,2.81,0,0,0,.82-1.29,2.87,2.87,0,0,0,.33-1.35,4.26,4.26,0,0,0,.43-1.53,5,5,0,0,0,1.69-3.33C708.62,508.44,706.35,498.9,702.61,489.9Z"/>
    </g>
    <!-- <g id="eyebrows-up" class="faceup hide">
      <path id="left-eyebrow-up" class="cls-7" d="M425.42,460.1c-2.13-3.24-4.74-6.09-7.83-7.19s-5.12-.38-6.64,1.19A37.73,37.73,0,0,0,403.88,444a4.91,4.91,0,0,0-5.91-.3c-.54-.76-1.09-1.51-1.65-2.26a5,5,0,0,0-4.88-1.88,18.36,18.36,0,0,1-5.09-6.09c-1.73-3.19-5.43-2.55-7.5-.36a181.25,181.25,0,0,1-19.94-13.05,4.57,4.57,0,0,0-6.45.3l-.23.28,0-.35a11.69,11.69,0,0,0-1.48-3.16,11.89,11.89,0,0,0-4-4.41c-3-1.93-8.44-.56-8.24,3.59A97.58,97.58,0,0,1,320,407a5.23,5.23,0,0,0-7.28,1.29,5.14,5.14,0,0,0-.46.78,5.49,5.49,0,0,0-4.4,1.26c-.32-.54-.65-1.07-1-1.59a20.88,20.88,0,0,0-3-3.34,4.44,4.44,0,0,0-3.87-1,5.47,5.47,0,0,0-3.43-1.81c-1.53-4.52-8.8-3.81-9.63.95a5.28,5.28,0,0,0-1.25.69,25.09,25.09,0,0,1-4.36,2.57,6.62,6.62,0,0,0-2.13-5.61c-3.43-2.95-8.65-1-12.36.2-2,.6-3.89,1.39-5.71.15s-2.31-3.07-4.55-3.87a10.7,10.7,0,0,0-6.71.24c-.5-3.37-4.69-5.8-7.88-3.44l-10.67,7.73a4.87,4.87,0,0,0-8.13-.91c-1.74,2-3.54,3.91-5.4,5.76a5,5,0,0,0-4.71.46,327.53,327.53,0,0,0-48.82,36.37,5.17,5.17,0,0,0-1.59,5.18,5.5,5.5,0,0,0-2.8,5.91q-4.49.19-9,.24c-5.77.05-5.75,8.9-.36,9.91q6.33,1.2,12.66,2.49a4.63,4.63,0,0,0,4.1.88l.26,0a10,10,0,0,0,10.1,1.34,4.86,4.86,0,0,0,2.82-6.27l-.15-.36,3-.38a12.19,12.19,0,0,0,1.31-.27,4,4,0,0,0,3.15-4.24,12.87,12.87,0,0,0,1.82-1.94l1.87-.44a5,5,0,0,0,5.55,0l7.16-4.85a4.52,4.52,0,0,0,7.11,1.81c1.47-1.07,2.91-2.17,4.34-3.28,2.31-.23,4.63-.45,6.95-.87a13.45,13.45,0,0,0,7.05-1.69h.07l9.64,1.56a5.08,5.08,0,0,0,5.73-4.33,5,5,0,0,0,0-1.16,4,4,0,0,0,4.88.93,4.92,4.92,0,0,0,6.06.3q2.19-1.47,4.35-3a4.8,4.8,0,0,0,2,1.29l10.43,3.93a5,5,0,0,0,5.56-1.26,49,49,0,0,0,13.4-2,3,3,0,0,0,.5-.18,46.77,46.77,0,0,0,12.63,3.29,4.93,4.93,0,0,0,5.33-3.24l1.12.57a47,47,0,0,0,8.81,7.85,5.66,5.66,0,0,0,5,.52,10.26,10.26,0,0,0,6.15,3.23,8.45,8.45,0,0,0,5.74-1.37,31.13,31.13,0,0,0,2,2.48,6.09,6.09,0,0,0,6.27,1.54,8.25,8.25,0,0,0,8.91.61,7,7,0,0,0,4.87,1.93,6.32,6.32,0,0,0,3.67-1.16l.42,0c.31.27.6.55.93.81,3.59,2.84,6.76,2.35,10,.55,2,.81,4,2.69,5.5,3.69l5.6,3.74,12,8c3.51,2.34,8.53.24,8.15-4.35l-.37-4.61a4.84,4.84,0,0,0,1.42-.07l.6,1.24c2.26,4.38,8.36,4.07,9.59-.94a16.49,16.49,0,0,0,.33-1.76c.43.56.78,1,.87,1.16a38.39,38.39,0,0,1,3.33,6,5.07,5.07,0,0,0,8.53,1.38,15.1,15.1,0,0,0,3.77-9A5.56,5.56,0,0,0,425.42,460.1Z"/>
      <path id="right-eyebrow-up" class="cls-7" d="M709.39,491.86c-1.09-4.45-2.43-8.83-3.9-13.17s-2.61-8.7-6-11.84a89.72,89.72,0,0,1-9.62-9.68c-3-3.64-6-7.14-10-9.65a20.33,20.33,0,0,0-11.18-3.4c-4.69.14-7.56,2.55-11.4,4.76-4.44,2.51-6.64-.69-10.08-3s-7.26-3.16-11.09-1.62c-3.47,1.37-5.78,4.62-9.26,5.89-4.29,1.57-9.38.34-13.81,0-9.71-.7-18.93,2.34-28.6,1.69a41.74,41.74,0,0,0-13.66,1.55c-4.7,1.19-9.06.62-13.79,1a16.17,16.17,0,0,0-6.16,1.76,9,9,0,0,0-1.26.82c-1,.17-1.92.34-2.84.57-1.91-.79-3.52-1.38-5.72-.68-1.88.61-2.9,2.31-4.55,3.2-3.7,2-8.06,1.25-11.74,3.91a17.37,17.37,0,0,0-2.82,2.6c-1,.18-1.87.4-2.78.66a5.5,5.5,0,0,0-3.16,1.13,29.11,29.11,0,0,0-5.16,2.84,4.68,4.68,0,0,0-1-.28c-.52-3.11-4.49-5.23-6.87-2.08-.28.37-.56.71-.86,1a16.09,16.09,0,0,0-2.22,1.81l-.73.44a8.89,8.89,0,0,1-1.64.58c-2,.46-4,2.35-3.6,4.5a38.7,38.7,0,0,0-3.63,5.67c-1.84,3.53,2.9,7.32,6,4.88.48-.38.94-.78,1.4-1.16a4,4,0,0,0,5.37,1.77,3.87,3.87,0,0,0,1.29-1l1.58-2a4.65,4.65,0,0,0,2.64,0,5,5,0,0,0-.38,2.44,62.54,62.54,0,0,0-2.94,5.91c-2.56,5.67,5.71,9.62,8.74,4.79a5.61,5.61,0,0,0,4.63,1.85,5.39,5.39,0,0,0,5.49,5.3,5.12,5.12,0,0,0,1.35-.19c12.41-3.67,25.34-4.46,38.24-4.5a4.94,4.94,0,0,0,6.3.62c.31-.21.64-.4.95-.58l6.58.1a3.9,3.9,0,0,0,4.21-3.54c0-.12,0-.24,0-.35a93.69,93.69,0,0,1,14.77-1.09,190.48,190.48,0,0,1,30.74,2.13A197.4,197.4,0,0,1,682.38,515a4.66,4.66,0,0,0,3.42,2.42c4.35.83,7.39,4.55,12.15,3.53a9,9,0,0,0,1.87-.64,3.92,3.92,0,0,0,.08.9,2.86,2.86,0,0,0-.72.9,3,3,0,0,0-.58,1.47l0,1.07v0a5.17,5.17,0,0,1,1.21,1.07c.06.08.1.16.16.23a8,8,0,0,1,2.34,1.29c.91.1,1.82.33,2.72.5a2.43,2.43,0,0,0,.49-.29,3,3,0,0,0,1-1.15,2.89,2.89,0,0,0,.53-1.28,4.33,4.33,0,0,0,.66-1.45,5.1,5.1,0,0,0,2.19-3C712.47,511.11,711.7,501.33,709.39,491.86Z"/>
    </g> -->
    <g id="eyebrows-up" class="faceup hide">
        <path id="left-eyebrow-up" class="cls-7" d="M418.63,400.49c-2.7-2.71-5.83-5-9.08-5.49s-5.08.63-6.23,2.5a39,39,0,0,0-9-8.48,5,5,0,0,0-5.84.89c-.65-.69-1.37-1.25-2-1.94a5.09,5.09,0,0,0-5.19-.88,17.64,17.64,0,0,1-6.21-4.95c-2.31-2.8-5.81-1.47-7.43,1.11a175.33,175.33,0,0,1-22.12-8.86,4.47,4.47,0,0,0-6.21,1.58c-.08.11-.16.23-.14.33l-.06-.29a10.19,10.19,0,0,0-2.11-2.84,11.3,11.3,0,0,0-4.8-3.51c-3.32-1.26-8.35,1.09-7.31,5.17a97.47,97.47,0,0,1-20-5.41,5.18,5.18,0,0,0-6.89,2.73,6.78,6.78,0,0,0-.33.89,5.39,5.39,0,0,0-4.05,2.15,13.79,13.79,0,0,0-1.3-1.37,23.71,23.71,0,0,0-3.6-2.63,4.62,4.62,0,0,0-4-.2,5.65,5.65,0,0,0-3.69-1.08c-2.37-4.11-9.38-2-9.23,2.8a4.58,4.58,0,0,0-1,.92,24.23,24.23,0,0,1-3.79,3.43A6.83,6.83,0,0,0,263.8,372c-3.93-2.26-8.63.74-12.11,2.67-1.84,1-3.54,2.15-5.57,1.24s-2.87-2.58-5.19-2.92a10.88,10.88,0,0,0-6.52,1.54c-1.17-3.24-5.77-4.75-8.42-1.75l-8.94,9.68a4.85,4.85,0,0,0-6.81-.85,3.93,3.93,0,0,0-1.31,1.59c-1.27,2.3-2.65,4.52-4.13,6.76a5,5,0,0,0-4.51,1.43,328.41,328.41,0,0,0-40.53,45.43,5.11,5.11,0,0,0-.52,5.41,5.45,5.45,0,0,0-1.57,6.35c-2.92.69-5.84,1.39-8.77,2-5.67,1.26-3.91,9.88,1.58,9.78,4.28-.05,8.55-.11,13-.09a4.72,4.72,0,0,0,4.19.06l.32,0a9.73,9.73,0,0,0,10.15-.75,4.87,4.87,0,0,0,1.49-6.73c0-.1-.14-.18-.28-.35l2.86-1a6,6,0,0,0,1.21-.56,3.84,3.84,0,0,0,2.2-4.73A10.77,10.77,0,0,0,187,444l1.78-.78a5,5,0,0,0,5.39-1.1l6.09-6.14a4.51,4.51,0,0,0,6.2,1.39,3.73,3.73,0,0,0,1.12-1c1.25-1.38,2.4-2.73,3.55-4.09,2.21-.66,4.41-1.41,6.58-2.26a13,13,0,0,0,6.52-3.07l.1,0,9.72-.35a5,5,0,0,0,4.73-5.36,2.61,2.61,0,0,0-.24-1.17,4,4,0,0,0,5-.1,4.94,4.94,0,0,0,6-.93c1.27-1.28,2.45-2.54,3.62-3.8a4.67,4.67,0,0,0,2.22.88l11,1.74a5,5,0,0,0,5.22-2.4,47.06,47.06,0,0,0,12.73-4.64c.2,0,.28-.15.45-.29a46.18,46.18,0,0,0,13,.71,4.93,4.93,0,0,0,4.55-4.2l1.2.37a50.48,50.48,0,0,0,10.2,6,5.85,5.85,0,0,0,5-.51,9.91,9.91,0,0,0,6.71,1.9,7.71,7.71,0,0,0,5.31-2.52,22.65,22.65,0,0,0,2.46,2,5.9,5.9,0,0,0,6.47.21,8.22,8.22,0,0,0,8.84-1.19,7.31,7.31,0,0,0,5.18.88,6.3,6.3,0,0,0,3.39-1.91l.39-.08a7.07,7.07,0,0,0,1,.6c4.09,2,7.14,1,9.9-1.51,2.12.38,4.46,1.84,6.13,2.52l6.23,2.51,13.35,5.44c3.89,1.55,8.37-1.51,7.06-5.94l-1.31-4.42a6,6,0,0,0,1.35-.38l.83,1.05c3.13,3.86,9.05,2.34,9.22-2.8,0-.51,0-1.12-.06-1.82.51.51,1,.82,1.12,1a35.47,35.47,0,0,1,4.43,5.22,5.13,5.13,0,0,0,7,1.43,5.35,5.35,0,0,0,1.58-1.76,15.74,15.74,0,0,0,1.92-9.57C426.76,399.34,421.25,398.33,418.63,400.49Z"/>
        <path id="right-eyebrow-up" class="cls-7" d="M715.16,491.27c-.06-4.63-.36-9.12-.82-13.74s-.57-9.06-3.19-12.85A87.57,87.57,0,0,1,704,453.06c-2.11-4.18-4.24-8.27-7.55-11.7a20.19,20.19,0,0,0-10.15-5.84c-4.6-1-8,.72-12.19,2.1-4.85,1.45-6.27-2.17-9.16-5.2s-6.39-4.76-10.45-4.06c-3.73.57-6.69,3.17-10.39,3.65-4.55.59-9.23-1.83-13.45-3.12-9.29-2.87-18.93-2-28.24-4.79a42.39,42.39,0,0,0-13.71-1.53c-4.85.1-9-1.47-13.67-2.14a16.93,16.93,0,0,0-6.45.35c-.43.11-.89.31-1.45.49a23,23,0,0,0-2.86,0c-1.67-1.21-3.09-2.15-5.39-2-2,.16-3.35,1.59-5.11,2.1-4.06,1.12-8.18-.56-12.28,1.16a17.26,17.26,0,0,0-3.31,1.91,28,28,0,0,0-2.89.05,5.41,5.41,0,0,0-3.36.34,37.66,37.66,0,0,0-5.7,1.56c-.27-.17-.54-.33-.91-.52.21-3.13-3.21-6.08-6.25-3.6a8.53,8.53,0,0,1-1.1.77,12.33,12.33,0,0,0-2.55,1.26l-.77.23c-.53.08-1.16.14-1.69.22-2.07,0-4.42,1.34-4.53,3.57a34.15,34.15,0,0,0-4.79,4.75c-2.54,3,1.18,7.76,4.74,6.12.58-.27,1.06-.57,1.63-.85a4,4,0,0,0,4.86,3,4.09,4.09,0,0,0,1.49-.68l2-1.59a3.85,3.85,0,0,0,2.53.59,5.19,5.19,0,0,0-.93,2.25,63.5,63.5,0,0,0-4.15,5.09c-3.82,5,3.38,10.64,7.39,6.64a5.42,5.42,0,0,0,4.07,2.79,5.38,5.38,0,0,0,4.17,6.41,5,5,0,0,0,1.31.09c12.91-.8,25.66,1.33,38.23,4.24a4.87,4.87,0,0,0,6,2,8.05,8.05,0,0,1,1.11-.36l6.41,1.58a3.9,3.9,0,0,0,4.88-2.46l.09-.39a103.69,103.69,0,0,1,14.67,2.27,195.3,195.3,0,0,1,79.42,37.79,4.67,4.67,0,0,0,2.77,3.11c4,1.75,6.19,6.05,11,6.14a13.54,13.54,0,0,0,2-.16,2.71,2.71,0,0,0-.1.9,3.07,3.07,0,0,0-.89.72,3.32,3.32,0,0,0-.92,1.33l-.25,1.07h0a4.13,4.13,0,0,1,.92,1.34c.08.12,0,.22.15.24a7.19,7.19,0,0,1,1.95,1.78c.85.31,1.68.7,2.52,1.1.21,0,.33-.13.55-.18a3.4,3.4,0,0,0,1.22-.84,2.09,2.09,0,0,0,.78-1.16,5.91,5.91,0,0,0,1-1.2,5.1,5.1,0,0,0,2.82-2.43C713.85,510.67,715.28,501,715.16,491.27Z"/>
      </g>
    <g id="close-eyes" class="eyes hide">
      <path id="right-eye-close" class="cls-8" d="M636.66,590c.84-.26,1.68-.51,2.53-.75,5.69-3.73,11.88-6.58,17.53-10.46.69-.47,1.36-1,2-1.49a4.19,4.19,0,0,0-.72-2.07,9.93,9.93,0,0,0,4.18-2.48c1.36-1.36,3-7.68,4.46-8,3.83-.79,4.63-5.77,2.21-8.35a34.76,34.76,0,0,0-7.21-5.5,4.65,4.65,0,0,0-2.29-5.06l-.8-.48a5.15,5.15,0,0,0-3.36-5.29l-14.76-5.63c1.22-.06,2.45-.11,3.68-.15a6,6,0,0,1-1.54-.59c-1.72-.95-2.86-2.6-4.43-3.74A29.29,29.29,0,0,0,624,524.54a2.49,2.49,0,0,1-2.38-2c-8.13-1.28-16.58-.54-24.65.73-4.63.73-9.23,1.66-13.82,2.64s-9,1.81-13.37,3.57c-1.59.64-3.15,1.34-4.72,2.05-2.16,3.61-6.82,4.16-10.46,5.49a60.82,60.82,0,0,0-12.32,5.66c-.87.57-1.71,1.18-2.54,1.81-.08.14-.18.28-.26.43h0V545c0,.36-.06.45-.05,0a5.78,5.78,0,0,0,0,.93,2.42,2.42,0,0,1-2.41,2.41,2.37,2.37,0,0,1-1-.19,64.74,64.74,0,0,1-7.07,7.08,57.72,57.72,0,0,0-5.13,7.26c-.21.36-.41.73-.61,1.09a4.93,4.93,0,0,1,2.63-.95,52.49,52.49,0,0,0,11.68-2.09c.41-.32.82-.61,1.23-.92a20.43,20.43,0,0,1,.53-2.08,4.55,4.55,0,0,1,.7-1.91c5.89-13.84,26.55-18.55,39.73-20.87a161.07,161.07,0,0,1,30.92-2.53c7.88.16,16.26.69,23.51,4a4.39,4.39,0,0,1,2.43,2.47,49.39,49.39,0,0,1,6.27,5.18,26.05,26.05,0,0,1,2.37,1.73,20,20,0,0,1,3.81,4.15c.64.59,1.29,1.16,2,1.72,3.22,2.7,7,5.86,7.11,10.44.11,4.75-3.55,8-7.3,10.37a4.86,4.86,0,0,1-2.27,1.59,5.08,5.08,0,0,0,1,1.07,138.2,138.2,0,0,1-56.39,11c.69-.1,1.38-.24,2.06-.39-6,0-12.24-1.46-18.37-2.39l1,.47a30.19,30.19,0,0,0,5.3,1.81,138.72,138.72,0,0,1-45.65-11.89,5,5,0,0,1-3.81-.91,28.44,28.44,0,0,1-7.74.3h-.07v0c-.45,0-.91-.1-1.37-.17a4.16,4.16,0,0,1-.56-.14c.43.89.85,1.78,1.29,2.66a3.17,3.17,0,0,0,.49,1l.24.48c.25.36.5.73.72,1.11a3.22,3.22,0,0,0,.86.34c0,.15,0,.3,0,.45,7,2,13.44,5.61,20.11,8.52,1.71.75,3.46,1.39,5.24,2a5.05,5.05,0,0,0-1.49-1.82,149,149,0,0,0,67.1,4.7,93.84,93.84,0,0,0,13-3.46A4.27,4.27,0,0,1,636.66,590Z"/>
      <g id="left-eye-close">
        <path class="cls-8" d="M370.66,518.12c-27.23-21.23-62.05-25.12-95.35-28a3.32,3.32,0,0,0-3.76,2.82,1.1,1.1,0,0,0,0,.18c-15.7.84-29.61,7.93-43.17,15.36a4.49,4.49,0,0,0-2,6l.09.16-1.33.29a.66.66,0,0,1,0,.15,9.07,9.07,0,0,1,.05,2.49,38.65,38.65,0,0,1,4.54-1,21.55,21.55,0,0,1,6.47-.3h.15c.22,0,.43,0,.65.08a1.89,1.89,0,0,1,1.39.9h1.11a1.67,1.67,0,0,1,.26-.17c4.16-2,8.53-2.41,13-2.44,3.1-6.52,11.06-9.44,18.93-11.14a23.68,23.68,0,0,1,6.68-2l-2.77,0a5.46,5.46,0,0,0,1.45-3.34c30.38,2.66,63.16,6.16,88,25.52a4,4,0,0,0,1.77.83l1.16.07C371.13,524.41,373.76,520.55,370.66,518.12Z"/>
        <path class="cls-8" d="M351.13,572.54a3.88,3.88,0,0,0,3.85-3.95c.68-.19,1.37-.38,2-.59a4.24,4.24,0,0,0,5.47,2.17,66.63,66.63,0,0,0,15-7.27,5.24,5.24,0,0,0,1.71-6.73c1.86-2.19,2.06-5.63-1.25-7.17a65,65,0,0,1-10.07-5.82c-3.78-2.36-7.14-5.69-10.39-8.56A2,2,0,0,1,357,534a15.22,15.22,0,0,0-6.46.15,2.66,2.66,0,0,1-.87,1.33c1.25.43,2.5.85,3.74,1.29v.13c-1.94,1.74-2.7,4.76-.28,7.09A72.67,72.67,0,0,0,369,555.58a27.41,27.41,0,0,0-3.5,2.09,6.64,6.64,0,0,0-1.05,1c-.42.2-.86.37-1.28.56a3.34,3.34,0,0,0-2.45-.84Q335.54,560,310.31,560l-3.79-.64.63-.4a4.52,4.52,0,0,1-1.75-.88c-6.43.92-12.89.21-19.28-1a43.53,43.53,0,0,1-7.75-1.27,4.8,4.8,0,0,1-3.5,1.35,5.09,5.09,0,0,1-2.58-.65c-2.69-.13-5.39-.29-8.06-.54a109.37,109.37,0,0,1-29.46-15.31,3.2,3.2,0,0,0-4.56.42,5.71,5.71,0,0,0-.55-.55,19,19,0,0,1,7.41-4.86,5.12,5.12,0,0,0,3.49-6.14,10.76,10.76,0,0,1-1.67-5.63,7.52,7.52,0,0,1,.22-1.73c-4.19,0-8.43,0-12.62.38a37.36,37.36,0,0,0-4.26,2.09l-.18.29c-.93,1.44-1.91,2.86-2.71,4.38-.11.2-.21.41-.31.61l-.14.32c0,.1-.12.29-.13.32-.08.2-.14.4-.21.61a10,10,0,0,0-.26,1.11v.08c0,.2,0,.41,0,.61a2.33,2.33,0,0,1-.57,1.53c0,.3,0,.59,0,.89l1.32-.74a5.35,5.35,0,0,0,1-.4,4.49,4.49,0,0,0,1.48.38c-.2.24-.41.47-.61.72a6.29,6.29,0,0,0-1.39,3.46c5.56,4.46,9.65,10.84,15,15.69a73.43,73.43,0,0,0,13.22,9.23,164.09,164.09,0,0,0,25.08,3.16C298,573.25,325.23,573.22,351.13,572.54Z"/>
      </g>
    </g>
    <g id="eyes" class="eyes active">
      <g id="right-eye">
        <g id="eyeball-right" class="eyeball" >
          <circle class="cls-9" cx="600.67" cy="562.35" r="42.22"/>
          <path class="cls-8" d="M613.27,547.44a26.3,26.3,0,0,1-6-6.1,25.4,25.4,0,0,0-5.72-3.1l.78-.1c-6.35-3.81-14.66-2.6-21.56-1.12-3.7.79-7.55,1.6-10.77,3.69a46.73,46.73,0,0,0-4.6,3.57,7.22,7.22,0,0,1-.41.68c-.43.57-.82,1.14-1.21,1.71,1.29-.48,2.58-.94,3.89-1.36a20.63,20.63,0,0,0-1.57,2.64,4.29,4.29,0,0,0-2.8,1.66c-10.08,12.28,2.6,29.08,14.43,34.38,14.66,6.56,29.67.07,36.93-13.94A21.65,21.65,0,0,0,613.27,547.44Z"/>
        </g>
        <path id="light-right2" class="light cls-12" d="M632.1,557.55c0-.07,0-.14,0-.21v-1a4.32,4.32,0,0,0-2.76-4.11,3.47,3.47,0,0,0-1.74-.39l-1.19.16a4.56,4.56,0,0,0-2,1.16c-.23.31-.47.61-.7.91a4.53,4.53,0,0,0-.62,2.27v.17a4.28,4.28,0,0,0-2.43-.7c-5.74,0-5.79,8.82-.15,9a4.33,4.33,0,0,0,8.23,0C632.79,564.67,633.9,560.13,632.1,557.55Z"/>
        <path id="light-right" class="light cls-12" d="M586.86,551.46a4.08,4.08,0,0,0-4.92-2.8,7.33,7.33,0,0,1-5.86-1.46c-1.76-1.25-4.45-.31-5.47,1.44a4,4,0,0,0,.91,5,1.94,1.94,0,0,0,1,1.56c-.26.5-.53,1-.8,1.5-.07.16-.13.32-.2.47a1.56,1.56,0,0,0,0,.8,1,1,0,0,0,.14.51,1.5,1.5,0,0,0,.41.64l.41.31.48.21a1.52,1.52,0,0,0,.79,0,1.45,1.45,0,0,0,.75-.24,4.15,4.15,0,0,1,.64-.38,2.62,2.62,0,0,1,.38-.09l.16,0a2,2,0,0,0,1.42-.58,1.56,1.56,0,0,0,.41-.64,1.59,1.59,0,0,0,.17-.78c0-.17,0-.35-.07-.53l0,0a16.4,16.4,0,0,0,6.51,0A4,4,0,0,0,586.86,551.46Z"/>
        <path class="cls-11" d="M668.8,556.12a33.83,33.83,0,0,0-7.21-5.5,4.64,4.64,0,0,0-2.29-5.06l-.8-.48a5.14,5.14,0,0,0-3.36-5.29l-14.76-5.63c1.23-.07,2.46-.11,3.69-.15a5.82,5.82,0,0,1-1.54-.59c-1.72-1-2.86-2.61-4.43-3.74a29.44,29.44,0,0,0-14.2-5.4,2.48,2.48,0,0,1-2.37-2c-8.14-1.28-16.59-.54-24.66.73-4.63.73-9.23,1.66-13.81,2.64a77.73,77.73,0,0,0-13.37,3.56c-1.59.65-3.16,1.35-4.72,2.05-2.16,3.62-6.82,4.16-10.47,5.5a60.74,60.74,0,0,0-12.31,5.66c-.88.56-1.72,1.17-2.54,1.8-.09.15-.18.28-.26.43v0a.23.23,0,0,1,0,.07c0,.36-.06.45,0,0a7.07,7.07,0,0,0,0,.92c.18,1.3-1.24,2.41-2.41,2.41a2.4,2.4,0,0,1-.95-.19,63.87,63.87,0,0,1-7.06,7.09,56,56,0,0,0-5.13,7.26c-1,1.65-1.86,3.33-2.86,4.92.37.53.74,1.07,1.06,1.63,1.44,2.5,2.57,5.16,3.9,7.71a13.14,13.14,0,0,1,.72,1.11,3.38,3.38,0,0,0,.86.35,7.38,7.38,0,0,0,0,1.24l0,0h0c.09.19.18.37.26.57a1.76,1.76,0,0,1,.06,1.11,10.14,10.14,0,0,0,4.17,5.13c4.62,3.17,9.31,6.28,14,9.41a4.27,4.27,0,0,0,4,.62,3.85,3.85,0,0,0,1.49,1.34c16.4,8.47,34.94,8.25,52.93,7.65,9-.3,17.63-1.22,25.8-5.13,6.66-3.18,12.49-7.83,18.06-12.67a3.55,3.55,0,0,0,2.72-2.39l1.57-1.39c2.85-2.54-.16-8.23-3.89-6.69a8.21,8.21,0,0,0-4.29,3.29c-5.19,4.58-10.55,9-16.72,12.22-7.86,4.06-16.36,4.57-25,4.83-15.9.48-32.6.89-47.11-6.61a4,4,0,0,0-2.25-.45,4.92,4.92,0,0,0-2.18-3.23l-7.76-5.23-3.62-2.44-1.46-1c1.86-4-2.72-7.58-6.39-6.41a3.44,3.44,0,0,0-.94-1,70.53,70.53,0,0,1,11.54-12.68c7.39-6.22,16.17-10.4,25.33-13.37a.56.56,0,0,1-.05.08,51.29,51.29,0,0,1,13.17-3.37c.71-.15,1.43-.27,2.15-.41,6.26-2.47,12.57-4.56,19.11-3.43,4.22-.56,8.47-1,12.7-1.46-2.3,2.63-2.15,7.23,2.15,7.85,7.62,1.11,17.48,2.51,23.6,7.6,5.46,4.54,6.2,12.49,6.83,19.09.25,2.68,2.08,5,5,5,3.61,0,7.1-.52,9.76-3.19,1.36-1.36,3-7.68,4.46-8C670.42,563.68,671.22,558.7,668.8,556.12Zm-12.44,6.23c-.29-1.39-.59-2.76-.89-4.12.69.45,1.38.91,2.06,1.4A16.77,16.77,0,0,0,656.36,562.35Z"/>
      </g>
      <g id="left-eye">
        <g id="eyeball-left" class="eyeball">
          <circle class="cls-9" cx="305.72" cy="535.6" r="42.22"/>
          <path class="cls-8" d="M316.32,522.68a26.06,26.06,0,0,1-5.95-6.1,25.69,25.69,0,0,0-5.73-3.1l.79-.1c-6.35-3.81-14.67-2.6-21.56-1.12-3.71.79-7.56,1.6-10.78,3.69a48,48,0,0,0-4.6,3.57,7.22,7.22,0,0,1-.41.68c-.42.57-.82,1.14-1.21,1.71,1.29-.48,2.59-.94,3.89-1.36a20.63,20.63,0,0,0-1.57,2.64,4.29,4.29,0,0,0-2.8,1.66c-10.08,12.28,2.6,29.08,14.43,34.38,14.66,6.56,29.67.07,36.93-13.94A21.65,21.65,0,0,0,316.32,522.68Z"/>
        </g>
        <path id="light-left2" class="light cls-12" d="M334.79,538.54a4.55,4.55,0,0,0-4.5-4.5,4.46,4.46,0,0,0-1,.15,4.17,4.17,0,0,0-3-1.14,4.27,4.27,0,0,0-4.34,4.6,4.14,4.14,0,0,0-1.5,1.72c-3.83,1.7-3.21,8.62,1.88,8.62a4.05,4.05,0,0,0,3.84-2.36l.14-.07a3.3,3.3,0,0,0,.66,1l.05.06.05.06a1.27,1.27,0,0,0,.13.11,4,4,0,0,0,2.11,1.12,3.66,3.66,0,0,0,.94.09,4.19,4.19,0,0,0,2.94-1.1l.25-.22,0,0,.11-.15.55-.71a4.42,4.42,0,0,0,.61-2.27v-1a4.43,4.43,0,0,0,0-.63c0-.12,0-.23,0-.36Z"/>
        <path id="light-left" class="light cls-12" d="M289.42,530.07c-.19-1.19-.39-2.39-.59-3.58a2,2,0,0,0-.92-1.19,2,2,0,0,0-1.54-.2,2.18,2.18,0,0,0-1,.59,2,2,0,0,0-.85-.2h-5.28a2,2,0,0,0-1.23.44,1.89,1.89,0,0,0-.62.06,2,2,0,0,0-1.42,2.36,2.32,2.32,0,0,0-.06.46v1.76a1.46,1.46,0,0,0,.18.77,1.27,1.27,0,0,0,.27.48,1.83,1.83,0,0,0,0,.9,2,2,0,0,0,2.46,1.4l7.59-1.8h0a2.07,2.07,0,0,0,1.54.21,2,2,0,0,0,1.19-.92l.2-.48A1.91,1.91,0,0,0,289.42,530.07Z"/>
        <path id="skin" class="cls-10" d="M358.57,510.36c-12.08-5.57-24.56-13.27-39.08-14.47-14.08-1.17-28.95.23-42.92,1.6-17.3,1.71-17.53,22.17,0,20.44A311.51,311.51,0,0,1,310.06,516c13.17.14,23.7,6.93,34.62,12C359.76,535,373.59,517.3,358.57,510.36Z"/>
        <g>
          <path class="cls-11" d="M329.44,568.68a154,154,0,0,1-83-3.27,3.4,3.4,0,0,0-1.57-1.73l-.33-.17a2.8,2.8,0,0,0-.1-.36,2.38,2.38,0,0,0-.28-.77,4.34,4.34,0,0,0-1.26-4.91,58.4,58.4,0,0,1-12-15.63,4.94,4.94,0,0,0-1.32-1.62,18.73,18.73,0,0,1,7.41-4.86,5.11,5.11,0,0,0,3.49-6.15,10.94,10.94,0,0,1-1.67-5.62,8,8,0,0,1,.22-1.73c-4.19,0-8.42,0-12.61.38a35.77,35.77,0,0,0-4.26,2.09l-.18.28c-.94,1.44-1.92,2.87-2.72,4.39l-.3.6s-.1.22-.15.32-.12.29-.13.32c-.07.2-.14.41-.2.61a8.66,8.66,0,0,0-.26,1.12v.08c0,.2,0,.4,0,.61a2.39,2.39,0,0,1-.57,1.53c0,.29,0,.59,0,.88l1.31-.73a5.8,5.8,0,0,0,1-.4,4.49,4.49,0,0,0,1.48.38c-.2.24-.41.47-.61.72-1.66,2.12-2.07,5,0,7.07a5.15,5.15,0,0,0,1.07.78,4.83,4.83,0,0,0,.35,4,67,67,0,0,0,13.55,17.66,6.64,6.64,0,0,0,.9.68,7.71,7.71,0,0,0,4.14,5.36l.16.06a3.88,3.88,0,0,0,2.45,2.2,161.76,161.76,0,0,0,75.53,6c0,2.43,1.93,4.77,4.82,3.7a19.87,19.87,0,0,0,10.18-8C336,571.55,332.65,567.91,329.44,568.68Z"/>
          <path class="cls-11" d="M370.58,517.87c-27.23-21.23-62.05-25.12-95.35-28a3.33,3.33,0,0,0-3.76,2.81,1.23,1.23,0,0,1,0,.19c-15.7.84-29.61,7.93-43.17,15.36a4.49,4.49,0,0,0-2,6,1.3,1.3,0,0,0,.08.17l-1.32.29s0,.09.05.14a9.14,9.14,0,0,1,.05,2.5,35.22,35.22,0,0,1,4.53-1,21.55,21.55,0,0,1,6.47-.3h.16v0l.64.07a1.9,1.9,0,0,1,1.39.91h1.11a2.46,2.46,0,0,1,.27-.17c5.65-2.68,11.69-2.54,17.75-2.38a29.78,29.78,0,0,1,5.26,0,2.29,2.29,0,0,1,2.54-.13,2.38,2.38,0,0,1,.86.92,5.77,5.77,0,0,1,.8-.29,78.8,78.8,0,0,1,13.28-2.48,83.83,83.83,0,0,1,23.83-2,50.11,50.11,0,0,1,6.55.82,4.76,4.76,0,0,0-2.84-6l-.47-.14a106.18,106.18,0,0,0-31.77-3.9,5.38,5.38,0,0,0,1.45-3.34c30.38,2.66,63.16,6.16,88,25.52a4.39,4.39,0,0,0,1.77.83l1.16.07C371.05,524.16,373.69,520.29,370.58,517.87Z"/>
          <path class="cls-11" d="M377.88,548.75a67.2,67.2,0,0,1-10.07-5.82c-3.78-2.36-7.14-5.69-10.38-8.56a2,2,0,0,1-.47-.65,15.26,15.26,0,0,0-6.47.14,2.58,2.58,0,0,1-.87,1.34c1.25.42,2.5.84,3.74,1.29v.13c-1.94,1.74-2.7,4.76-.28,7.09a73.57,73.57,0,0,0,15.81,11.62,25.27,25.27,0,0,0-3.5,2.09,6.62,6.62,0,0,0-1.05,1,49.23,49.23,0,0,1-4.58,1.85c-6.05,2.09-3.45,11.75,2.66,9.65a66.64,66.64,0,0,0,15-7.27,5.24,5.24,0,0,0,1.71-6.73C381,553.73,381.19,550.29,377.88,548.75Z"/>
        </g>
      </g>
    </g>
    <path id="glasses" class="cls-11" d="M773.67,549.34a5.74,5.74,0,0,0-.53-.76,4.65,4.65,0,0,0-.28-1.69,43.45,43.45,0,0,0-4.46-8.75,233.34,233.34,0,0,0-17.26-27c-3.78-5.06-7.73-10-11.89-14.76-4.61-5.27-9.44-10.21-12.65-16.52l0,0a2.09,2.09,0,0,1-.56.55c1.17,4.83.62,10-.07,14.87-.67,4.7-1.73,9.41-2,14.17,1.25,1.2,2.45,2.39,3.63,3.6v0a5,5,0,0,0,1.55,1.6,248.22,248.22,0,0,1,19.09,22.14c-8.7-1.78-17.38-3.68-26-6a.41.41,0,0,1,0-.11c-1.74-.45-3.43-1-5.13-1.62-1-.33-1.93-.64-2.91-.9-.48-.13-1-.25-1.45-.35l-.63-.12-.36-.06h0l-.13,0v.09c-1.25-.38-2.49-.78-3.74-1.17-2,0-3.77-.78-5.68-1.11a6.72,6.72,0,0,1-2.35-.78,4.42,4.42,0,0,1-1.1-1c-10.46-3.3-20.9-6.38-31.93-7.9-32.59-4.49-65.55.44-97.08,8.91-18.24,4.89-36.14,11-54,17a5.11,5.11,0,0,0-1.72,1,6,6,0,0,0-1-.38c-17.08-4.53-35.65-3.68-53.19-4.41-18.32-.76-36.82-2.22-54.92,1.61a5.51,5.51,0,0,0-1.26.43c-10.87-6.6-21.8-12.79-34.39-14.92a258.7,258.7,0,0,0-34.22-11,164.68,164.68,0,0,0-17.83-3.76q-5.43-1-10.91-1.67a4.6,4.6,0,0,0,.13-.5l-1.65-.4c-1.42-.35-2.84-.71-4.29-1-1.63-.27-3.32-.29-5-.4-12.45-.84-25-1.34-37.43-1.27a163.58,163.58,0,0,0-22.43,1.32,39.37,39.37,0,0,0-11.84,4.73,2.17,2.17,0,0,1-1.74.31l0,.05c-4.36.88-8.7,1.86-13,3A4,4,0,0,0,205.3,513l-39.59,4.35-19.3,2.12c-5.76.63-11.74.9-17.28,2.71a101,101,0,0,0-11.68-16.39c-12.27-14.51-21.9-29.53-27-48a4.61,4.61,0,0,0-2.68-3.16q-1.62-5.6-3-11.29a4.54,4.54,0,0,0-.63-2.9l0,0q-1.89-8.26-3.19-16.74a2.86,2.86,0,0,1-.47-.4,11.9,11.9,0,0,0-.88-.86l-.44-.37-.07-.06-.1-.07a22,22,0,0,0-2.27-1.41c-.38-.2-.77-.38-1.16-.57l-.2-.08-.44-.18a19.61,19.61,0,0,0-2.4-.74c-.41-.1-.83-.17-1.25-.24h-.07l-.61,0a10.28,10.28,0,0,0-1.11,0l-.58,0h0c-.35.11-.72.14-1.07.26-.18.05-.66.3-.07,0l-.42.2-.46.27-.06,0c-.22.22-.44.43-.65.66l-.1.15-.25.44a1.24,1.24,0,0,0-.1.2l-.16.46c-.07.25-.14.5-.19.76l-.07.41c0,.13,0,.49,0,.55,0,.24,0,.48,0,.71a2.23,2.23,0,0,1-.87,1.83,11.88,11.88,0,0,1,.36,1.2l.57-.18a5.44,5.44,0,0,0,.5-.22q1,11.85,2.2,23.67l.19,2.46a3.62,3.62,0,0,0,.17.87c.24,2.33.51,4.66.77,7,1.28,4.18,2.66,8.33,4.17,12.44A219.94,219.94,0,0,0,82.3,494q1.41,2.34,2.86,4.65a2.12,2.12,0,0,1,1.44.64,17.14,17.14,0,0,1,1.75,2.17c.07-.35.14-.71.2-1.06q2.67,5.26,5.73,10.37a339.76,339.76,0,0,0,19.11,28.61,62.1,62.1,0,0,0,8.34,10.83c8,10,16.41,19.5,25.22,28.62a4.66,4.66,0,0,0,2.63,1.45,90.61,90.61,0,0,1,9.51,19.42c5.09,25.1,14.67,49.17,30.8,69.41,18.5,23.2,45,39.35,74.67,42.73,31.23,3.55,65.42-2.77,93.59-16.58l2.28-1.16a25.35,25.35,0,0,1,4.74-2.55c2.69-2.41,6.17-3.9,9.51-5.34,3.94-4.28,8.95-7.38,13.65-10.79a2.62,2.62,0,0,1,.58-1,2.89,2.89,0,0,1,.69-.47,4,4,0,0,0-.09-.48,112.59,112.59,0,0,0,27.76-41.23,97.48,97.48,0,0,0,6-25.53,27.85,27.85,0,0,0-.13-20.87c-.09-.21-.2-.42-.31-.63a79.76,79.76,0,0,0-2-9.67c.24-.44.47-.88.68-1.33a15,15,0,0,1,3.44-3.63l.53.07a17.08,17.08,0,0,1,7.78-3.57c1-.22,2.07-.39,3.11-.53l.23-.07q1.09-.12,2.19-.18c.76-.06,1.52-.1,2.28-.13a5.33,5.33,0,0,0,2.09-.79,148.49,148.49,0,0,1,20.65.93A208,208,0,0,1,485,569.9c1.33.29,3.31.64,5.41,1.17a4.62,4.62,0,0,0,.58,3.64c2.16,3.62,2.09,7.87,2.38,12l.33,4.55a5.25,5.25,0,0,0-.71,3.5q.92,6.78,2.37,13.43c2.85,28.54,7.75,57.35,25.68,80.49a4.36,4.36,0,0,0,1.63,2.82c6.32,5.32,12.59,9.65,20.33,12.63,7.42,2.86,15.08,5.25,22.71,7.46,15.77,4.56,32.34,7.79,48.82,6.82s31.79-6.79,46.88-13.35c7.77-3.38,15.72-6.83,22.81-11.47l-.08.36c.4-.25.8-.49,1.21-.72a12.28,12.28,0,0,0,3.29-3.14,45.34,45.34,0,0,1,7.32-6.44,36.21,36.21,0,0,0,4.17-3.76,44.87,44.87,0,0,0,3-4,29.7,29.7,0,0,1,6.33-6.08l0,0a1.74,1.74,0,0,1,.11-.18A4.26,4.26,0,0,1,710,669l.14-.14a5.07,5.07,0,0,1,.64-.47l.38-.16a167.58,167.58,0,0,0,13.89-24.28c6.18-12.75,9.62-26.57,11.86-40.61a4.28,4.28,0,0,0,4.38-2.5c5.84-11.34,15.68-17.34,26-24,4-2.59,8-5.88,9.55-10.57C778.87,560.3,776.69,554.48,773.67,549.34Zm-608.06,4.1a14,14,0,0,1-3.07,1.07,16.59,16.59,0,0,1-8.19-.33c-3-.86-10.15-3.92-6.61-6.8a4.18,4.18,0,0,0,3.5-1c.9-.23,1.82-.43,2.76-.59a38.83,38.83,0,0,1,7.15-.47,32.32,32.32,0,0,1,3.4.21,3.81,3.81,0,0,0,1.32.48,3.75,3.75,0,0,0,1,2.23,5.4,5.4,0,0,0,.4,4C166.77,552.51,166.27,553.13,165.61,553.44Zm243,73.47c-8.49,23.94-26.3,43.36-48.35,55.87-24.72,14-54,20.05-82.23,19.81-28.64-.24-54.3-11.72-74-32.42-18.13-19-29-43.57-34.57-69.07a5,5,0,0,0-.19-2.4c-.25-.76-.51-1.5-.78-2.25-.19-1-.39-2-.56-2.92a5.17,5.17,0,0,0,.56-3.49c-1.33-7.32,2.54-14.35,6.19-20.41a102.54,102.54,0,0,1,12-16.12,107,107,0,0,1,14-13A93.18,93.18,0,0,1,208.6,535q2-1.28,4.07-2.46l2.07-1.16h0a17.06,17.06,0,0,1,4.82-1.77c2.86-1.52,6.22-2,9.39-2.54l1.42-.28a53.19,53.19,0,0,1,5.23-1.92l-.05-.09.7-.08a13.86,13.86,0,0,1,4-.43l3.92-.35q8.92-.74,17.9-1l-.17.29a75.94,75.94,0,0,1,18-.5c4,0,8,.15,12,.36l-.18.17c8.33-1.13,17.34-.79,25.29,1.94,2.17.25,4.35.51,6.53.8a3.86,3.86,0,0,0,.68,0c7.58,1.88,15.07,4.13,22.45,6.7,6,.63,11.32,4.34,16.64,7.1-.68-.48-1.36-1-2-1.46A249.12,249.12,0,0,1,390,552.58c13.82,20.77,23.71,45.28,18.06,70.52A4.86,4.86,0,0,0,408.62,626.91Zm118.13-78.46c-.47.5-.91,1-1.36,1.54-.1-.23-.21-.46-.33-.68s-.08-.16-.12-.25Zm196.32,72.67-.3.08c-5.72,2.34-7.55,11.11-10.14,16.29-1.4,2.8-2.88,5.57-4.41,8.3,0-.16,0-.33.08-.49-1.11,1.89-2.51,3.58-3.74,5.47-1.74,2.67-3.48,5.32-5.08,8.06a30.25,30.25,0,0,1-2.84,3.53c-.78,1-.88,2.36-1.62,3.39a22.83,22.83,0,0,1-3.76,3.59c-.91.78-1.78,1.6-2.61,2.45,0,.22-.1.45-.14.67a79.54,79.54,0,0,1-18.79,13.75,4.46,4.46,0,0,0-2.34,2.69c-19.65,11.36-43,15.72-65.67,13.77a141.84,141.84,0,0,1-44-11.46,173.41,173.41,0,0,1-20.44-10.48c-5.95-3.56-11.86-7.39-15.69-13.32a5.82,5.82,0,0,0-.73-.91c-9.82-24.66-17.34-52.53-6.62-77.93,2.49-4.76,5-9.53,7.88-14.1a2.82,2.82,0,0,0,.38.21,20.61,20.61,0,0,1,1.93-3.84,22.86,22.86,0,0,1,2.3-3l-.08-.07a70.16,70.16,0,0,1,11.54-12.68c7.39-6.22,16.17-10.4,25.33-13.37-.11.15-.2.3-.29.45a79.4,79.4,0,0,1,9.52-2.66c1.64-.53,3.29-1,5-1.42,3.37-.83,6.78-1.46,10.2-2,1.28-.26,2.56-.51,3.85-.71q2.88-.45,5.78-.72l-.13-.06q6.29-.82,12.59-1.45a155.5,155.5,0,0,1,19-1.1l1.66-.27a39,39,0,0,1,5.75-.56l-.25-.1a186.18,186.18,0,0,1,36.47,1.66,122.49,122.49,0,0,1,36.76,11.53c0,.07,0,.14,0,.2a5.56,5.56,0,0,1,.72.47,17.06,17.06,0,0,1,1.63,1.55c.49.41.95.85,1.4,1.31,1.08.91,2.23,1.73,3.26,2.7a13.06,13.06,0,0,1,1.35,1.54c.24.2.48.4.7.62a7.5,7.5,0,0,1,2.18,3.68c.36.54.72,1.08,1.07,1.62,3.18,4.94,6.38,10,8.33,15.58.12.33.2.66.31,1C728.9,590,727.27,606,723.07,621.12Zm18.59-39.86v0a7.91,7.91,0,0,0-.07-1.28c.41.06.81.1,1.21.14C742.41,580.5,742,580.87,741.66,581.26ZM764,567c-1.09.84-2.23,1.6-3.4,2.33a4.59,4.59,0,0,0-3.16-.21,33.39,33.39,0,0,1-15.7.82,5.57,5.57,0,0,0-1.63,0,3.87,3.87,0,0,0-1.53-1.65,72.44,72.44,0,0,0-3.35-7,6.31,6.31,0,0,0,.91-.35,51,51,0,0,1,12.65-4.45,17,17,0,0,1,2.47-.32l0,0a4.36,4.36,0,0,0,.62.67,5.3,5.3,0,0,0,4.88,1.23,13.77,13.77,0,0,1,5.43,3.93,4.72,4.72,0,0,0,4.83,1.24A8.53,8.53,0,0,1,764,567Z"/>
  </g>
</svg>
