<?xml version="1.0" encoding="UTF-8"?>
<svg id="Layer_2" data-name="Layer 2" xmlns="http://www.w3.org/2000/svg" viewBox="0 0 823.56 1269.63">
  <defs>
    <style>
      .cls-1 {
        fill: #b52323;
      }

      .cls-2 {
        fill: #100bd8;
      }

      .cls-3 {
        fill: #fff;
      }

      .cls-4 {
        fill: #fcc0c0;
      }

      .cls-5 {
        fill: #ed0fc3;
      }

      .cls-6 {
        fill: #16b2d6;
      }

      .cls-7 {
        fill: #63aaaa;
      }

      .cls-8 {
        fill: #7e0fe8;
      }

      .cls-9 {
        fill: #f2ae14;
      }

      .cls-10 {
        fill: #e8a623;
      }

      .cls-11 {
        fill: #493b23;
      }

      .cls-12 {
        fill: #097f2a;
      }

      .cls-13 {
        fill: #7c3372;
      }

      .cls-14 {
        fill: none;
      }
    </style>
  </defs>
  <g id="background-color">
    <path class="cls-4" d="M61.09,409.7s-27.02-14.99-35.34,2.39-20.15,27.66-20.48,37.57,8.92,81.58,21.8,109.32,17.68,63.08,17.68,63.08l16.34,26.09,190.24,290.97,227.55,30.39,163-106.82,61.26-230.72,16.51-125.45,9.92-77.34s48.87-18.49,64.72-37.64,19.82-52.84,19.82-61.43-59.45-119.56-87.19-132.11c-9.25-17.83-82.57-125.5-145.32-149.94S437.61-12.54,353.72,14.79s-123.39,36.99-178.35,77.52S63.52,228.08,58.45,310.29s2.64,99.41,2.64,99.41Z"/>
    <polygon class="cls-4" points="729.58 555.07 738.82 570.22 763.59 565.92 770.52 557.32 754.34 545.45 729.58 555.07"/>
  </g>
  <g id="face">
    <g id="ear">
      <path class="cls-8" d="M71.38,420.1c1.2-.7,2.2-1.6,2.4-3.1,.4-3-2.2-6.5-4.2-8.4-5.1-4.9-12.8-6.4-18.8-9.9-7.4-1.6-15.3-.5-22,3.4-17.4,9.9-25.6,31.3-28,50.1-2.8,22.4,2.3,44.7,9,66,7.2,22.9,15.8,45.4,23.1,68.3,1.9,6,3.8,12,5.5,18.1-3,12.2-5.4,30.3,4.4,38.6,.4,0,.8,.1,1.3,.2,8.2,2.4,11.3-4.9,12-13.4-.5-.5-.9-1.2-1.2-2h0c-.1,.4-.1,.7-.1,1.1-.1-.5-.2-1-.3-1.5-2.1-10.2-4.8-20.3-7.7-30.3-5.8-19.7-12.8-39.1-19.5-58.5-12.3-35.2-28.4-78.6-7.4-113.8,4.6-7.7,11.7-15.3,21-17.1,7.4-1.4,16.5,1.8,19.3,9.2,.7,1.8,2.2,3,4,3.3,1.7-2.1,4.9-3.1,7.2-.3Z"/>
      <path class="cls-8" d="M62.78,567.3c-.6-1-1-2-1.4-3l-.4,2.6c-.9-1.5-1.6-3.2-2.1-4.9-1.3-4.2-.9-7.2,.7-11.1,2.1-5.3,2.8-11,1.9-16.7-.6-3.7-1.5-7.4-2.7-11.1l.1-.2,.4-.5c.7-1.2,.7-2.8,0-4-.3-.6-.8-1.1-1.3-1.5-2.1-4.9-3-10.2-2.5-15.5,.3-1.9,.8-3.7,1.6-5.4,.7-1.4,.5-3.2-.5-4.4,1-7.3,2.1-14.6,2-22,0-10.8-3.1-22.1-10.7-29.6,0-1-.4-1.9-1.1-2.5l-10.3-8.6c-1.6-1.5-4.1-1.4-5.6,.1-.5,.3-.9,.8-1.2,1.3-1.8,.4-3.2,1.7-3.6,3.5-.2,.9-.3,1.8-.5,2.6-2.4,7.2-2.7,14.9-2.4,22.5,.3,8.1,.6,16.6,3.5,24.3,1.8,4.8,10.6,4.7,9.8-1.3-1.4-11.5-2.8-23.1-2.1-34.7,.4,.4,.9,.8,1.4,1,2.4,2.4,6.3,1.4,7.9-1.1,7.5,8.6,7.5,22.2,6.3,33.4-.8,7.5-2.2,14.9-2.8,22.4-.3,4.5,.4,9,2,13.2l.9,3.6c0,.1-.1,.2-.1,.3-.2,1.7-.2,3.5,.2,5.2-.9,6.5,.2,13.2,3,19.2,0,.1,.1,.1,.1,.2-.2,.8-.5,1.6-.8,2.4-1.3,3.4-2.7,6.3-2.5,10,.3,7.1,3.7,13.6,8,19l.2,.2c2.6,.1,8.8-1.1,8.2-4.3-.3-1.3-2.7-3.2-3.6-4.6Z"/>
    </g>
    <path id="bear" class="cls-10" d="M722.28,432.7c-.1,.1-.3,.1-.4,.2-2.3,8.7-4.4,17.5-6.2,26.4-1.8,8.8-5.3,20.1-2.3,29,0,10.1-.5,20.2-1.5,30.2,0,8.2-.4,16.6-3.3,24-.4,2.1-.8,4.2-1.2,6.2-.3,1.4-.1,2.8,.6,4l-6.6,44.5v.3l-6.7,38.8c-1.1,5.3-2,10.6-2.8,15.9-.7,.9-1.2,2-1.4,3.2-.6,3-1.2,6-1.9,9-.1,.1-.3,.3-.4,.4,.1,4.1-1.1,7.9-2.6,11.9-.7,1.7-1.2,3.4-1.8,5.2,.5,1.2,.6,2.6,.2,3.8,.1-.1,.2-.1,.3-.2l-1.4,6.5c-.3,.6-.6,1.3-.8,1.9-1.7,1.4-2.9,3.3-3.5,5.5-4.8,17-9.7,34-15.8,50.5-3.5,8.6-7.5,18.7-13.8,25.9-1.5,.5-2.8,1.4-3.9,2.5l-.4,.4c-1.2,1.2-2.1,2.7-2.6,4.3-.9,1.4-1.7,2.9-2.4,4.4-.8,.9-1.6,2-2.2,3.1-3.9,7-8.1,13.9-12.6,20.6-2.2,3.3-4.6,6.6-6.9,9.9-.4,.5-3,3.9-3,3.9-1,1.2-1.9,2.4-2.9,3.6-3.8,4.7-7.8,9.2-12,13.6l-5,4.6c-3.5-1.3-6.9-3.1-10-5.2-1-1.2-2-2.4-3-3.3-.9-.9-1.9-1.6-3-2.3-.2-.3-.4-.6-.6-.8-5-7-9-14.7-15.6-20.3-1.3-1.2-2.9-2-4.6-2.3-1.8-2.8-3.7-5.5-5.7-8.2-6.1-7.8-13.6-14.5-22-19.8-.5-.6-1-1.1-1.5-1.6-2.5-2.4-5.7-3.7-9.1-3.9-5.2-2.2-10.6-3.7-16.2-4.5-3.1-.6-6.3,.1-8.9,1.9l.3-.8c.2-.7,.1-1.3-.2-1.9-.3-.4-.7-.8-1.2-1-.3-.1-.7-.2-1.1-.2h-.5c-.7,0-1.3,.3-1.8,.7-1.9,1.6-3.5,3.5-4.8,5.6-3.5-1.8-7.8-1.2-10.8,1.3-7.3,2.7-15,4.6-22.7,5.6-5.5,.7-12.8,1.1-17.2-2.9-2.9-2.8-7.2-3.6-11-2.1-3.5-.8-7.2,.1-9.8,2.6-.8,.8-1.4,1.7-1.9,2.7-1.6-1.4-3.4-2.5-5.4-3.2-2.4-1.3-5-1.9-7.7-1.7h-.3c-2.1-4.8-5.9-8.6-10.7-10.7-1.2-.5-2.5-.9-3.8-1.1-1.9-3.2-5.3-5.2-9-5.4-23.8-2-47.7,2.8-68.9,13.8-2.3-.2-4.5,.3-6.5,1.4-7.5,3.9-14.5,8.8-20.7,14.6-1.3,1.1-2.2,2.5-2.8,4.1-5.3,4.6-10.4,9.3-15.4,14.2-9.2,9.2-17.5,19.7-27.3,28.4-1.9-3.3-7.6-3.2-9,.5-.7-.5-1.4-1-2.1-1.5-2.1-6.2-4.5-12.3-7.1-18.3-1.5-3.4-6.8-3.1-8.5-.1-2-6.7-4-13.4-6-20.1-.8-2.7-3.6-4.2-6.3-3.4-.4,.1-.8,.3-1.2,.5l-3.1-11.2c-.8-3-4-4-6.6-3.3l-2.3-8.3c-1.2-4.4-8.8-5.1-9.6,0v.2l-5.2-11.5c-1.7-3.8-8.4-2.9-9.1,1.2-.2,1-.4,1.9-.6,2.8-.4-1.1-.9-2.2-1.3-3.4-.4-1.8-1-3.6-1.8-5.3-1.3-2.6-4-3-6.2-2l-2.5-5.5c-1.1-2.5-3.9-2.9-6.1-2-.6-1.9-1.1-3.8-1.6-5.8-.5-3.6-1.4-7.1-2.8-10.4-1.1-2.8-4.2-4.1-7-3-.4,.1-.7,.3-1,.5-3.3-13-7.3-28.9-7.9-31.2-.8-3.1-4.3-4.1-6.9-3.2-.3-.8-.7-1.6-1.1-2.3-.3-1.3-.7-2.7-.9-4.1-.3-1.5-1.3-2.6-2.7-3.1-6.5-18.3-10.4-37.9-13.1-57-1.5-10.6-3-21.1-3.8-31.8-.8-11.3-.4-22.6-1.6-33.8-.1-1.1-.6-2.1-1.2-2.9,.7-15.6,2.1-31.1,4.2-46.5-.8-1.1-1.2-2.6-.5-4.3,.8-2.1,1.3-4.2,1.7-6.3-.4-2.3-2.3-4.1-4.7-4.4h-.6c.5-2.6,1-5.2,1.4-7.9,1.1,2.1,2.2,4.1,3.3,6.2-.4-3.1-.5-6.2-.5-9.4,0-12.7-1.8-25.4-.5-38.1-.1-.4-.3-.8-.4-1.2-.3-1.4-1.3-2.6-2.7-3.2-1.1-3.7-2.1-7.5-3-11.3,.1-1-.1-2-.6-2.9h0c-1.2-5.4-2.3-10.9-3.1-16.4-2.7-2.4-7.9-8.9-11.8-9.1-.5,0-1.1,.1-1.6,.3-.1,2.9-.6,5.8-1.7,8.6-.5,1.4-1.5,2.5-2.6,3.2,.6,0,1.3-.1,2-.3,.2-.1,.3-.1,.5-.2,.7,7.9,1.4,15.8,2.2,23.7l.2,2.5c0,.3,.1,.6,.2,.9,.7,6.9,1.5,13.8,2.4,20.6,.1,.8,.4,1.6,.9,2.2-.6,.8-.9,1.7-1,2.7h0c-1.1,14.1-2.2,28.3-3.2,42.4-1.3,5.3-2.1,10.7-2.5,16.2-.8,3.8-1.6,7.5-2.4,11.3-.3,1.2-.2,2.5,.4,3.6l-2.2,13.1c.8,1.4,1.1,3.1,.2,5-1.9,4.2-3,8.7-3.6,13.3,.7,.4,1.4,.5,2.2,.3,.2,.2,.3,.3,.5,.5-1.1,5-2.3,9.9-3.8,14.8-.1,4.7-.3,9.4-.8,13.9-.2,1.5-.4,3-.6,4.5-.4,6-1,11.9-1.9,17.8-.1-.5-.2-1-.3-1.5-.1-.6-.3-1.2-.4-1.8-.2,.8-.3,1.7-.5,2.5-.1,.4-.2,.9-.3,1.3,.1,3-.7,5.9-2.1,8.8-.2,.8-.4,1.6-.6,2.4,.1,2.8,.2,5.6,.2,8.5,0,1.3-.5,2.3-1.2,3.1,.5,1.8,1.1,3.6,1.8,5.4l-2.6,16-2.5,15.5c-.6,3.5-2.2,8-1.1,11.6-1.9,8.5-2.4,17.3-1.5,26-1.9,6.8-3.9,13.5-5.9,20.3-3.7,11.4-7.5,22.9-10.8,34.4-4.6,15.4-5.8,31.6-3.6,47.5,0,12.4,.6,24.8,1.2,37.2-.1,9.8-.4,19.5-1,29.3-.2,2.2-.3,4.5-.4,6.7-.1,5,1.8,9.9,5.3,13.5,.8,6.7,1.8,13.3,2.9,19.9,.4,15.1,2.7,30,7,44.5,6,20.2,16.1,39.1,26.4,57.5,9.8,17.7,19.8,35.4,30.2,52.8,10.5,17.7,24.3,32.7,38.2,47.7,7.2,7.8,14.5,15.4,22.2,22.6,3.9,3.7,8,7.3,12.2,10.8,6.1,5.1,13.1,11.9,21.6,11.4,25,33.7,60.2,58.5,100.8,69.6,13.2,3.5,26.8,5.5,40.4,5.8,1.3,.7,2.7,1.3,4.2,1.6,12,2.9,24.2,5.4,36.4,7.6,13.7,2.5,29.6,6.8,42.1-1.7,1.5-1,2.9-2.2,4.1-3.5l4.2-.2c22.3,1.9,44.5,3.7,66-3.8,4.6-.6,9.2-1.6,13.6-3.1,4.8-1.6,8.9-4.7,11.6-8.9,13.2-7.9,25.2-17.5,36.5-28.1,16.2-14.9,30.6-31.6,43-49.8,13.8-20.3,24.3-43.5,29.2-67.7,.3-1.4,.4-2.7,.4-4.1,6.7-.2,13.6-3.4,16.3-9.7,.7-1.6,1.4-3.2,2-4.8h.1l.2-.7c1.3-3.4,2.3-7,3-10.6l.3-1.7,3.9-14.6c.2-.7,.3-1.5,.4-2.2l.9-2.4c.2-.6,2.2-5.6,1.9-4.9,2.2-5.3,4.5-10.5,6.7-15.8,3.8-9.3,7.1-18.8,10-28.4,.7-2.4,1.4-4.7,2.1-7.1,3.7-1.5,6.7-4.3,8.5-7.8,4.4-9.2,6.3-18.8,4.3-28.6l2.8-16.7c8.1-31.8,13.2-64.4,15-97.2,.1-2.7-.4-5.4-1.5-7.8,.8-9.4,1.4-18.8,2-28.2,.1-2.5-.3-4.9-1.2-7.2,.1-3,.2-6,.5-9,1.7-12.1,2.8-24.2,3.3-36.4,.1-1.6-.2-3.3-.9-4.8,0-1.2-.1-2.4-.2-3.6-.1-1.4-.4-2.9-1-4.2-.1-10.5,1.3-21,2.8-31.3l2-14.1c.3-.9,.5-1.9,.7-2.9,1.1-8.5,2.5-16.9,4.2-25.4h0c0-8,0-16,1.3-23.9-.6-2.4-.9-4.8-.8-7.2-.4,.7-.7,1.3-1.1,2,1.7-10.4,4.1-20.8,5.9-31,.1-.5,.1-1,.1-1.5,.8-.7,1.2-1.7,1.3-2.7l2.2-34.2c-.1-.3-.3-.6-.4-1-4.5-15.6,3.5-29.4,6.2-44.4-.4-.1-.8-.2-1.3-.3,.8-7.1,1.3-14.3,1.6-21.5,.2,.2,.4,.4,.7,.6-.3-10.6-1-21.2,1.3-31.7,1.3-8.9,2.8-17.7,4.7-26.5,.2-.8,.4-1.5,.6-2.3-3.2-3.7-6-7.7-9.5-8.9Zm-237.9,451.6c-.7,1-1.4,2-2,3-.2,.3-.4,.6-.6,.9l-.4,.6c-.2,.4-.5,.8-.7,1.1-10,.2-19.8,4.5-27.3,11-4.5-1.4-9.3-.9-13.4,1.2l-.1-.1c-5-5-11.8-7.7-18.8-7.5-1.5,0-3,.2-4.5,.6-1.6-1-3.5-1.5-5.4-1.4l-53,5.2c-2.8,.2-5.6,1.3-7.7,3.2-1.2-.5-2.4-.9-3.6-1.2-3.9-2-7.7-4.2-11.6-6.3-6.6-3.8-15.2-7.4-19.8-13.8-3.1-4.4-8.5-6.7-13.5-4.7-.1-.4-.2-.8-.4-1.2,2.7-.9,5-2.5,6.8-4.6,2.6-3.2,5.1-6.5,7.6-9.8,.9-1,1.8-2.1,2.5-3.2,.3-.5,.7-1,1-1.6l.8-1.1c.1,.1,.3,.2,.4,.4,5.6,4.3,13,5.3,19.6,2.8,.9,1.7,2,3.3,3.4,4.6,6.1,5.6,16.9,8.4,24.2,3.1,1.8-1.3,3.5-2.5,5.3-3.8,3.5,2.4,7.5,3.8,11.8,4.2l20.7,2.3c4.5,.5,9-1.3,12.5-4.3,1.8,3.6,5.4,6,9.4,6.2,9.6,1,19.2,2.3,28.8,4,9.4,2.8,18.7,6.6,27.9,10.2h.1Z"/>
    <path id="bear-mouth-O" class="cls-11" d="M723.28,433c-.1,.1-.3,.1-.4,.2-2.3,8.7-4.4,17.5-6.2,26.4-1.8,8.8-5.3,20.1-2.3,29,0,10.1-.5,20.2-1.5,30.2,0,8.2-.4,16.6-3.3,24-.4,2.1-.8,4.2-1.2,6.2-.3,1.4-.1,2.8,.6,4l-6.6,44.5v.3l-6.7,38.8c-1.1,5.3-2,10.6-2.8,15.9-.7,.9-1.2,2-1.4,3.2-.6,3-1.2,6-1.9,9-.1,.1-.3,.3-.4,.4,.1,4.1-1.1,7.9-2.6,11.9-.7,1.7-1.2,3.4-1.8,5.2,.5,1.2,.6,2.6,.2,3.8,.1-.1,.2-.1,.3-.2l-1.4,6.5c-.3,.6-.6,1.3-.8,1.9-1.7,1.4-2.9,3.3-3.5,5.5-4.8,17-9.7,34-15.8,50.5-3.5,8.6-7.5,18.7-13.8,25.9-1.5,.5-2.8,1.4-3.9,2.5l-.4,.4c-1.2,1.2-2.1,2.7-2.6,4.3-.9,1.4-1.7,2.9-2.4,4.4-.8,.9-1.6,2-2.2,3.1-3.9,7-8.1,13.9-12.6,20.6-2.2,3.3-4.6,6.6-6.9,9.9-.4,.5-3,3.9-3,3.9-1,1.2-1.9,2.4-2.9,3.6-3.8,4.7-7.8,9.2-12,13.6l-5,4.6c-3.5-1.3-6.9-3.1-10-5.2-1-1.2-2-2.4-3-3.3-.9-.9-1.9-1.6-3-2.3-.2-.3-.4-.6-.6-.8-5-7-9-14.7-15.6-20.3-1.3-1.2-2.9-2-4.6-2.3-1.8-2.8-3.7-5.5-5.7-8.2-6.1-7.8-13.6-14.5-22-19.8-.5-.6-1-1.1-1.5-1.6-2.5-2.4-5.7-3.7-9.1-3.9-5.2-2.2-10.6-3.7-16.2-4.5-3.1-.6-6.3,.1-8.9,1.9l.3-.8c.2-.7,.1-1.3-.2-1.9-.3-.4-.7-.8-1.2-1-.3-.1-.7-.2-1.1-.2h-.5c-.7,0-1.3,.3-1.8,.7-1.9,1.6-3.5,3.5-4.8,5.6-3.5-1.8-7.8-1.2-10.8,1.3-7.3,2.7-15,4.6-22.7,5.6-5.5,.7-12.8,1.1-17.2-2.9-2.9-2.8-7.2-3.6-11-2.1-3.5-.8-7.2,.1-9.8,2.6-.8,.8-1.4,1.7-1.9,2.7-1.6-1.4-3.4-2.5-5.4-3.2-2.4-1.3-5-1.9-7.7-1.7h-.3c-2.1-4.8-5.9-8.6-10.7-10.7-1.2-.5-2.5-.9-3.8-1.1-1.9-3.2-5.3-5.2-9-5.4-23.8-2-47.7,2.8-68.9,13.8-2.3-.2-4.5,.3-6.5,1.4-7.5,3.9-14.5,8.8-20.7,14.6-1.3,1.1-2.2,2.5-2.8,4.1-5.3,4.6-10.4,9.3-15.4,14.2-9.2,9.2-17.5,19.7-27.3,28.4-1.9-3.3-7.6-3.2-9,.5-.7-.5-1.4-1-2.1-1.5-2.1-6.2-4.5-12.3-7.1-18.3-1.5-3.4-6.8-3.1-8.5-.1-2-6.7-4-13.4-6-20.1-.8-2.7-3.6-4.2-6.3-3.4-.4,.1-.8,.3-1.2,.5l-3.1-11.2c-.8-3-4-4-6.6-3.3l-2.3-8.3c-1.2-4.4-8.8-5.1-9.6,0v.2l-5.2-11.5c-1.7-3.8-8.4-2.9-9.1,1.2-.2,1-.4,1.9-.6,2.8-.4-1.1-.9-2.2-1.3-3.4-.4-1.8-1-3.6-1.8-5.3-1.3-2.6-4-3-6.2-2l-2.5-5.5c-1.1-2.5-3.9-2.9-6.1-2-.6-1.9-1.1-3.8-1.6-5.8-.5-3.6-1.4-7.1-2.8-10.4-1.1-2.8-4.2-4.1-7-3-.4,.1-.7,.3-1,.5-3.3-13-7.3-28.9-7.9-31.2-.8-3.1-4.3-4.1-6.9-3.2-.3-.8-.7-1.6-1.1-2.3-.3-1.3-.7-2.7-.9-4.1-.3-1.5-1.3-2.6-2.7-3.1-6.5-18.3-10.4-37.9-13.1-57-1.5-10.6-3-21.1-3.8-31.8-.8-11.3-.4-22.6-1.6-33.8-.1-1.1-.6-2.1-1.2-2.9,.7-15.6,2.1-31.1,4.2-46.5-.8-1.1-1.2-2.6-.5-4.3,.8-2.1,1.3-4.2,1.7-6.3-.4-2.3-2.3-4.1-4.7-4.4h-.6c.5-2.6,1-5.2,1.4-7.9,1.1,2.1,2.2,4.1,3.3,6.2-.4-3.1-.5-6.2-.5-9.4,0-12.7-1.8-25.4-.5-38.1-.1-.4-.3-.8-.4-1.2-.3-1.4-1.3-2.6-2.7-3.2-1.1-3.7-2.1-7.5-3-11.3,.1-1-.1-2-.6-2.9h0c-1.2-5.4-2.3-10.9-3.1-16.4-2.7-2.4-7.9-8.9-11.8-9.1-.5,0-1.1,.1-1.6,.3-.1,2.9-.6,5.8-1.7,8.6-.5,1.4-1.5,2.5-2.6,3.2,.6,0,1.3-.1,2-.3,.2-.1,.3-.1,.5-.2,.7,7.9,1.4,15.8,2.2,23.7l.2,2.5c0,.3,.1,.6,.2,.9,.7,6.9,1.5,13.8,2.4,20.6,.1,.8,.4,1.6,.9,2.2-.6,.8-.9,1.7-1,2.7h0c-1.1,14.1-2.2,28.3-3.2,42.4-1.3,5.3-2.1,10.7-2.5,16.2-.8,3.8-1.6,7.5-2.4,11.3-.3,1.2-.2,2.5,.4,3.6l-2.2,13.1c.8,1.4,1.1,3.1,.2,5-1.9,4.2-3,8.7-3.6,13.3,.7,.4,1.4,.5,2.2,.3,.2,.2,.3,.3,.5,.5-1.1,5-2.3,9.9-3.8,14.8-.1,4.7-.3,9.4-.8,13.9-.2,1.5-.4,3-.6,4.5-.4,6-1,11.9-1.9,17.8-.1-.5-.2-1-.3-1.5-.1-.6-.3-1.2-.4-1.8-.2,.8-.3,1.7-.5,2.5-.1,.4-.2,.9-.3,1.3,.1,3-.7,5.9-2.1,8.8-.2,.8-.4,1.6-.6,2.4,.1,2.8,.2,5.6,.2,8.5,0,1.3-.5,2.3-1.2,3.1,.5,1.8,1.1,3.6,1.8,5.4l-2.6,16-2.9,15.3c-.6,3.5-2.2,8-1.1,11.6-1.9,8.5-2.4,17.3-1.5,26-1.9,6.8-3.9,13.5-5.9,20.3-3.7,11.4-7.5,22.9-10.8,34.4-4.6,15.4-5.8,31.6-3.6,47.5,0,12.4,.6,24.8,1.2,37.2-.1,9.8-.4,19.5-1,29.3-.2,2.2-.3,4.5-.4,6.7-.1,5,1.8,9.9,5.3,13.5,.8,6.6,1.8,13.3,2.9,19.9,.4,15.1,2.7,30,7,44.5,6,20.2,16.1,39.1,26.4,57.5,9.8,17.7,19.8,35.4,30.2,52.8,10.5,17.7,24.3,32.7,38.2,47.7,7.2,7.8,14.5,15.4,22.2,22.6,3.9,3.7,8,7.3,12.2,10.8,6.1,5.1,13.1,11.9,21.6,11.4,25,33.7,60.2,58.5,100.8,69.6,13.2,3.5,26.8,5.5,40.4,5.8,1.3,.7,2.7,1.3,4.2,1.6,12,2.9,24.2,5.4,36.4,7.6,13.7,2.5,29.6,6.8,42.1-1.7,1.5-1,2.9-2.2,4.1-3.5l4.2-.2c22.3,1.9,44.5,3.7,66-3.8,4.6-.6,9.2-1.6,13.6-3.1,4.8-1.6,8.9-4.7,11.6-8.9,13.2-7.9,25.2-17.5,36.5-28.1,16.2-14.9,30.6-31.6,43-49.8,13.8-20.3,24.3-43.5,29.2-67.7,.3-1.4,.4-2.7,.4-4.1,6.7-.2,13.6-3.4,16.3-9.7,.7-1.6,1.4-3.2,2-4.8h.1l.2-.7c1.3-3.4,2.3-7,3-10.6l.3-1.6,3.9-14.6c.2-.7,.3-1.5,.4-2.2l.9-2.4c.2-.6,2.2-5.6,1.9-4.9,2.2-5.3,4.5-10.5,6.7-15.8,3.8-9.3,7.1-18.8,10-28.4,.7-2.4,1.4-4.7,2.1-7.1,3.7-1.5,6.7-4.3,8.5-7.9,4.4-9.2,6.3-18.8,4.3-28.6l2.8-16.7c8.1-31.8,13.2-64.4,15-97.2,.1-2.7-.4-5.4-1.5-7.8,.8-9.4,1.4-18.8,2-28.2,.1-2.5-.3-4.9-1.2-7.2,.1-3,.2-6,.5-9,1.7-12.1,2.8-24.2,3.3-36.4,.1-1.6-.2-3.3-.9-4.8,0-1.2-.1-2.4-.2-3.6-.1-1.4-.4-2.9-1-4.2-.1-10.5,1.3-21,2.8-31.3l2-14.1c.3-.9,.5-1.9,.7-2.9,1.1-8.5,2.5-16.9,4.2-25.4h0c0-8,0-16,1.3-23.9-.6-2.4-.9-4.8-.8-7.2-.4,.7-.7,1.3-1.1,2,1.7-10.4,4.1-20.8,5.9-31,.1-.5,.1-1,.1-1.5,.8-.7,1.2-1.7,1.3-2.7l2.2-34.2c-.1-.3-.3-.6-.4-1-4.5-15.6,3.5-29.4,6.2-44.4-.4-.1-.8-.2-1.3-.3,.8-7.1,1.3-14.3,1.6-21.5,.2,.2,.4,.4,.7,.6-.3-10.6-1-21.2,1.3-31.7,1.3-8.9,2.8-17.7,4.7-26.5,.2-.8,.4-1.5,.6-2.3-2.8-3.4-5.5-7.5-9.1-8.7Zm-293.9,430.2c-1.2,0-2.4-.2-3.5-.5,1.2,.1,2.4,.3,3.5,.5Zm48.2,20.4c-1.6,2.3-2.4,4.8-2.7,7.5h0v.3c-.1,.7,0,1.3,.2,1.8,0,.2,0,.4-.1,.5-1.1,5.7-3.7,10.3-7.4,14.1-.1,.2-.2,.4-.4,.7-5.3,7.7-15.1,13.1-23.3,17.2-10.9,5.5-22.4,7-34.5,7.1-12.5,.1-23.7-2.9-34.7-8.8-11-5.9-21-13.4-32.2-18.9-2-1-2.7-2.6-2.6-4.2-2.9-1.4-5.8-2.8-8.7-4.3-2.2-4.8-4-9.8-3.8-14.7,.1-3.4,1-6.5,1.2-9.6,.6-.6,1.3-1.1,1.9-1.7,.5-.4,.8-.9,1-1.5,.8-.5,1.6-1,2.4-1.4,.8-.5,1.4-1.1,1.7-1.8,3.2-.5,6.4-.7,9.7-.7,.3,0,.6,0,.9-.1,.5,.5,1.1,.8,1.9,1,8.7,2,17.2,1.1,25.4-2.5,.4-.2,.8-.4,1-.7,4.6,3.3,10.6,4.1,16.3,3.5h.3c8.3,2.8,16.7,4.4,24.6-1.1,2.9,1.7,4.8,4.7,8.3,5.6,4.2,1,9-.4,13.3-.1,9.8,.5,18.6,6.8,28.5,5h0c0,.5-.1,1-.2,1.4,4.5,1.6,8.9,3.3,13.3,5-.3,.3-.8,.8-1.3,1.4Z"/>
    <path class="cls-2" d="M793.48,255.5c-11.2-18-25.5-33.3-41.1-47.7-.5-.4-.9-.9-1.4-1.3-.1-.3-.3-.6-.4-.8-.8-1.5-2.1-2.6-3.8-3.1-7.3-6.8-14.5-13.7-21.5-20.8-.1-.2-.2-.4-.3-.6-26.8-54-69.6-99.5-120.9-131C555.98,20.7,500.38,4.3,443.98,1.3c-36.8-3.5-73.9,.1-109.3,10.7-.4,.1-.8,.3-1.1,.5-40.6,10.2-79.9,26.4-116.8,45.7-28.3,14.8-55.2,32.7-78.2,54.9-17.5,17-32.3,36.6-44.1,58-26.1,40.7-40.8,88.9-43.6,137.2-.2,.5-.3,1-.3,1.5v3.1c-.7,16.8,.1,33.6,2.3,50.3v6c.1,7.8,.2,15.5,.5,23.3,0,2.6,1.5,4.9,3.8,6,0,1.8,.1,3.5,.2,5.2,5.4,2.9,11,5.1,16.8,5.5,1.8,.1,3.6,0,5.4-.2,2.8-2.1,5.6-4.1,8.5-6.2,.3-5.6,1-11.2,2-16.7,6.4-20.3,14.9-40,25.3-58.6,1.1-1.7,.6-4-1.1-5.1-.3-.2-.7-.4-1-.5l.7-.8c.2-.2,.4-.5,.5-.7h.1c25.2,4.9,45.9-13.7,67.1-24.1,25.5-12.6,53.3-20.1,79.8-30.4,53.2-20.7,104.1-46.7,157-68.2,25.5-10.3,52-19.1,79.5-21.6l.6-.1c.2,1.4,1.3,2.6,2.8,2.7l28.8,3.9c36.1,6.9,70.5,21,101,41.6,.3,.2,.5,.3,.8,.4,9.8,8.7,19.3,17.7,28.4,27.2,11,14.8,20.6,30.7,28.7,47.3,7.5,19.1,13.5,39,19.2,58.6,3.2,11,6.4,22,8.6,33.1,1.6,12.2,2.4,24.6,2.5,36.9-1.8,2.4-2,5.6-.5,8.2v.2c-.1,.7,0,1.4,.2,2.1,.8-.6,1.8-.9,3-.8,3.5,.2,6.2-.2,9.1-1,2.5-1.2,5.1-2,7.8-2.5v-.8c23.3-5.2,44.6-17.2,61.2-34.4,4.7-4.1,8.7-8.9,11.9-14.3,2.5-3.5,4.7-7.1,6.8-10.8,2.2,.3,4.2-1.2,4.5-3.4v-.5c1.7-40.2-8.6-80-29.9-114.2ZM82.18,384.4c-1.5,4.7-2.8,9.4-4,14.1,0-.2,.1-.4,0-.7h0c0-2.1-1.7-3.9-3.8-3.9h-.2c-.7-2.7-.9-5.6-.6-8.4,4.2-11.7,8.3-23.4,12.5-35.1,1.6,2.1,5,2.8,6.4-.3,1.6-3.7,3.5-7.2,5.6-10.6l.3-.4c-7.9,14.3-13.3,29.5-16.2,45.3Zm4.6-41.2c-.3-.3-.6-.6-1-.8,.4-.9,.8-1.8,1.2-2.7l.1-.1c-.2,.8-.3,1.6-.4,2.5,0,.4,0,.7,.1,1.1Zm30.6-31.8c-.6,.3-1.2,.8-1.5,1.4-1.4,0-2.7,.8-3.4,2-1.4-.5-3-.2-4.1,.8-1.8,1.6-3.6,3.2-5.2,4.9,0-1.4-.7-2.7-1.7-3.6-6.4-4.9-8.4-13.4-6-20.8,1.6-4.9-6.1-7-7.7-2.1-2.7,8.3-1.1,17.3,4.2,24.2-4.2,3-7.1,8.5-9.4,12.8-2,3.8-3.8,7.6-5.5,11.5-.6,.5-1,1.1-1.3,1.8-3.2,8.1-6.2,16.3-8.8,24.6-.3-51.7,4.9-104.1,22.6-152.9h0c9.9-27.5,24.2-53.7,43.2-76.1,8.2-9.6,17-18.5,26.6-26.7,19.6-14.9,41-27.5,62.4-39.6,14-7.9,28.1-15.4,42.6-22.4,8.3-3.5,16.6-6.8,25-9.9,32.1-12,65.5-21.2,99.7-24.7,25.4-2.6,50.9-2.4,76.2,.6-.2,1.2,.2,2.4,1.1,3.2,11.8,12.3,21.9,26.2,30,41.2,4.1,7.6,7.6,15.5,10.5,23.6,.3,.8,.6,1.7,.9,2.6,.7,4.5,1.4,9,2.3,13.5-102.5,8.2-198.2,50.9-289.7,95.6-27,13.2-55.9,25.1-79.1,44.6-4,3.3,1.7,8.9,5.7,5.7,20.4-17,45.6-27.7,69.3-39.3,23.9-11.7,47.9-23.3,72.2-34.2,48.7-21.9,98.8-41.3,151-53.3,23.8-5.5,47.9-9.2,72.2-11.2,.2,1.2,.5,2.4,.8,3.7,3.4-.8,6.9-1.4,10.3-1.9,0-1.5-.1-3-.2-4.5-.3-3-.8-6.1-1.6-9-2-5-4.1-10-5.8-15.1-1.1-2.3-2.2-4.7-3.3-7h-.1c-.5-1.3-1.1-2.6-1.7-3.9l-.6-1.2q0-.1-.1-.2c-2.1-4.7-4.3-9.3-6.8-13.8-7.4-13.6-16.5-26.2-26.9-37.6,9.1,1.3,18.1,3,27,5.1,.1,.2,.3,.3,.4,.5,20.1,19.6,34.4,44.5,41,71.8-.3,.2-.6,.5-.8,.7,.2,.3,.4,.7,.5,1.1,.1,.2,.1,.4,.2,.6,.4,.5,.7,1,.9,1.6,.4,1.4,.8,2.8,.9,4.3h.1c.1,.6,.2,1.2,.3,1.9,.1,1.1,.2,2.2,.3,2.9v.1c3.4-.1,6.8-.2,10.2-.2-.6-2-1.4-3.9-2.3-5.8-.2-.5-.5-.9-.9-1.2-.1-.2-.1-.4-.2-.6-5.1-26.2-16.7-50.7-33.8-71.2,3.9,1.9,7.8,3.9,11.7,6,.9-.6,2-.8,3-.5,8.6,1.9,17,4.6,25.2,7.9l-5.7-3.4c8.4,3.5,16.7,7.3,24.8,11.6,23,12,44.4,26.8,63.8,44-1.7-1.3-3.5-2.5-5.2-3.8,1.4,1.4,2.7,2.9,3.9,4.3,5.7,5.1,10.8,10.6,15.5,16.7,1.1,1.4,2.2,2.9,3.3,4.4,0,0,1.1,1.2,1.5,1.7,1.8,2,3.7,4,5.5,6.1,1.5,1.7,3.6,3.7,5.3,5.9,3.2,3.1,6,6.7,8.1,10.6,1.9,1.9,3.4,4.2,4.6,6.6l4.7,5.4c4.6,5.3,9.2,10.7,13.8,16,2.1,3.6,4.2,7.3,6.1,11-2.2-1.1-4.3-2.1-6.6-3.1-8.9-5.4-18-10.4-27.3-14.9-17.2-9.4-35.7-16.5-54.8-21.1-7.8-1.8-15.6-3.2-23.5-4.2-2.4-.4-4.8-.8-7.1-1.2-3.3-.7-6.7-1.4-10-2-.9-.2-1.8-.1-2.5,.3-3.5-.4-7-.7-10.4-1-.7-1.2-2-1.8-3.3-1.6l-6,.3c.3-.4,.5-.8,.6-1.3,.3-1.4,.4-2.8,.6-4.2-3,0-6,.1-9,.2l.7,3.9c.1,.6,.4,1.2,.9,1.7l-1.9,.1c-8.3-.2-16.7,0-25,.6-.1-.4-.3-.8-.6-1.2,.3-.8,.4-1.7,.2-2.5-.1-.3-.2-.7-.2-1-2.7,.2-5.3,.5-8,.8,.1,.5,.2,1.1,.4,1.6-29.3,5.7-57.9,14.2-85.5,25.4-.1,0-.2,.1-.3,.2-44.3,16.6-87,37.5-128.8,59.7-13.7,7.2-27.3,14.6-40.8,22.1-40.4,19.6-80.4,39.9-120.1,61-8.4,3.7-16.1,7.8-23.7,12Zm678.3,67.2c-.2,.5-.2,1.1-.2,1.6-5,5.7-11.7,10.4-17.7,14.6-11,7.7-22.6,14.6-34.6,20.6l-4.1,1c-.2-.5-.5-1-.8-1.5-.1-.8-.2-1.7-.3-2.5-2.9-43.8-12.6-87.2-32.8-126.4-22.6-43.8-58.1-81-103.7-101-48.1-21.1-101.2-22.5-151.1-7.3-27.1,8.3-53,20.1-78.8,31.8-26.8,12.1-53.4,24.3-80.4,35.8-15.5,6.6-31.2,12.9-47,18.7-15.1,5.6-30.4,10.4-45.4,16.2-14.1,5.6-27.7,12.4-40.8,20.2-8,4.7-16.5,9.6-25.6,11.8,36.8-19.7,73.8-38.8,111.3-57.2,1,.3,2,.1,2.9-.4l17.6-9.6c12.1-5.9,24.3-11.7,36.4-17.5,30-14.1,60-28.1,90.5-41.1,30-12.9,60.6-24.6,92.3-32.7,26.8-6.8,54.6-10.8,82.2-10.5,50,5.3,97.8,23.4,138.8,52.6,1,.7,1.9,1.4,2.9,2.1l.3,.2c5,3.7,9.8,7.5,14.6,11.5,1.2,1,2.4,2,3.6,3,0,0,.1,0,.1,.1,8.6,7.4,16.8,15.3,24.6,23.6,9.5,11.6,18.2,23.8,26.2,36.5,3.6,5.7,7,11.6,10.3,17.5,2.9,5.9,5.7,11.8,8.5,17.7,.1,.2,.2,.3,.3,.4,3.1,12.9,5.1,26,5.9,39.3-.9,10.4-2.8,20.8-6,30.9Z"/>
    <g id="nose">
      <path class="cls-7" d="M412.48,767.5c-.1-.1-.2-.3-.2-.5-.2-.7-.7-1.3-1.4-1.6,.2-.3,.2-.7,0-1-3.5-5.9-9.4-9.6-15.4-12.5-1.2-.6-2.4-1.2-3.7-1.8-1-.5-2-1.1-3.1-1.5-3.3-1.5-6.8-2.7-10.5-1.7l-.2,.1h-.4c-.4,.1-.7,.3-1,.5-.5,.2-1,.4-1.5,.6-.5,.3-.6,.9-.3,1.4,.1,.2,.4,.4,.6,.4-.1,1.3,.8,2.4,2.1,2.6,.5,.1,1.1,0,1.6-.2l4.6,1.7c2.2,1.2,4.5,2.4,6.8,3.5,2.2,3.8,6.7,4,10.2,5.6,.2,.1,.4,.2,.6,.3,.5,.5,1.1,1.1,1.6,1.7,1.1,1.5,2.3,2.8,3.7,4.1,.9,1,2,1.9,3.2,2.5,1.2,.7,2.7,.3,3.4-.9,.7-1.2,.5-2.6-.7-3.3Z"/>
      <path class="cls-7" d="M522.08,738.3c-1.5,6.3-5.2,11.8-10.3,15.6-2.8,1.9-5.9,3.5-9.1,4.7-3.2,1.4-7.8,3.6-8,7.6-.2,3.2,4.8,3.2,5,0,0,.4,.2-.1,.4-.3,.3-.3,.6-.5,.9-.7,.7-.5,1.3-.9,2-1.2,1.5-.8,3.2-1.4,4.8-2.1,3.2-1.3,6.1-3.1,8.7-5.4,5.1-4.4,8.8-10.3,10.4-16.8,.8-3.2-4-4.5-4.8-1.4Z"/>
      <path class="cls-7" d="M419.28,617c-.4-2.4-1-5.2-2.2-7.4-2.7,4.1-6,7.9-9.7,11.2,.1,.2,.1,.3,.2,.5-6.6,18.6-18.9,34.5-34.4,46.5,.7,1.6,.4,3.5-1.4,5-5.1,4-7.8,9.6-11.5,14.8-.2,.3-.4,.5-.6,.8,1-.5,2-1,3-1.6-1.4,1.7-2.9,3.3-4.3,5-1.3,1.6-1.3,3.9,.1,5.5-.7,.2-1.4,.6-1.9,1.2-5.8,6.3-9.1,14.5-9.5,23-.2,4.1,.3,8.2,1.5,12.1,.4,1.3,.9,2.6,1.4,3.8,1,6.8,3.3,14.6,9.3,12.6,3.3-1.2,4.3-5,2.9-8-1.2-2.6-2.8-4.7-4.2-7-1.5-9.6,.4-19.5,5.4-27.8,.9-1.4,.8-3.2-.4-4.4,.4-1.4,.1-2.9-.9-3.9,.7-.2,1.4-.6,1.8-1.2,7.5-9,15.4-17.7,23.7-26,1-.9,1.4-2.3,1-3.6,12.2-11.5,21.7-25.6,27.8-41.2,1.2-3.1,2.2-6.2,3.1-9.4q-.2-.4-.2-.5Z"/>
      <path class="cls-7" d="M434.58,564c-.1-.4-.2-.8-.5-1.2-1.2,.2-2.5,.3-3.7,.4-2.3,.2-4.6,0-5.9,1.8h.6c-1.4,1.8-2.4,3.8-3.1,6-.1,.3-.1,.5-.1,.8,0,0,0,.1,.1,.1,.2,.6,.4,1.2,.4,1.8,.5,1,1.4,1.8,2.6,2.1,1.4,.4,3-.1,3.9-1.2,2,.5,4.1-.7,4.7-2.6h.5c5,.1,5.2-7.4,.5-8Z"/>
    </g>
    <g id="eyebrows">
      <path class="cls-1" d="M422.78,480.9c-1.8-3.4-4.1-6.5-7.1-7.9s-5.1-.9-6.7,.5c-1.4-3.9-3.5-7.5-6.1-10.7-1.5-1.6-3.9-1.9-5.8-.9-.5-.8-.9-1.6-1.4-2.4-1-1.6-2.8-2.5-4.7-2.3-2-1.8-3.5-4.1-4.5-6.5-1.4-3.3-5.2-3.1-7.4-1.1-6.5-4.6-12.7-9.5-18.6-14.9-1.7-1.9-4.6-2-6.4-.3-.1,.1-.2,.2-.3,.3v-.3c-.2-1.1-.6-2.3-1.2-3.3-.8-1.9-2-3.5-3.6-4.8-2.8-2.2-8.3-1.4-8.5,2.8-6.2-3.1-12.1-6.8-17.5-11.1-2.2-1.9-5.5-1.6-7.4,.6-.2,.2-.4,.5-.5,.7-1.6-.4-3.2-.1-4.5,.8-.3-.6-.5-1.1-.8-1.7-.8-1.3-1.7-2.5-2.7-3.6-1-1-2.4-1.5-3.8-1.4-.8-1.1-1.9-1.8-3.2-2.1-1.1-4.7-8.4-4.7-9.7,0-.5,.1-.9,.3-1.3,.6-1.5,.9-3,1.6-4.6,2.1,.4-2.1-.2-4.2-1.6-5.8-3.1-3.3-8.5-1.8-12.3-1-2.1,.4-4,1-5.7-.4s-2-3.3-4.2-4.3c-2.1-.9-4.5-1-6.7-.4-.2-3.4-4.1-6.2-7.5-4.2l-11.4,6.7c-.9-2.5-3.8-3.8-6.3-2.8-.7,.2-1.2,.6-1.7,1.1-1.9,1.8-3.9,3.5-5.9,5.2-1.5-.8-3.3-.8-4.7,0-18.3,8.8-35.8,19.4-52.1,31.5-1.6,1.1-2.4,3.1-2.1,5-2.2,.9-3.6,3.2-3.4,5.6-3-.2-6-.4-9-.6-5.8-.5-6.6,8.3-1.3,9.8,4.1,1.2,8.2,2.4,12.4,3.7,1.1,1,2.5,1.5,4,1.3l.2,.1c2.6,2.5,6.4,3.4,9.9,2.3,2.6-.7,4.1-3.4,3.4-6,0-.1-.1-.3-.1-.4l3-.1c.4,0,.9-.1,1.3-.1,2-.2,3.5-1.9,3.5-3.9,.7-.5,1.4-1.1,2-1.8l1.9-.3c1.6,1.3,3.7,1.5,5.5,.5l7.6-4.1c.7,2.4,3.2,3.8,5.6,3.1,.5-.1,.9-.3,1.3-.6,1.6-.9,3.1-1.9,4.6-2.8,2.3,0,4.7,0,7-.2,2.4,.3,4.9,0,7.2-1h.1l9.4,2.5c2.7,.7,5.5-1,6.1-3.7,.1-.4,.1-.8,.1-1.2,1.1,1.5,3,2.1,4.8,1.4,1.6,1.6,4,2,6,.9,1.5-.8,3.1-1.7,4.6-2.6,.5,.6,1.1,1.1,1.8,1.5l10,4.9c1.9,1,4.1,.7,5.7-.7,4.5,.4,9.1,.2,13.5-.6,.2,0,.3-.1,.5-.1,3.9,2.1,8,3.6,12.2,4.5,2.3,.5,4.6-.6,5.6-2.7l1.1,.7c2.3,3.2,5,6.1,8,8.7,1.4,1.1,3.2,1.4,4.9,1,1.4,1.9,3.5,3.3,5.8,3.8,2,.4,4.1,.2,5.8-.8,.5,.9,1.1,1.8,1.8,2.7,1.5,1.8,3.8,2.6,6.1,2.1,2.4,2.2,5.8,2.8,8.8,1.5,1.2,1.4,2.9,2.2,4.7,2.4,1.3,.1,2.6-.1,3.8-.8h.4c.3,.3,.5,.6,.8,.9,3.3,3.2,6.5,3,9.9,1.5,1.9,1,3.7,3.1,5.1,4.2l5.2,4.3,11.2,9.2c3.3,2.7,8.5,1.1,8.5-3.5l.1-4.6c.5,.1,.9,.1,1.4,.1l.5,1.3c1.8,4.6,7.9,4.9,9.6,0,.2-.5,.3-1.1,.5-1.7,.4,.6,.7,1.1,.8,1.2,1.1,2,2,4.1,2.7,6.3,.8,2.7,3.6,4.2,6.3,3.4,.8-.2,1.5-.6,2.1-1.2,2.4-2.3,4.1-5.3,4.6-8.6,1-5.1-3.9-7.8-7-6.4Z"/>
      <path id="right-eyebrow" class="cls-1" d="M701.58,483.9c-1.8-4.2-3.8-8.3-5.9-12.4-2.1-4.1-3.9-8.2-7.8-10.8-3.9-2.4-7.5-5.1-11-8.1-3.5-3.1-7-6.1-11.4-8-3.6-1.7-7.6-2.2-11.6-1.6-4.6,.9-7.1,3.7-10.5,6.5-4,3.2-6.7,.3-10.4-1.4s-7.7-2-11.2,.1c-3.2,1.9-5,5.5-8.2,7.2-4,2.2-9.2,1.8-13.7,2.1-9.7,.8-18.3,5.2-28,6.1-4.6,.5-9.1,1.7-13.2,3.6-4.5,1.9-8.9,2-13.5,3.1-2.1,.5-4.1,1.4-5.8,2.7-.4,.3-.8,.6-1.1,1-.9,.3-1.8,.6-2.7,1-2-.5-3.7-.8-5.8,.2-1.8,.9-2.5,2.7-4,3.9-3.3,2.6-7.8,2.5-11,5.7-.9,.9-1.7,1.9-2.4,3-.9,.3-1.8,.7-2.6,1.1-1.1,.2-2.2,.8-3,1.6-1.7,1-3.2,2.2-4.7,3.6-.3-.1-.7-.1-1-.1-1-3-5.2-4.5-7.1-1-.2,.4-.5,.8-.7,1.2-.7,.7-1.3,1.4-1.9,2.1l-.7,.5c-.5,.3-1,.6-1.5,.8-1.9,.8-3.6,2.9-2.9,5-1.1,2-2,4-2.7,6.2-1.3,3.8,4,6.8,6.7,3.9,.4-.5,.8-.9,1.2-1.4,1.3,1.8,3.8,2.2,5.6,.9,.4-.3,.8-.7,1.1-1.2l1.3-2.2c.9,.1,1.8,0,2.6-.4-.2,.8-.2,1.7,0,2.5-.8,2-1.4,4.1-2,6.3-1.7,6,7.1,8.6,9.4,3.4,1.4,1.1,3.2,1.5,4.9,1.1,.5,2.9,3.3,4.9,6.2,4.4,.4-.1,.9-.2,1.3-.4,11.7-5.5,24.3-8.3,37.1-10.3,1.9,1.4,4.6,1.3,6.3-.4,.3-.2,.6-.5,.8-.7l6.5-.9c2.1-.1,3.8-2,3.6-4.2v-.3c4.7-1.5,9.5-2.6,14.4-3.3,10.1-1.7,20.4-2.6,30.7-2.6,19.3-.1,38.6,2.6,57.1,8.1,.9,1.2,2.3,1.9,3.8,1.9,4.4,.2,8,3.3,12.5,1.6,.6-.2,1.2-.5,1.8-.9,0,.3,.1,.6,.2,.9-.3,.3-.5,.6-.6,1-.3,.5-.4,1-.3,1.5l.2,1.1h0c.5,.2,1,.5,1.4,.9q.1,.1,.2,.2c.9,.2,1.8,.5,2.5,.9,.9,0,1.8,0,2.8,.1,.2-.1,.3-.2,.4-.4,.4-.4,.7-.8,.8-1.3,.2-.4,.3-.9,.3-1.3,.2-.5,.4-1,.4-1.5,1-.9,1.6-2,1.7-3.3,1.1-10.1-1.1-19.6-4.9-28.6Z"/>
    </g>
    <g id="eyebrows-up">
      <path id="left-eyebrow-up" class="cls-9" d="M424.38,454.1c-2.1-3.2-4.7-6.1-7.8-7.2s-5.1-.4-6.6,1.2c-1.8-3.7-4.2-7.1-7.1-10.1-1.7-1.4-4.1-1.5-5.9-.3-.5-.8-1.1-1.5-1.6-2.3-1.1-1.5-3-2.2-4.9-1.9-2.1-1.6-3.9-3.7-5.1-6.1-1.7-3.2-5.4-2.6-7.5-.4-6.9-3.9-13.6-8.3-19.9-13.1-1.9-1.7-4.7-1.6-6.4,.3-.1,.1-.2,.2-.2,.3v-.3c-.3-1.1-.8-2.2-1.5-3.2-.9-1.8-2.3-3.3-4-4.4-3-1.9-8.4-.6-8.2,3.6-6.5-2.4-12.7-5.6-18.5-9.3-2.4-1.7-5.6-1.1-7.3,1.3-.2,.2-.3,.5-.5,.8-1.6-.2-3.2,.2-4.4,1.3-.3-.5-.6-1.1-1-1.6-.9-1.2-1.9-2.3-3-3.3-1.1-.9-2.5-1.3-3.9-1-.9-1-2.1-1.6-3.4-1.8-1.5-4.5-8.8-3.8-9.6,.9-.4,.2-.9,.4-1.2,.7-1.4,1-2.8,1.9-4.4,2.6,.2-2.1-.6-4.2-2.1-5.6-3.4-3-8.6-1-12.4,.2-2,.6-3.9,1.4-5.7,.1-1.8-1.2-2.3-3.1-4.5-3.9-2.2-.6-4.6-.6-6.7,.2-.5-3.4-4.7-5.8-7.9-3.4l-10.7,7.7c-1.2-2.4-4.1-3.4-6.5-2.2-.6,.3-1.2,.7-1.6,1.3-1.7,2-3.5,3.9-5.4,5.8-1.5-.6-3.3-.5-4.7,.5-17.4,10.6-33.7,22.8-48.8,36.4-1.5,1.3-2.1,3.3-1.6,5.2-2.1,1.1-3.3,3.5-2.8,5.9-3,.1-6,.2-9,.2-5.8,.1-5.8,8.9-.4,9.9,4.2,.8,8.4,1.6,12.7,2.5,1.2,.9,2.7,1.3,4.1,.9l.3,.1c2.9,2.3,6.7,2.8,10.1,1.3,2.5-1,3.8-3.8,2.8-6.3,0-.1-.1-.2-.2-.4l3-.4c.4,0,.9-.2,1.3-.3,2-.4,3.3-2.2,3.1-4.2,.7-.6,1.3-1.2,1.8-1.9l1.9-.4c1.7,1.1,3.9,1.1,5.5,0l7.2-4.8c.9,2.3,3.5,3.5,5.8,2.6,.5-.2,.9-.4,1.3-.8,1.5-1.1,2.9-2.2,4.3-3.3,2.3-.2,4.6-.5,6.9-.9,2.5,.1,4.9-.5,7-1.7h.1l9.6,1.6c2.8,.4,5.3-1.5,5.7-4.3,.1-.4,.1-.8,0-1.2,1.2,1.4,3.2,1.8,4.9,.9,1.7,1.5,4.2,1.6,6.1,.3,1.5-1,2.9-2,4.3-3,.5,.6,1.2,1,2,1.3l10.4,3.9c1.9,.8,4.2,.3,5.6-1.3,4.5,0,9-.7,13.4-2,.2,0,.3-.1,.5-.2,4,1.7,8.3,2.8,12.6,3.3,2.3,.3,4.5-1,5.3-3.2l1.1,.6c2.6,3,5.6,5.6,8.8,7.9,1.5,.9,3.3,1.1,5,.5,1.6,1.8,3.8,2.9,6.2,3.2,2,.3,4.1-.2,5.7-1.4,.6,.9,1.3,1.7,2,2.5,1.6,1.7,4.1,2.3,6.3,1.5,2.6,1.9,6.1,2.2,8.9,.6,1.3,1.2,3.1,1.9,4.9,1.9,1.3,0,2.6-.4,3.7-1.2h.4c.3,.3,.6,.6,.9,.8,3.6,2.8,6.8,2.4,10,.5,2,.8,4,2.7,5.5,3.7l5.6,3.7,12,8c3.5,2.3,8.5,.2,8.1-4.4l-.4-4.6c.5,0,1,0,1.4-.1l.6,1.2c2.3,4.4,8.4,4.1,9.6-.9,.1-.5,.2-1.1,.3-1.8,.4,.6,.8,1,.9,1.2,1.3,1.9,2.4,3.9,3.3,6,1.1,2.6,4,3.8,6.6,2.8,.7-.3,1.4-.8,1.9-1.4,2.2-2.5,3.5-5.7,3.8-9,.4-4.4-4.8-6.5-7.8-4.9Z"/>
      <path id="right-eyebrow-up" class="cls-9" d="M708.38,485.9c-1.1-4.5-2.4-8.8-3.9-13.2-1.5-4.3-2.6-8.7-6-11.8-3.4-3-6.7-6.2-9.6-9.7-3-3.6-6-7.1-10-9.7-3.3-2.2-7.2-3.4-11.2-3.4-4.7,.1-7.6,2.5-11.4,4.8-4.4,2.5-6.6-.7-10.1-3-3.4-2.3-7.3-3.2-11.1-1.6-3.5,1.4-5.8,4.6-9.3,5.9-4.3,1.6-9.4,.3-13.8,0-9.7-.7-18.9,2.3-28.6,1.7-4.6-.2-9.2,.3-13.7,1.6-4.7,1.2-9.1,.6-13.8,1-2.2,.2-4.2,.8-6.2,1.8-.4,.2-.8,.5-1.3,.8-1,.2-1.9,.3-2.8,.6-1.9-.8-3.5-1.4-5.7-.7-1.9,.6-2.9,2.3-4.5,3.2-3.7,2-8.1,1.3-11.7,3.9-1,.8-2,1.6-2.8,2.6-.9,.2-1.9,.4-2.8,.7-1.1,0-2.3,.4-3.2,1.1-1.8,.8-3.5,1.7-5.2,2.8-.3-.1-.6-.2-1-.3-.5-3.1-4.5-5.2-6.9-2.1-.3,.4-.6,.7-.9,1-.8,.5-1.5,1.1-2.2,1.8l-.7,.4c-.5,.2-1.1,.4-1.6,.6-2,.5-4,2.3-3.6,4.5-1.4,1.8-2.6,3.7-3.6,5.7-1.8,3.5,2.9,7.3,6,4.9,.5-.4,.9-.8,1.4-1.2,1,2,3.4,2.8,5.4,1.8,.5-.2,.9-.6,1.3-1l1.6-2c.9,.3,1.8,.3,2.6,0-.3,.8-.5,1.6-.4,2.4-1,1.9-2.1,3.9-2.9,5.9-2.6,5.7,5.7,9.6,8.7,4.8,1.2,1.3,2.9,2,4.6,1.8,.1,3,2.5,5.4,5.5,5.3,.5,0,.9-.1,1.3-.2,12.4-3.7,25.3-4.5,38.2-4.5,1.7,1.7,4.3,2,6.3,.6,.3-.2,.6-.4,1-.6l6.6,.1c2.1,.2,4-1.4,4.2-3.5v-.4c4.9-.7,9.8-1.1,14.8-1.1,10.3-.1,20.6,.6,30.7,2.1,19.1,2.9,37.7,8.5,55.2,16.8,.7,1.3,2,2.2,3.4,2.4,4.3,.8,7.4,4.5,12.1,3.5,.6-.1,1.3-.4,1.9-.6,0,.3,0,.6,.1,.9-.3,.2-.5,.6-.7,.9-.3,.4-.5,.9-.6,1.5v1.1h0c.5,.3,.9,.7,1.2,1.1,.1,.1,.1,.2,.2,.2,.9,.3,1.7,.8,2.3,1.3,.9,.1,1.8,.3,2.7,.5,.2-.1,.3-.2,.5-.3,.4-.3,.8-.7,1-1.1,.3-.4,.5-.8,.5-1.3,.3-.4,.5-.9,.7-1.4,1.1-.7,1.9-1.8,2.2-3,2.7-9.5,1.9-19.3-.4-28.7Z"/>
    </g>
    <g id="close-eyes">
      <path id="right-eye-close" class="cls-13" d="M635.68,584c.8-.3,1.7-.5,2.5-.7,5.7-3.7,11.9-6.6,17.5-10.5,.7-.5,1.4-1,2-1.5,0-.7-.3-1.4-.7-2.1,1.5-.5,2.9-1.2,4.2-2.5,1.4-1.4,3-7.7,4.5-8,3.8-.8,4.6-5.8,2.2-8.3-2.1-2.1-4.6-4-7.2-5.5,.4-2-.5-4.1-2.3-5.1l-.8-.5c.2-2.3-1.2-4.5-3.4-5.3l-14.8-5.6c1.2-.1,2.5-.1,3.7-.1-.5-.1-1-.3-1.5-.6-1.7-1-2.9-2.6-4.4-3.7-4.1-2.9-9.2-5-14.2-5.4-1.2-.1-2.2-.9-2.4-2-8.1-1.3-16.6-.5-24.7,.7-4.6,.7-9.2,1.7-13.8,2.6-4.5,1-9,1.8-13.4,3.6-1.6,.6-3.2,1.3-4.7,2-2.2,3.6-6.8,4.2-10.5,5.5-4.2,1.6-8.5,3.2-12.3,5.7-.9,.6-1.7,1.2-2.5,1.8-.1,.1-.2,.3-.3,.4h0v.1c0,.4-.1,.5-.1,0v.9c.2,1.3-1.2,2.4-2.4,2.4-.4,0-.7-.1-.9-.2-2.1,2.6-4.6,4.9-7.1,7.1-1.9,2.3-3.6,4.7-5.1,7.3-.2,.4-.4,.7-.6,1.1,.7-.5,1.6-.9,2.6-.9,4-.2,7.9-1,11.7-2.1,.4-.3,.8-.6,1.2-.9,.1-.7,.3-1.4,.5-2.1,.1-.7,.3-1.3,.7-1.9,5.9-13.8,26.6-18.6,39.7-20.9,10.2-1.8,20.6-2.7,30.9-2.5,7.9,.2,16.3,.7,23.5,4,1.3,.6,2.1,1.5,2.4,2.5,2.2,1.5,4.3,3.3,6.3,5.2,.8,.5,1.6,1.1,2.4,1.7,1.5,1.3,2.8,2.7,3.8,4.2,.6,.6,1.3,1.2,2,1.7,3.2,2.7,7,5.9,7.1,10.4,.1,4.8-3.5,8-7.3,10.4-.6,.8-1.4,1.3-2.3,1.6,.3,.4,.6,.8,1,1.1-17.8,7.6-37.1,11.3-56.4,11,.7-.1,1.4-.2,2.1-.4-6,0-12.2-1.5-18.4-2.4,.3,.2,.7,.3,1,.5,1.8,.8,3.5,1.4,5.3,1.8-15.7-1.3-31.2-5.3-45.7-11.9-1.3,.3-2.7-.1-3.8-.9-2.5,.4-5.1,.6-7.7,.3h-.1c-.5,0-.9-.1-1.4-.2-.2,0-.4-.1-.6-.1,.4,.9,.9,1.8,1.3,2.7,.1,.3,.3,.7,.5,1,.1,.2,.2,.3,.2,.5,.3,.4,.5,.7,.7,1.1,.3,.1,.6,.3,.9,.3v.4c7,2,13.4,5.6,20.1,8.5,1.7,.7,3.5,1.4,5.2,2-.3-.7-.8-1.3-1.5-1.8,21.7,6.7,44.7,8.3,67.1,4.7,4.4-.9,8.8-1.9,13-3.5,2.6-1,4.4-.2,5.5,1.3Z"/>
      <g id="left-eye-close">
        <path class="cls-13" d="M369.68,512.1c-27.2-21.2-62-25.1-95.3-28-1.8-.3-3.5,1-3.8,2.8v.2c-15.7,.8-29.6,7.9-43.2,15.4-2.2,1.1-3.1,3.8-2,6,0,.1,.1,.1,.1,.2-.4,.1-.9,.2-1.3,.3v.1c.1,.9,.1,1.7,.1,2.5,1.5-.4,3-.8,4.5-1,2.1-.4,4.3-.5,6.5-.3h.2c.2,0,.4,0,.6,.1,.7,.1,1.1,.4,1.4,.9h1.1c.1-.1,.2-.1,.3-.2,4.2-2,8.5-2.4,13-2.4,3.1-6.5,11.1-9.4,18.9-11.1,2-1,4.3-1.6,6.7-2h-2.8c.9-.9,1.4-2.1,1.4-3.3,30.4,2.7,63.2,6.2,88,25.5,.6,.4,1.2,.7,1.8,.8,.4,0,.8,0,1.2,.1,3-.3,5.7-4.2,2.6-6.6Z"/>
        <path class="cls-13" d="M350.08,566.5c2.5-.1,3.8-2,3.8-4,.7-.2,1.4-.4,2-.6,.9,1.8,2.9,3.1,5.5,2.2,5.3-1.8,10.3-4.2,15-7.3,2.2-1.5,2.9-4.4,1.7-6.7,1.9-2.2,2.1-5.6-1.2-7.2-3.5-1.6-6.9-3.6-10.1-5.8-3.8-2.4-7.1-5.7-10.4-8.6-.2-.2-.4-.4-.5-.6-2-.4-4.2-.4-6.5,.1-.1,.5-.5,1-.9,1.3,1.2,.4,2.5,.8,3.7,1.3v.1c-1.9,1.7-2.7,4.8-.3,7.1,4.7,4.6,10,8.5,15.8,11.6-1.2,.6-2.4,1.3-3.5,2.1-.4,.3-.7,.6-1,1-.4,.2-.9,.4-1.3,.6-.7-.6-1.5-.9-2.4-.8-16.8,1.1-33.6,1.6-50.4,1.6-1.3-.2-2.5-.4-3.8-.6,.2-.1,.4-.3,.6-.4-.7-.2-1.3-.5-1.8-.9-6.4,.9-12.9,.2-19.3-1-2.7-.2-5.3-.6-7.7-1.3-.8,.8-2,1.4-3.5,1.4-1,0-1.9-.2-2.6-.6-2.7-.1-5.4-.3-8.1-.5-10.4-3.6-20.3-8.5-29.5-15.3-1.7-1.3-3.5-.8-4.6,.4-.2-.2-.3-.4-.6-.5,2-2.2,4.6-3.9,7.4-4.9,2.6-.8,4.2-3.5,3.5-6.1-1-1.7-1.7-3.6-1.7-5.6,0-.6,.1-1.2,.2-1.7-4.2,0-8.4,0-12.6,.4-1.5,.6-2.9,1.3-4.3,2.1-.1,.1-.1,.2-.2,.3-.9,1.4-1.9,2.9-2.7,4.4l-.3,.6s-.1,.2-.1,.3-.1,.3-.1,.3c-.1,.2-.1,.4-.2,.6-.1,.4-.2,.7-.3,1.1v.7c0,.6-.2,1.1-.6,1.5v.9l1.3-.7c.3-.1,.7-.2,1-.4,.5,.2,1,.3,1.5,.4-.2,.2-.4,.5-.6,.7-.8,1-1.3,2.2-1.4,3.5,5.6,4.5,9.7,10.8,15,15.7,4,3.6,8.5,6.5,13.2,9.2,8.2,1.8,16.6,2.6,25.1,3.2,25.7,6.2,52.9,6.1,78.8,5.4Z"/>
      </g>
    </g>
    <g id="eyes">
      <g id="right-eye">
        <g id="eyeball-right">
          <path class="cls-12" d="M612.28,541.4c-2.3-1.7-4.4-3.8-6-6.1-1.7-1.3-3.7-2.3-5.7-3.1,.3,0,.5-.1,.8-.1-6.3-3.8-14.7-2.6-21.6-1.1-3.7,.8-7.6,1.6-10.8,3.7-1.6,1.1-3.1,2.3-4.6,3.6-.1,.2-.3,.5-.4,.7-.4,.6-.8,1.1-1.2,1.7,1.3-.5,2.6-.9,3.9-1.4-.6,.8-1.1,1.7-1.6,2.6-1.1,.2-2.1,.8-2.8,1.7-10.1,12.3,2.6,29.1,14.4,34.4,14.7,6.6,29.7,.1,36.9-13.9,4.2-7.9,3-16.3-1.3-22.7Z"/>
          <circle class="cls-14" cx="599.68" cy="556.3" r="42.2"/>
        </g>
        <path id="light-right" class="cls-3" d="M585.88,545.5c-.6-2.2-2.8-3.2-4.9-2.8-2.2,.4-4.1-.2-5.9-1.5-1.8-1.3-4.4-.3-5.5,1.4-1,1.8-.5,3.7,.9,5,.1,.6,.4,1.2,1,1.6-.3,.5-.5,1-.8,1.5-.1,.2-.1,.3-.2,.5-.1,.3-.1,.5,0,.8,0,.2,0,.3,.1,.5s.2,.5,.4,.6c.1,.1,.3,.2,.4,.3,.2,.1,.3,.1,.5,.2,.3,.1,.5,.1,.8,0,.3,0,.5-.1,.7-.2,.2-.2,.4-.3,.6-.4,.1,0,.3-.1,.4-.1h.2c.5,0,1-.2,1.4-.6,.2-.2,.3-.4,.4-.6,.1-.2,.2-.5,.2-.8,0-.2,0-.4-.1-.5h0c2.1,.4,4.3,.4,6.5,0,2.2-.5,3.4-3,2.9-4.9Z"/>
        <path class="cls-5" d="M667.78,550.1c-2.1-2.1-4.6-4-7.2-5.5,.4-2-.5-4.1-2.3-5.1l-.8-.5c.2-2.3-1.2-4.5-3.4-5.3l-14.8-5.6c1.2-.1,2.5-.1,3.7-.1-.5-.1-1-.3-1.5-.6-1.7-1-2.9-2.6-4.4-3.7-4.1-2.9-9.2-5-14.2-5.4-1.2-.1-2.2-.9-2.4-2-8.1-1.3-16.6-.5-24.7,.7-4.6,.7-9.2,1.7-13.8,2.6-4.5,1-9,1.8-13.4,3.6-1.6,.6-3.2,1.3-4.7,2-2.2,3.6-6.8,4.2-10.5,5.5-4.2,1.6-8.5,3.2-12.3,5.7-.9,.6-1.7,1.2-2.5,1.8-.1,.1-.2,.3-.3,.4h0v.1c0,.4-.1,.5-.1,0v.9c.2,1.3-1.2,2.4-2.4,2.4-.4,0-.7-.1-.9-.2-2.1,2.6-4.6,4.9-7.1,7.1-1.9,2.3-3.6,4.7-5.1,7.3-1,1.7-1.9,3.3-2.9,4.9,.4,.5,.7,1.1,1.1,1.6,1.4,2.5,2.6,5.2,3.9,7.7,.3,.4,.5,.7,.7,1.1,.3,.1,.6,.3,.9,.3-.1,.4-.1,.8,0,1.2h0l.3,.6c.1,.4,.1,.7,.1,1.1,.6,1.9,2,3.7,4.2,5.1,4.6,3.2,9.3,6.3,14,9.4,1.1,.9,2.6,1.1,3.9,.6,.4,.6,.9,1,1.5,1.3,16.4,8.5,34.9,8.2,52.9,7.7,8.9-.3,17.6-1.2,25.8-5.1,6.7-3.2,12.5-7.8,18.1-12.7,1.3-.2,2.3-1.2,2.7-2.4l1.6-1.4c2.8-2.5-.2-8.2-3.9-6.7-1.8,.6-3.3,1.7-4.3,3.3-5.2,4.6-10.6,9-16.7,12.2-7.9,4.1-16.4,4.6-25,4.8-15.9,.5-32.6,.9-47.1-6.6-.7-.4-1.5-.5-2.2-.5-.2-1.3-1-2.5-2.2-3.2l-7.8-5.2-3.6-2.4-1.5-1c1.9-4-2.7-7.6-6.4-6.4-.2-.4-.6-.7-.9-1,3.3-4.7,7.2-8.9,11.5-12.7,7.4-6.2,16.2-10.4,25.3-13.4,0,0,0,.1-.1,.1,4.1-1.8,8.6-2.7,13.2-3.4,.7-.2,1.4-.3,2.1-.4,6.3-2.5,12.6-4.6,19.1-3.4,4.2-.6,8.5-1,12.7-1.5-2.3,2.6-2.2,7.2,2.1,7.8,7.6,1.1,17.5,2.5,23.6,7.6,5.5,4.5,6.2,12.5,6.8,19.1,.2,2.7,2.1,5,5,5,3.6,0,7.1-.5,9.8-3.2,1.4-1.4,3-7.7,4.5-8,3.9-.4,4.7-5.4,2.3-8Zm-12.4,6.2c-.3-1.4-.6-2.8-.9-4.1,.7,.5,1.4,.9,2.1,1.4-.5,.9-.9,1.8-1.2,2.7Z"/>
      </g>
      <g id="left-eye">
        <g id="eyeball-left">
          <circle class="cls-14" cx="304.68" cy="529.6" r="42.2"/>
          <path class="cls-12" d="M315.28,516.7c-2.3-1.7-4.4-3.8-6-6.1-1.7-1.3-3.7-2.3-5.7-3.1,.3,0,.5-.1,.8-.1-6.3-3.8-14.7-2.6-21.6-1.1-3.7,.8-7.6,1.6-10.8,3.7-1.6,1.1-3.1,2.3-4.6,3.6-.1,.2-.3,.5-.4,.7-.4,.6-.8,1.1-1.2,1.7,1.3-.5,2.6-.9,3.9-1.4-.6,.8-1.1,1.7-1.6,2.6-1.1,.2-2.1,.8-2.8,1.7-10.1,12.3,2.6,29.1,14.4,34.4,14.7,6.6,29.7,.1,36.9-13.9,4.2-8,3.1-16.3-1.3-22.7Z"/>
        </g>
        <path id="light-left" class="cls-3" d="M288.38,524.1c-.2-1.2-.4-2.4-.6-3.6-.1-.5-.5-1-.9-1.2-.4-.3-1.1-.4-1.5-.2-.4,.1-.7,.3-1,.6-.3-.1-.5-.2-.9-.2h-5.3c-.4,0-.9,.2-1.2,.4-.2,0-.4,0-.6,.1-.5,.1-1,.5-1.2,.9s-.3,1-.2,1.4c0,.1-.1,.3-.1,.5v1.8c0,.3,0,.5,.2,.8,.1,.2,.2,.3,.3,.5-.1,.3-.1,.6,0,.9,.3,1.1,1.4,1.7,2.5,1.4,2.5-.6,5.1-1.2,7.6-1.8h0c.4,.3,1.1,.4,1.5,.2,.5-.2,1-.5,1.2-.9,.1-.2,.1-.3,.2-.5,.1-.4,.1-.8,0-1.1Z"/>
        <path id="skin" class="cls-3" d="M357.58,504.4c-12.1-5.6-24.6-13.3-39.1-14.5-14.1-1.2-28.9,.2-42.9,1.6-17.3,1.7-17.5,22.2,0,20.4,11.1-1.1,22.3-2,33.5-1.9,13.2,.1,23.7,6.9,34.6,12,15.1,7,28.9-10.7,13.9-17.6Z"/>
        <g>
          <path class="cls-5" d="M328.38,562.7c-27.4,6.5-56.2,5.4-83-3.3-.3-.7-.9-1.4-1.6-1.7l-.3-.2c0-.1-.1-.2-.1-.4-.1-.3-.1-.5-.3-.8,.7-1.7,.2-3.7-1.3-4.9-4.9-4.5-8.9-9.8-12-15.6-.3-.6-.8-1.2-1.3-1.6,2-2.2,4.6-3.9,7.4-4.9,2.6-.8,4.2-3.5,3.5-6.1-1-1.7-1.7-3.6-1.7-5.6,0-.6,.1-1.2,.2-1.7-4.2,0-8.4,0-12.6,.4-1.5,.6-2.9,1.3-4.3,2.1-.1,.1-.1,.2-.2,.3-.9,1.4-1.9,2.9-2.7,4.4l-.3,.6s-.1,.2-.1,.3-.1,.3-.1,.3c-.1,.2-.1,.4-.2,.6-.1,.4-.2,.7-.3,1.1v.7c0,.6-.2,1.1-.6,1.5v.9l1.3-.7c.3-.1,.7-.2,1-.4,.5,.2,1,.3,1.5,.4-.2,.2-.4,.5-.6,.7-1.7,2.1-2.1,5,0,7.1,.3,.3,.7,.6,1.1,.8-.5,1.3-.3,2.8,.3,4,3.5,6.6,8.1,12.6,13.5,17.7,.3,.3,.6,.5,.9,.7,.5,2.3,2,4.3,4.1,5.4l.2,.1c.4,1.1,1.3,1.9,2.5,2.2,24.3,8,50.2,10,75.5,6,0,2.4,1.9,4.8,4.8,3.7,4.2-1.5,7.8-4.3,10.2-8,2.2-3.3-1.1-6.9-4.4-6.1Z"/>
          <path class="cls-5" d="M369.58,511.9c-27.2-21.2-62-25.1-95.3-28-1.8-.3-3.5,1-3.8,2.8v.2c-15.7,.8-29.6,7.9-43.2,15.4-2.2,1.1-3.1,3.8-2,6,0,.1,.1,.1,.1,.2-.4,.1-.9,.2-1.3,.3v.1c.1,.9,.1,1.7,.1,2.5,1.5-.4,3-.8,4.5-1,2.1-.4,4.3-.5,6.5-.3h.2c.2,0,.4,0,.6,.1,.7,.1,1.1,.4,1.4,.9h1.1c.1-.1,.2-.1,.3-.2,5.7-2.7,11.7-2.5,17.7-2.4,1.8-.1,3.5-.1,5.3,0,.7-.5,1.7-.6,2.5-.1,.4,.2,.6,.5,.9,.9,.3-.1,.5-.2,.8-.3,4.4-1.2,8.8-2,13.3-2.5,7.8-1.9,16.1-2.4,23.8-2,1.9,.1,4.1,.4,6.6,.8,.8-2.4-.4-5.1-2.8-6-.2-.1-.3-.1-.5-.1-10.3-2.9-21-4.2-31.8-3.9,.9-.9,1.4-2.1,1.4-3.3,30.4,2.7,63.2,6.2,88,25.5,.6,.4,1.2,.7,1.8,.8,.4,0,.8,0,1.2,.1,3.1-.2,5.7-4.1,2.6-6.5Z"/>
          <path class="cls-5" d="M376.88,542.7c-3.5-1.6-6.9-3.6-10.1-5.8-3.8-2.4-7.1-5.7-10.4-8.6-.2-.2-.4-.4-.5-.6-2-.4-4.2-.4-6.5,.1-.1,.5-.5,1-.9,1.3,1.2,.4,2.5,.8,3.7,1.3v.1c-1.9,1.7-2.7,4.8-.3,7.1,4.7,4.6,10,8.5,15.8,11.6-1.2,.6-2.4,1.3-3.5,2.1-.4,.3-.7,.6-1,1-1.5,.7-3,1.3-4.6,1.8-6.1,2.1-3.4,11.8,2.7,9.7,5.3-1.8,10.3-4.2,15-7.3,2.2-1.5,2.9-4.4,1.7-6.7,2-2.1,2.2-5.5-1.1-7.1Z"/>
        </g>
      </g>
    </g>
    <path id="glasses" class="cls-6" d="M772.68,543.3c-.2-.3-.3-.5-.5-.8,0-.6-.1-1.1-.3-1.7-1.1-3.1-2.6-6-4.5-8.8-5.1-9.4-10.9-18.4-17.3-27-3.8-5.1-7.7-10-11.9-14.8-4.6-5.3-9.4-10.2-12.7-16.5h0c-.2,.2-.3,.4-.6,.5,1.2,4.8,.6,10-.1,14.9-.7,4.7-1.7,9.4-1.9,14.2l3.6,3.6h0c.4,.6,.9,1.2,1.6,1.6,6.8,7,13.2,14.4,19.1,22.1-8.7-1.8-17.4-3.7-26-6v-.1c-1.7-.4-3.4-1-5.1-1.6-1-.3-1.9-.6-2.9-.9-.5-.1-1-.2-1.5-.4-.2,0-.4-.1-.6-.1-.1,0-.2,0-.4-.1h-.1v.1c-1.2-.4-2.5-.8-3.7-1.2-2,0-3.8-.8-5.7-1.1-.8-.1-1.6-.4-2.3-.8-.4-.3-.8-.6-1.1-1-10.5-3.3-20.9-6.4-31.9-7.9-32.6-4.5-65.5,.4-97.1,8.9-18.2,4.9-36.1,11-54,17-.6,.2-1.2,.6-1.7,1-.3-.2-.7-.3-1-.4-17.1-4.5-35.7-3.7-53.2-4.4-18.3-.8-36.8-2.2-54.9,1.6-.4,.1-.9,.2-1.3,.4-10.9-6.6-21.8-12.8-34.4-14.9-11.1-4.5-22.6-8.1-34.2-11-5.9-1.6-11.8-2.8-17.8-3.8-3.6-.7-7.3-1.2-10.9-1.7,.1-.2,.1-.3,.1-.5-.6-.1-1.1-.3-1.6-.4-1.4-.4-2.8-.7-4.3-.9-1.6-.3-3.3-.3-5-.4-12.5-.8-24.9-1.3-37.4-1.3-7.4,0-15,.3-22.4,1.3-4.2,1-8.2,2.4-11.8,4.7-.6,.4-1.2,.4-1.7,.3v.1c-4.4,.9-8.7,1.9-13,3-.9-1.2-2.4-1.7-3.8-1.5l-39.6,4.3-19.3,2.1c-5.8,.6-11.7,.9-17.3,2.7-3.3-5.8-7.2-11.3-11.7-16.4-12.3-14.5-21.9-29.5-27-48-.3-1.4-1.3-2.6-2.7-3.2-1.1-3.7-2.1-7.5-3-11.3,.1-1-.1-2-.6-2.9h0c-1.3-5.5-2.3-11.1-3.2-16.7-.2-.1-.3-.2-.5-.4-.3-.3-.6-.6-.9-.9-.1-.1-.3-.2-.4-.4,0,0-.1,0-.1-.1,0,0-.1,0-.1-.1-.7-.5-1.5-1-2.3-1.4-.4-.2-.8-.4-1.2-.6-.1,0-.1-.1-.2-.1-.1-.1-.3-.1-.4-.2-.8-.3-1.6-.5-2.4-.7-.4-.1-.8-.2-1.3-.2h-2.3c-.3,.1-.7,.1-1.1,.3-.2,.1-.7,.3-.1,0-.1,.1-.3,.1-.4,.2-.2,.1-.3,.2-.5,.3h-.1c-.2,.2-.4,.4-.6,.7,0,.1-.1,.1-.1,.2-.1,.1-.2,.3-.2,.4s-.1,.1-.1,.2c-.1,.2-.1,.3-.2,.5s-.1,.5-.2,.8c0,.1,0,.3-.1,.4v1.3c0,.8-.4,1.4-.9,1.8,.1,.4,.3,.8,.4,1.2,.2,0,.4-.1,.6-.2s.3-.1,.5-.2c.7,7.9,1.4,15.8,2.2,23.7l.2,2.5c0,.3,.1,.6,.2,.9,.2,2.3,.5,4.7,.8,7,1.3,4.2,2.7,8.3,4.2,12.4,2.6,7.2,5.7,14.2,9.1,21.1,.9,1.6,1.9,3.1,2.9,4.7,.5,0,1,.2,1.4,.6,.7,.7,1.2,1.4,1.8,2.2,.1-.4,.1-.7,.2-1.1,1.8,3.5,3.7,7,5.7,10.4,5.9,9.9,12.3,19.4,19.1,28.6,2.4,3.9,5.2,7.5,8.3,10.8,8,10,16.4,19.5,25.2,28.6,.7,.8,1.6,1.3,2.6,1.5,3.9,6.1,7.1,12.6,9.5,19.4,5.1,25.1,14.7,49.2,30.8,69.4,18.5,23.2,45,39.3,74.7,42.7,31.2,3.5,65.4-2.8,93.6-16.6,.8-.4,1.5-.8,2.3-1.2,1.4-1,3.1-1.8,4.7-2.5,2.7-2.4,6.2-3.9,9.5-5.3,3.9-4.3,9-7.4,13.7-10.8,.1-.4,.3-.7,.6-1,.2-.2,.4-.3,.7-.5,0-.2-.1-.3-.1-.5,12.2-11.5,21.7-25.6,27.8-41.2,3.1-8.2,5.2-16.8,6-25.5,2.7-6.7,2.6-14.2-.1-20.9l-.3-.6c-.5-3.3-1.1-6.5-2-9.7,.2-.4,.5-.9,.7-1.3,.9-1.4,2.1-2.6,3.4-3.6,.2,0,.4,.1,.5,.1,2.1-1.9,5-3,7.8-3.6,1-.2,2.1-.4,3.1-.5,.1,0,.2-.1,.2-.1,.7-.1,1.5-.1,2.2-.2,.8-.1,1.5-.1,2.3-.1,.7-.1,1.5-.4,2.1-.8,6.9-.2,13.8,.1,20.7,.9,7.1,.8,14.2,2,21.2,3.6,1.3,.3,3.3,.6,5.4,1.2-.3,1.2-.1,2.6,.6,3.6,2.2,3.6,2.1,7.9,2.4,12l.3,4.5c-.6,1-.9,2.3-.7,3.5,.6,4.5,1.4,9,2.4,13.4,2.8,28.5,7.8,57.3,25.7,80.5,.2,1.1,.7,2.1,1.6,2.8,6.3,5.3,12.6,9.7,20.3,12.6,7.4,2.9,15.1,5.2,22.7,7.5,15.8,4.6,32.3,7.8,48.8,6.8s31.8-6.8,46.9-13.3c7.8-3.4,15.7-6.8,22.8-11.5l-.1,.4c.4-.2,.8-.5,1.2-.7,1.4-.8,2.2-1.9,3.3-3.1,2.1-2.5,4.7-4.4,7.3-6.4,1.5-1.2,2.9-2.4,4.2-3.8,1.2-1.2,2-2.7,3-4,1.7-2.3,4-4.3,6.3-6.1h0c0-.1,.1-.1,.1-.2,.1-.2,.3-.4,.5-.6l.1-.1c.2-.1,.4-.4,.6-.5,.1-.1,.3-.1,.4-.2,5.3-7.7,9.9-15.8,13.9-24.3,6.2-12.8,9.6-26.6,11.9-40.6,1.8,.2,3.6-.8,4.4-2.5,5.8-11.3,15.7-17.3,26-24,4-2.6,8-5.9,9.6-10.6,1.6-5.5-.6-11.3-3.6-16.5Zm-608.1,4.1c-1,.5-2,.8-3.1,1.1-2.7,.6-5.5,.5-8.2-.3-3-.9-10.1-3.9-6.6-6.8,1.3,.2,2.5-.1,3.5-1,.9-.2,1.8-.4,2.8-.6,2.4-.4,4.8-.5,7.2-.5,1.1,0,2.3,.1,3.4,.2,.4,.2,.9,.4,1.3,.5,.1,.8,.4,1.6,1,2.2-.4,1.3-.2,2.8,.4,4-.5,.3-1,.9-1.7,1.2Zm243,73.5c-8.5,23.9-26.3,43.4-48.3,55.9-24.7,14-54,20-82.2,19.8-28.6-.2-54.3-11.7-74-32.4-18.1-19-29-43.6-34.6-69.1,.1-.8,.1-1.6-.2-2.4-.2-.8-.5-1.5-.8-2.2-.2-1-.4-2-.6-2.9,.6-1.1,.8-2.3,.6-3.5-1.3-7.3,2.5-14.3,6.2-20.4,3.5-5.8,7.5-11.1,12-16.1,4.3-4.7,9-9.1,14-13,2.5-2,5.2-3.8,7.9-5.5,1.3-.8,2.7-1.7,4.1-2.5l2.1-1.2h0c1.5-.8,3.1-1.4,4.8-1.8,2.9-1.5,6.2-2,9.4-2.5,.5-.1,1-.2,1.4-.3,1.7-.7,3.5-1.4,5.2-1.9,0,0,0-.1-.1-.1,.2,0,.5,0,.7-.1,1.3-.3,2.6-.5,4-.4,1.3-.1,2.6-.2,3.9-.3,6-.5,11.9-.8,17.9-1-.1,.1-.1,.2-.2,.3,5.9-.8,12-1.1,18-.5,4,0,8,.2,12,.4q-.1,.1-.2,.2c8.3-1.1,17.3-.8,25.3,1.9,2.2,.3,4.4,.5,6.5,.8h.7c7.6,1.9,15.1,4.1,22.4,6.7,6,.6,11.3,4.3,16.6,7.1-.7-.5-1.4-1-2-1.5,9.9,4.1,19.4,8.9,28.7,14.3,13.8,20.8,23.7,45.3,18.1,70.5-.2,1.2,0,2.6,.7,3.7Zm118.1-78.4c-.5,.5-.9,1-1.4,1.5-.1-.2-.2-.5-.3-.7,0-.1-.1-.2-.1-.2l1.8-.6Zm196.4,72.6l-.3,.1c-5.7,2.3-7.6,11.1-10.1,16.3-1.4,2.8-2.9,5.6-4.4,8.3,0-.2,.1-.3,.1-.5-1.1,1.9-2.5,3.6-3.7,5.5-1.7,2.7-3.5,5.3-5.1,8.1-.8,1.4-1.9,2.3-2.8,3.5-.8,1-.9,2.4-1.6,3.4-1,1.4-2.5,2.5-3.8,3.6-.9,.8-1.8,1.6-2.6,2.5,0,.2-.1,.4-.1,.7-5.6,5.5-11.9,10.1-18.8,13.8-1.1,.5-2,1.5-2.3,2.7-19.7,11.4-43,15.7-65.7,13.8-15.2-1.4-30-5.3-44-11.5-7-3-13.9-6.5-20.4-10.5-6-3.6-11.9-7.4-15.7-13.3-.2-.3-.5-.6-.7-.9-9.8-24.7-17.3-52.5-6.6-77.9,2.5-4.8,5-9.5,7.9-14.1,.1,.1,.3,.1,.4,.2,.5-1.3,1.1-2.6,1.9-3.8,.7-1.1,1.5-2,2.3-3,0,0-.1,0-.1-.1,3.3-4.7,7.2-8.9,11.5-12.7,7.4-6.2,16.2-10.4,25.3-13.4-.1,.1-.2,.3-.3,.4,3.1-1.1,6.3-1.9,9.5-2.7,1.6-.5,3.3-1,5-1.4,3.4-.8,6.8-1.5,10.2-1.9,1.3-.3,2.6-.5,3.8-.7,1.9-.3,3.8-.5,5.8-.7,0,0-.1,0-.1-.1,4.2-.6,8.4-1,12.6-1.5,6.3-.8,12.7-1.1,19-1.1,.6-.1,1.1-.2,1.7-.3,1.9-.3,3.8-.5,5.7-.6l-.3-.1c12.2-.6,24.4-.1,36.5,1.7,12.8,1.9,25.2,5.8,36.8,11.5v.2c.2,.1,.5,.3,.7,.5,.6,.5,1.1,1,1.6,1.6,.5,.4,1,.8,1.4,1.3,1.1,.9,2.2,1.7,3.3,2.7,.5,.5,.9,1,1.4,1.5,.2,.2,.5,.4,.7,.6,1.1,1,1.9,2.3,2.2,3.7,.4,.5,.7,1.1,1.1,1.6,3.2,4.9,6.4,10,8.3,15.6,.1,.3,.2,.7,.3,1-1.7,15.3-3.3,31.3-7.5,46.4Zm18.6-39.8h0c0-.4,0-.8-.1-1.3,.4,.1,.8,.1,1.2,.1-.4,.4-.8,.8-1.1,1.2Zm22.3-14.3c-1.1,.8-2.2,1.6-3.4,2.3-1-.4-2.1-.5-3.2-.2-5.1,1.5-10.5,1.8-15.7,.8-.5-.1-1.1-.1-1.6,0-.3-.7-.9-1.3-1.5-1.7-1-2.4-2.1-4.7-3.3-7,.3-.1,.6-.2,.9-.3,4-2,8.3-3.5,12.7-4.5,.8-.2,1.6-.3,2.5-.3h0c.2,.2,.4,.5,.6,.7,1.3,1.2,3.2,1.7,4.9,1.2,2.1,.8,4,2.2,5.4,3.9,1.2,1.3,3.1,1.8,4.8,1.2-.7,1.7-1.8,3-3.1,3.9Z"/>
  </g>
</svg>