<svg xmlns="http://www.w3.org/2000/svg" viewBox="0 0 97.34 97.34">
  <defs>
    <style>
      .cls-1 {
        fill: #2d2926;
      }
    </style>
  </defs>
  <g id="Layer_4" data-name="Layer 4">
    <g id="transparent">
      <path class="cls-1" d="M53.43,42.34v-.13l-.08.13Z"/>
      <path class="cls-1" d="M48.67,0A48.67,48.67,0,1,0,97.34,48.67,48.67,48.67,0,0,0,48.67,0ZM33.92,74.65H21.36V36.85H33.92ZM27.64,31.7h-.08c-4.22,0-6.94-2.91-6.94-6.54s2.81-6.52,7.1-6.52,7,2.82,7,6.52S32,31.7,27.64,31.7Zm51.58,43H66.66V54.43c0-5.08-1.82-8.55-6.37-8.55a6.87,6.87,0,0,0-6.44,4.6,8.58,8.58,0,0,0-.42,3.06V74.65H40.87s.17-34.25,0-37.8H53.43v5.36A12.47,12.47,0,0,1,64.76,36c8.26,0,14.46,5.4,14.46,17Z"/>
    </g>
  </g>
</svg>
