<svg id="Layer_1" data-name="Layer 1" xmlns="http://www.w3.org/2000/svg" viewBox="0 0 823.56 1269.63">
  <defs>
    <style>
      .cls-1 {
        fill: #7e0fe8;
      }

      .cls-2 {
        fill: #e8a623;
      }

      .cls-3 {
        fill: #493b23;
      }

      .cls-4 {
        fill: #100bd8;
      }

      .cls-5 {
        fill: #63aaaa;
      }

      .cls-6 {
        fill: #b52323;
      }

      .cls-7 {
        fill: #f2ae14;
      }

      .cls-8 {
        fill: #7c3372;
      }

      .cls-9 {
        fill: #097f2a;
      }

      .cls-10 {
        fill: none;
      }

      .cls-11 {
        fill: #fff;
      }

      .cls-12 {
        fill: #ed0fc3;
      }

      .cls-13 {
        fill: #16b2d6;
      }
    </style>
  </defs>
  <g id="face">
    <g id="ear">
      <path class="cls-1" d="M71.38,420.1a4.24,4.24,0,0,0,2.4-3.1c.4-3-2.2-6.5-4.2-8.4-5.1-4.9-12.8-6.4-18.8-9.9a30.84,30.84,0,0,0-22,3.4c-17.4,9.9-25.6,31.3-28,50.1-2.8,22.4,2.3,44.7,9,66,7.2,22.9,15.8,45.4,23.1,68.3,1.9,6,3.8,12,5.5,18.1-3,12.2-5.4,30.3,4.4,38.6a6.88,6.88,0,0,1,1.3.2c8.2,2.4,11.3-4.9,12-13.4a5.61,5.61,0,0,1-1.2-2h0a4.1,4.1,0,0,0-.1,1.1l-.3-1.5c-2.1-10.2-4.8-20.3-7.7-30.3C41,577.6,34,558.2,27.28,538.8,15,503.6-1.12,460.2,19.88,425c4.6-7.7,11.7-15.3,21-17.1,7.4-1.4,16.5,1.8,19.3,9.2a5.17,5.17,0,0,0,4,3.3C65.88,418.3,69.08,417.3,71.38,420.1Z"/>
      <path class="cls-1" d="M62.78,567.3a20.18,20.18,0,0,1-1.4-3l-.4,2.6a21.3,21.3,0,0,1-2.1-4.9c-1.3-4.2-.9-7.2.7-11.1a31.69,31.69,0,0,0,1.9-16.7,74.72,74.72,0,0,0-2.7-11.1l.1-.2.4-.5a4.07,4.07,0,0,0,0-4,4.71,4.71,0,0,0-1.3-1.5,31.73,31.73,0,0,1-2.5-15.5,19.82,19.82,0,0,1,1.6-5.4,4.14,4.14,0,0,0-.5-4.4c1-7.3,2.1-14.6,2-22,0-10.8-3.1-22.1-10.7-29.6a3.25,3.25,0,0,0-1.1-2.5l-10.3-8.6a4,4,0,0,0-5.6.1,3.74,3.74,0,0,0-1.2,1.3,4.62,4.62,0,0,0-3.6,3.5c-.2.9-.3,1.8-.5,2.6-2.4,7.2-2.7,14.9-2.4,22.5.3,8.1.6,16.6,3.5,24.3,1.8,4.8,10.6,4.7,9.8-1.3-1.4-11.5-2.8-23.1-2.1-34.7a4.51,4.51,0,0,0,1.4,1c2.4,2.4,6.3,1.4,7.9-1.1,7.5,8.6,7.5,22.2,6.3,33.4-.8,7.5-2.2,14.9-2.8,22.4a31.25,31.25,0,0,0,2,13.2l.9,3.6c0,.1-.1.2-.1.3a15.17,15.17,0,0,0,.2,5.2,34.42,34.42,0,0,0,3,19.2c0,.1.1.1.1.2a22.5,22.5,0,0,1-.8,2.4c-1.3,3.4-2.7,6.3-2.5,10,.3,7.1,3.7,13.6,8,19l.2.2c2.6.1,8.8-1.1,8.2-4.3C66.08,570.6,63.68,568.7,62.78,567.3Z"/>
    </g>
    <path id="bear" class="cls-2" d="M722.28,432.7c-.1.1-.3.1-.4.2-2.3,8.7-4.4,17.5-6.2,26.4s-5.3,20.1-2.3,29c0,10.1-.5,20.2-1.5,30.2,0,8.2-.4,16.6-3.3,24-.4,2.1-.8,4.2-1.2,6.2a5.54,5.54,0,0,0,.6,4l-6.6,44.5v.3l-6.7,38.8c-1.1,5.3-2,10.6-2.8,15.9a7.14,7.14,0,0,0-1.4,3.2c-.6,3-1.2,6-1.9,9l-.4.4c.1,4.1-1.1,7.9-2.6,11.9-.7,1.7-1.2,3.39-1.8,5.2a5.54,5.54,0,0,1,.2,3.8c.1-.11.2-.11.3-.2l-1.4,6.5a15.39,15.39,0,0,0-.8,1.9,10.65,10.65,0,0,0-3.5,5.5c-4.8,17-9.7,34-15.8,50.5-3.5,8.6-7.5,18.69-13.8,25.89a10.06,10.06,0,0,0-3.9,2.5l-.4.4a10.59,10.59,0,0,0-2.6,4.3,37.51,37.51,0,0,0-2.4,4.4,17.32,17.32,0,0,0-2.2,3.1c-3.9,7-8.1,13.9-12.6,20.6-2.2,3.31-4.6,6.61-6.9,9.9-.4.5-3,3.9-3,3.9-1,1.2-1.9,2.4-2.9,3.6-3.8,4.7-7.8,9.2-12,13.6l-5,4.61a48,48,0,0,1-10-5.2,32.85,32.85,0,0,0-3-3.3,16.57,16.57,0,0,0-3-2.3,5.16,5.16,0,0,0-.6-.81c-5-7-9-14.69-15.6-20.3a9.15,9.15,0,0,0-4.6-2.3c-1.8-2.8-3.7-5.5-5.7-8.2a86.6,86.6,0,0,0-22-19.8c-.5-.6-1-1.1-1.5-1.6A14.19,14.19,0,0,0,520,779a65,65,0,0,0-16.2-4.5,11.72,11.72,0,0,0-8.9,1.9l.3-.8a2.49,2.49,0,0,0-.2-1.9,2.94,2.94,0,0,0-1.2-1,3.59,3.59,0,0,0-1.1-.2h-.5a2.87,2.87,0,0,0-1.8.7,23.37,23.37,0,0,0-4.8,5.6,9.92,9.92,0,0,0-10.8,1.3,104.69,104.69,0,0,1-22.7,5.61c-5.5.7-12.8,1.1-17.2-2.9a10.34,10.34,0,0,0-11-2.1,10.66,10.66,0,0,0-9.8,2.6,10.15,10.15,0,0,0-1.9,2.7,16.44,16.44,0,0,0-5.4-3.2,13.84,13.84,0,0,0-7.7-1.7h-.3a20.71,20.71,0,0,0-10.7-10.7,16.57,16.57,0,0,0-3.8-1.1,11.15,11.15,0,0,0-9-5.4,126.63,126.63,0,0,0-68.9,13.8,11.3,11.3,0,0,0-6.5,1.4,93.35,93.35,0,0,0-20.7,14.6,9.71,9.71,0,0,0-2.8,4.1c-5.3,4.6-10.4,9.3-15.4,14.2-9.2,9.2-17.5,19.7-27.3,28.4-1.9-3.3-7.6-3.2-9,.5l-2.1-1.5c-2.1-6.2-4.5-12.3-7.1-18.3-1.5-3.4-6.8-3.1-8.5-.1l-6-20.1a5,5,0,0,0-6.3-3.4,6.12,6.12,0,0,0-1.2.5l-3.1-11.2c-.8-3-4-4-6.6-3.3l-2.3-8.3c-1.2-4.4-8.8-5.11-9.6,0v.2l-5.2-11.5c-1.7-3.81-8.4-2.9-9.1,1.19-.2,1-.4,1.9-.6,2.81-.4-1.11-.9-2.2-1.3-3.4a25.49,25.49,0,0,0-1.8-5.3,4.5,4.5,0,0,0-6.2-2l-2.5-5.5c-1.1-2.5-3.9-2.9-6.1-2-.6-1.9-1.1-3.8-1.6-5.8a40.78,40.78,0,0,0-2.8-10.4,5.34,5.34,0,0,0-7-3,3.13,3.13,0,0,0-1,.5c-3.3-13-7.3-28.9-7.9-31.2-.8-3.1-4.3-4.1-6.9-3.2a16.27,16.27,0,0,0-1.1-2.3c-.3-1.3-.7-2.7-.9-4.1a4.08,4.08,0,0,0-2.7-3.11c-6.5-18.3-10.4-37.89-13.1-57-1.5-10.6-3-21.1-3.8-31.8-.8-11.3-.4-22.6-1.6-33.8a5.8,5.8,0,0,0-1.2-2.9q1-23.4,4.2-46.5a4.28,4.28,0,0,1-.5-4.3,36.82,36.82,0,0,0,1.7-6.3,5.42,5.42,0,0,0-4.7-4.4h-.6c.5-2.6,1-5.2,1.4-7.9,1.1,2.1,2.2,4.1,3.3,6.2a73,73,0,0,1-.5-9.4c0-12.7-1.8-25.4-.5-38.1-.1-.4-.3-.8-.4-1.2a4.56,4.56,0,0,0-2.7-3.2c-1.1-3.7-2.1-7.5-3-11.3a4.92,4.92,0,0,0-.6-2.9h0c-1.2-5.4-2.3-10.9-3.1-16.4-2.7-2.4-7.9-8.9-11.8-9.1a4.53,4.53,0,0,0-1.6.3,25.79,25.79,0,0,1-1.7,8.6,6.41,6.41,0,0,1-2.6,3.2,7.47,7.47,0,0,0,2-.3c.2-.1.3-.1.5-.2.7,7.9,1.4,15.8,2.2,23.7l.2,2.5a2.92,2.92,0,0,0,.2.9c.7,6.9,1.5,13.8,2.4,20.6a4.31,4.31,0,0,0,.9,2.2,5.23,5.23,0,0,0-1,2.7h0c-1.1,14.1-2.2,28.3-3.2,42.4a97.53,97.53,0,0,0-2.5,16.2c-.8,3.8-1.6,7.5-2.4,11.3a5,5,0,0,0,.4,3.6l-2.2,13.1a5.16,5.16,0,0,1,.2,5,46.81,46.81,0,0,0-3.6,13.3,2.82,2.82,0,0,0,2.2.3l.5.5c-1.1,5-2.3,9.9-3.8,14.8-.1,4.7-.3,9.4-.8,13.9l-.6,4.5c-.4,6-1,11.9-1.9,17.8l-.3-1.5c-.1-.6-.3-1.2-.4-1.8-.2.8-.3,1.7-.5,2.5-.1.4-.2.9-.3,1.3a18.68,18.68,0,0,1-2.1,8.8l-.6,2.4c.1,2.8.2,5.6.2,8.5a4.57,4.57,0,0,1-1.2,3.1q.75,2.7,1.8,5.4l-2.6,16L45,687.89c-.6,3.5-2.2,8-1.1,11.6a81.07,81.07,0,0,0-1.5,26c-1.9,6.8-3.9,13.5-5.9,20.3-3.7,11.4-7.5,22.9-10.8,34.4a112.22,112.22,0,0,0-3.6,47.5c0,12.4.6,24.8,1.2,37.2-.1,9.8-.4,19.5-1,29.3-.2,2.2-.3,4.5-.4,6.7a18.88,18.88,0,0,0,5.3,13.5c.8,6.7,1.8,13.3,2.9,19.9a172.16,172.16,0,0,0,7,44.5c6,20.2,16.1,39.1,26.4,57.5,9.8,17.7,19.8,35.4,30.2,52.8,10.5,17.7,24.3,32.7,38.2,47.7,7.2,7.8,14.5,15.4,22.2,22.6,3.9,3.7,8,7.3,12.2,10.8,6.1,5.1,13.1,11.9,21.6,11.4,25,33.7,60.2,58.5,100.8,69.6a172.81,172.81,0,0,0,40.4,5.8,15.21,15.21,0,0,0,4.2,1.6c12,2.9,24.2,5.4,36.4,7.6,13.7,2.5,29.6,6.8,42.1-1.7a23,23,0,0,0,4.1-3.5l4.2-.2c22.3,1.9,44.5,3.7,66-3.8a70.52,70.52,0,0,0,13.6-3.1,22,22,0,0,0,11.6-8.9,215,215,0,0,0,36.5-28.1,287.66,287.66,0,0,0,43-49.8c13.8-20.3,24.3-43.5,29.2-67.7a19,19,0,0,0,.4-4.1c6.7-.2,13.6-3.4,16.3-9.7.7-1.6,1.4-3.2,2-4.8h.1l.2-.7a64.15,64.15,0,0,0,3-10.6l.3-1.7,3.9-14.6a17,17,0,0,0,.4-2.2l.9-2.4c.2-.6,2.2-5.6,1.9-4.9,2.2-5.3,4.5-10.5,6.7-15.8,3.8-9.3,7.1-18.8,10-28.4.7-2.4,1.4-4.7,2.1-7.1a16.6,16.6,0,0,0,8.5-7.8c4.4-9.2,6.3-18.8,4.3-28.6l2.8-16.7a506.66,506.66,0,0,0,15-97.2,17.26,17.26,0,0,0-1.5-7.8c.8-9.4,1.4-18.8,2-28.2a17.62,17.62,0,0,0-1.2-7.2c.1-3,.2-6,.5-9,1.7-12.1,2.8-24.2,3.3-36.4a10,10,0,0,0-.9-4.8c0-1.2-.1-2.4-.2-3.6a12.29,12.29,0,0,0-1-4.2c-.1-10.5,1.3-21,2.8-31.3l2-14.1a24.6,24.6,0,0,0,.7-2.9c1.1-8.5,2.5-16.9,4.2-25.4h0c0-8,0-16,1.3-23.9a25.23,25.23,0,0,1-.8-7.2c-.4.7-.7,1.31-1.1,2,1.7-10.39,4.1-20.8,5.9-31a7.57,7.57,0,0,0,.1-1.5,4,4,0,0,0,1.3-2.69l2.2-34.2a10.37,10.37,0,0,1-.4-1c-4.5-15.6,3.5-29.4,6.2-44.4l-1.3-.31c.8-7.09,1.3-14.3,1.6-21.5a3.9,3.9,0,0,0,.7.6c-.3-10.6-1-21.19,1.3-31.69,1.3-8.91,2.8-17.7,4.7-26.5.2-.81.4-1.5.6-2.31C728.58,437.9,725.78,433.9,722.28,432.7ZM484.38,884.3c-.7,1-1.4,2-2,3l-.6.9-.4.6a10.54,10.54,0,0,1-.7,1.1c-10,.2-19.8,4.5-27.3,11a17.79,17.79,0,0,0-13.4,1.2l-.1-.1a25.56,25.56,0,0,0-18.8-7.5,17.4,17.4,0,0,0-4.5.6,9.31,9.31,0,0,0-5.4-1.4l-53,5.2a13,13,0,0,0-7.7,3.2,25.33,25.33,0,0,0-3.6-1.2c-3.9-2-7.7-4.2-11.6-6.3-6.6-3.8-15.2-7.4-19.8-13.8-3.1-4.4-8.5-6.7-13.5-4.7a5.64,5.64,0,0,0-.4-1.2,15.28,15.28,0,0,0,6.8-4.6c2.6-3.2,5.1-6.5,7.6-9.8a25.12,25.12,0,0,0,2.5-3.2c.3-.5.7-1,1-1.6l.8-1.1c.1.1.3.2.4.4a20.3,20.3,0,0,0,19.6,2.8,17.17,17.17,0,0,0,3.4,4.6c6.1,5.6,16.9,8.4,24.2,3.1l5.3-3.8a24.7,24.7,0,0,0,11.8,4.2l20.7,2.3a16.7,16.7,0,0,0,12.5-4.3,11.2,11.2,0,0,0,9.4,6.2c9.6,1,19.2,2.3,28.8,4,9.4,2.8,18.7,6.6,27.9,10.2Z"/>
    <path id="bear-mouth-O" class="cls-3" d="M723.28,433c-.1.1-.3.1-.4.2-2.3,8.7-4.4,17.5-6.2,26.4s-5.3,20.1-2.3,29c0,10.1-.5,20.2-1.5,30.2,0,8.2-.4,16.6-3.3,24-.4,2.1-.8,4.2-1.2,6.2a5.54,5.54,0,0,0,.6,4l-6.6,44.5v.3l-6.7,38.8c-1.1,5.3-2,10.6-2.8,15.9a7.14,7.14,0,0,0-1.4,3.2c-.6,3-1.2,6-1.9,9l-.4.4c.1,4.1-1.1,7.9-2.6,11.9-.7,1.7-1.2,3.4-1.8,5.2a5.54,5.54,0,0,1,.2,3.8c.1-.1.2-.1.3-.2l-1.4,6.5a15.39,15.39,0,0,0-.8,1.9,10.69,10.69,0,0,0-3.5,5.5c-4.8,17-9.7,34-15.8,50.5-3.5,8.6-7.5,18.7-13.8,25.9a10.06,10.06,0,0,0-3.9,2.5l-.4.4a10.59,10.59,0,0,0-2.6,4.3,37.51,37.51,0,0,0-2.4,4.4,17,17,0,0,0-2.2,3.1c-3.9,7-8.1,13.9-12.6,20.6-2.2,3.3-4.6,6.6-6.9,9.9-.4.5-3,3.9-3,3.9-1,1.2-1.9,2.39-2.9,3.6-3.8,4.7-7.8,9.2-12,13.6l-5,4.6a47.52,47.52,0,0,1-10-5.2,32.85,32.85,0,0,0-3-3.3,17,17,0,0,0-3-2.3,5.55,5.55,0,0,0-.6-.8c-5-7-9-14.7-15.6-20.3a9.15,9.15,0,0,0-4.6-2.3c-1.8-2.8-3.7-5.5-5.7-8.2a86.6,86.6,0,0,0-22-19.8c-.5-.6-1-1.1-1.5-1.6a14.19,14.19,0,0,0-9.1-3.9,65,65,0,0,0-16.2-4.5,11.72,11.72,0,0,0-8.9,1.9l.3-.8a2.49,2.49,0,0,0-.2-1.9,2.94,2.94,0,0,0-1.2-1,3.59,3.59,0,0,0-1.1-.2h-.5a2.87,2.87,0,0,0-1.8.7,23.37,23.37,0,0,0-4.8,5.6,9.92,9.92,0,0,0-10.8,1.3,104.67,104.67,0,0,1-22.7,5.6c-5.5.7-12.8,1.1-17.2-2.9a10.34,10.34,0,0,0-11-2.1,10.66,10.66,0,0,0-9.8,2.6,10.15,10.15,0,0,0-1.9,2.7,16.44,16.44,0,0,0-5.4-3.2,13.84,13.84,0,0,0-7.7-1.7h-.3a20.71,20.71,0,0,0-10.7-10.7,16.57,16.57,0,0,0-3.8-1.1,11.15,11.15,0,0,0-9-5.4,126.63,126.63,0,0,0-68.9,13.8,11.3,11.3,0,0,0-6.5,1.4,93.35,93.35,0,0,0-20.7,14.6,9.71,9.71,0,0,0-2.8,4.1c-5.3,4.6-10.4,9.3-15.4,14.2-9.2,9.2-17.5,19.7-27.3,28.4-1.9-3.3-7.6-3.2-9,.5l-2.1-1.5c-2.1-6.2-4.5-12.3-7.1-18.3-1.5-3.4-6.8-3.1-8.5-.1l-6-20.1a5,5,0,0,0-6.3-3.4,6.12,6.12,0,0,0-1.2.5l-3.1-11.2c-.8-3-4-4-6.6-3.3l-2.3-8.3c-1.2-4.4-8.8-5.1-9.6,0v.2l-5.2-11.5c-1.7-3.8-8.4-2.9-9.1,1.2-.2,1-.4,1.9-.6,2.8-.4-1.1-.9-2.2-1.3-3.4a25.49,25.49,0,0,0-1.8-5.3,4.51,4.51,0,0,0-6.2-2l-2.5-5.5c-1.1-2.5-3.9-2.9-6.1-2-.6-1.9-1.1-3.8-1.6-5.8a41,41,0,0,0-2.8-10.4,5.34,5.34,0,0,0-7-3,3.13,3.13,0,0,0-1,.5c-3.3-13-7.3-28.9-7.9-31.2-.8-3.1-4.3-4.1-6.9-3.2a16.27,16.27,0,0,0-1.1-2.3c-.3-1.3-.7-2.7-.9-4.1a4.07,4.07,0,0,0-2.7-3.1c-6.5-18.3-10.4-37.9-13.1-57-1.5-10.6-3-21.1-3.8-31.8-.8-11.3-.4-22.6-1.6-33.8a5.8,5.8,0,0,0-1.2-2.9q1-23.4,4.2-46.5a4.28,4.28,0,0,1-.5-4.3,36.82,36.82,0,0,0,1.7-6.3,5.41,5.41,0,0,0-4.7-4.4h-.6c.5-2.6,1-5.2,1.4-7.91,1.1,2.1,2.2,4.1,3.3,6.2a73,73,0,0,1-.5-9.4c0-12.7-1.8-25.4-.5-38.1-.1-.4-.3-.8-.4-1.2a4.55,4.55,0,0,0-2.7-3.19c-1.1-3.7-2.1-7.5-3-11.31a4.92,4.92,0,0,0-.6-2.9h0c-1.2-5.4-2.3-10.9-3.1-16.4-2.7-2.4-7.9-8.9-11.8-9.1a4.33,4.33,0,0,0-1.6.31,25.69,25.69,0,0,1-1.7,8.59,6.37,6.37,0,0,1-2.6,3.2,7.47,7.47,0,0,0,2-.3c.2-.1.3-.1.5-.2.7,7.9,1.4,15.8,2.2,23.7l.2,2.5a2.92,2.92,0,0,0,.2.9c.7,6.9,1.5,13.8,2.4,20.6a4.31,4.31,0,0,0,.9,2.2,5.23,5.23,0,0,0-1,2.7h0c-1.1,14.1-2.2,28.3-3.2,42.4a97.53,97.53,0,0,0-2.5,16.2c-.8,3.8-1.6,7.5-2.4,11.3a5,5,0,0,0,.4,3.6l-2.2,13.1a5.16,5.16,0,0,1,.2,5,46.81,46.81,0,0,0-3.6,13.3,2.82,2.82,0,0,0,2.2.3l.5.5c-1.1,5-2.3,9.9-3.8,14.8-.1,4.7-.3,9.4-.8,13.9l-.6,4.5c-.4,6-1,11.9-1.9,17.8l-.3-1.5c-.1-.6-.3-1.2-.4-1.8-.2.8-.3,1.7-.5,2.5-.1.4-.2.9-.3,1.3a18.68,18.68,0,0,1-2.1,8.8l-.6,2.4c.1,2.8.2,5.6.2,8.5a4.57,4.57,0,0,1-1.2,3.1,56,56,0,0,0,1.8,5.4l-2.6,16L45.58,688c-.6,3.5-2.2,8-1.1,11.6a81.09,81.09,0,0,0-1.5,26c-1.9,6.81-3.9,13.5-5.9,20.31-3.7,11.39-7.5,22.89-10.8,34.39a112.23,112.23,0,0,0-3.6,47.5c0,12.4.6,24.8,1.2,37.2-.1,9.8-.4,19.5-1,29.3-.2,2.2-.3,4.5-.4,6.7a18.88,18.88,0,0,0,5.3,13.5c.8,6.6,1.8,13.3,2.9,19.9a172.16,172.16,0,0,0,7,44.5c6,20.2,16.1,39.1,26.4,57.5,9.8,17.7,19.8,35.4,30.2,52.8,10.5,17.7,24.3,32.7,38.2,47.7,7.2,7.8,14.5,15.4,22.2,22.6,3.9,3.7,8,7.3,12.2,10.8,6.1,5.11,13.1,11.9,21.6,11.4,25,33.7,60.2,58.5,100.8,69.6a172.81,172.81,0,0,0,40.4,5.8,15.23,15.23,0,0,0,4.2,1.61c12,2.89,24.2,5.39,36.4,7.6,13.7,2.5,29.6,6.8,42.1-1.7a23,23,0,0,0,4.1-3.5l4.2-.2c22.3,1.9,44.5,3.7,66-3.8a70.52,70.52,0,0,0,13.6-3.1,22,22,0,0,0,11.6-8.9,215,215,0,0,0,36.5-28.1,287.66,287.66,0,0,0,43-49.8c13.8-20.3,24.3-43.5,29.2-67.7a19,19,0,0,0,.4-4.1c6.7-.2,13.6-3.4,16.3-9.7.7-1.61,1.4-3.2,2-4.8h.1l.2-.7a64,64,0,0,0,3-10.61l.3-1.6,3.9-14.6a17,17,0,0,0,.4-2.2l.9-2.4c.2-.6,2.2-5.6,1.9-4.89,2.2-5.31,4.5-10.5,6.7-15.81,3.8-9.3,7.1-18.8,10-28.39.7-2.4,1.4-4.7,2.1-7.11a16.4,16.4,0,0,0,8.5-7.89c4.4-9.2,6.3-18.8,4.3-28.61l2.8-16.69a506.78,506.78,0,0,0,15-97.2,17.26,17.26,0,0,0-1.5-7.8c.8-9.4,1.4-18.81,2-28.2a17.62,17.62,0,0,0-1.2-7.2c.1-3,.2-6,.5-9,1.7-12.1,2.8-24.2,3.3-36.4a10,10,0,0,0-.9-4.8c0-1.2-.1-2.4-.2-3.6a12.29,12.29,0,0,0-1-4.2c-.1-10.5,1.3-21,2.8-31.3l2-14.11a24,24,0,0,0,.7-2.89c1.1-8.5,2.5-16.9,4.2-25.4h0c0-8,0-16,1.3-23.9a25.27,25.27,0,0,1-.8-7.2c-.4.7-.7,1.3-1.1,2,1.7-10.4,4.1-20.8,5.9-31a7.57,7.57,0,0,0,.1-1.5,4.08,4.08,0,0,0,1.3-2.7l2.2-34.2a10.37,10.37,0,0,1-.4-1c-4.5-15.6,3.5-29.4,6.2-44.4-.4-.1-.8-.2-1.3-.3.8-7.1,1.3-14.3,1.6-21.5a4.35,4.35,0,0,0,.7.6c-.3-10.6-1-21.2,1.3-31.7,1.3-8.9,2.8-17.7,4.7-26.5.2-.8.4-1.5.6-2.3C729.58,438.3,726.88,434.2,723.28,433ZM429.38,863.2a13.45,13.45,0,0,1-3.5-.5C427.08,862.8,428.28,863,429.38,863.2Zm48.2,20.4a15.84,15.84,0,0,0-2.7,7.5h0v.3a3.46,3.46,0,0,0,.2,1.8.75.75,0,0,1-.1.5,27.12,27.12,0,0,1-7.4,14.1,5.74,5.74,0,0,1-.4.7c-5.3,7.7-15.1,13.1-23.3,17.2-10.9,5.5-22.4,7-34.5,7.1a70.23,70.23,0,0,1-34.7-8.8c-11-5.9-21-13.4-32.2-18.9a4.24,4.24,0,0,1-2.6-4.2c-2.9-1.4-5.8-2.8-8.7-4.3-2.2-4.8-4-9.8-3.8-14.7.1-3.4,1-6.5,1.2-9.6.6-.6,1.3-1.1,1.9-1.7a3.07,3.07,0,0,0,1-1.5c.8-.5,1.6-1,2.4-1.4a4.16,4.16,0,0,0,1.7-1.8,62.41,62.41,0,0,1,9.7-.7,2.77,2.77,0,0,0,.9-.1,3.86,3.86,0,0,0,1.9,1,39.68,39.68,0,0,0,25.4-2.5,2.55,2.55,0,0,0,1-.7c4.6,3.3,10.6,4.1,16.3,3.5h.3c8.3,2.8,16.7,4.4,24.6-1.1,2.9,1.7,4.8,4.7,8.3,5.6,4.2,1,9-.4,13.3-.1,9.8.5,18.6,6.8,28.5,5h0a5.9,5.9,0,0,1-.2,1.4c4.5,1.6,8.9,3.3,13.3,5C478.58,882.5,478.08,883,477.58,883.6Z"/>
    <path class="cls-4" d="M793.48,255.5c-11.2-18-25.5-33.3-41.1-47.7-.5-.4-.9-.9-1.4-1.3a5.94,5.94,0,0,0-.4-.8,6.22,6.22,0,0,0-3.8-3.1c-7.3-6.8-14.5-13.7-21.5-20.8l-.3-.6c-26.8-54-69.6-99.5-120.9-131C556,20.7,500.38,4.3,444,1.3A286.39,286.39,0,0,0,334.68,12a3.7,3.7,0,0,0-1.1.5c-40.6,10.2-79.9,26.4-116.8,45.7-28.3,14.8-55.2,32.7-78.2,54.9a247.11,247.11,0,0,0-44.1,58c-26.1,40.7-40.8,88.9-43.6,137.2a4,4,0,0,0-.3,1.5v3.1a291.81,291.81,0,0,0,2.3,50.3v6c.1,7.8.2,15.5.5,23.3a6.64,6.64,0,0,0,3.8,6c0,1.8.1,3.5.2,5.2,5.4,2.9,11,5.1,16.8,5.5a32.52,32.52,0,0,0,5.4-.2c2.8-2.1,5.6-4.1,8.5-6.2a133.52,133.52,0,0,1,2-16.7,313.28,313.28,0,0,1,25.3-58.6,3.71,3.71,0,0,0-1.1-5.1,4.67,4.67,0,0,0-1-.5l.7-.8a3,3,0,0,0,.5-.7h.1c25.2,4.9,45.9-13.7,67.1-24.1,25.5-12.6,53.3-20.1,79.8-30.4,53.2-20.7,104.1-46.7,157-68.2,25.5-10.3,52-19.1,79.5-21.6l.6-.1a3.09,3.09,0,0,0,2.8,2.7l28.8,3.9a271.5,271.5,0,0,1,101,41.6,3,3,0,0,0,.8.4c9.8,8.7,19.3,17.7,28.4,27.2a299.59,299.59,0,0,1,28.7,47.3c7.5,19.1,13.5,39,19.2,58.6,3.2,11,6.4,22,8.6,33.1a303.58,303.58,0,0,1,2.5,36.9,7.42,7.42,0,0,0-.5,8.2v.2a5,5,0,0,0,.2,2.1,4.26,4.26,0,0,1,3-.8,26.52,26.52,0,0,0,9.1-1,30.87,30.87,0,0,1,7.8-2.5v-.8a122.12,122.12,0,0,0,61.2-34.4,58.5,58.5,0,0,0,11.9-14.3,122.07,122.07,0,0,0,6.8-10.8,4,4,0,0,0,4.5-3.4v-.5A199.88,199.88,0,0,0,793.48,255.5ZM82.18,384.4c-1.5,4.7-2.8,9.4-4,14.1a1.63,1.63,0,0,0,0-.7h0a3.88,3.88,0,0,0-3.8-3.9h-.2a23.72,23.72,0,0,1-.6-8.4c4.2-11.7,8.3-23.4,12.5-35.1,1.6,2.1,5,2.8,6.4-.3a82.39,82.39,0,0,1,5.6-10.6l.3-.4A149,149,0,0,0,82.18,384.4Zm4.6-41.2a3.92,3.92,0,0,0-1-.8l1.2-2.7.1-.1a18.66,18.66,0,0,0-.4,2.5A4.1,4.1,0,0,0,86.78,343.2Zm30.6-31.8a3.39,3.39,0,0,0-1.5,1.4,4,4,0,0,0-3.4,2,4.09,4.09,0,0,0-4.1.8c-1.8,1.6-3.6,3.2-5.2,4.9a4.94,4.94,0,0,0-1.7-3.6c-6.4-4.9-8.4-13.4-6-20.8,1.6-4.9-6.1-7-7.7-2.1A26.28,26.28,0,0,0,92,318.2c-4.2,3-7.1,8.5-9.4,12.8-2,3.8-3.8,7.6-5.5,11.5a4.63,4.63,0,0,0-1.3,1.8c-3.2,8.1-6.2,16.3-8.8,24.6-.3-51.7,4.9-104.1,22.6-152.9h0c9.9-27.5,24.2-53.7,43.2-76.1a239.52,239.52,0,0,1,26.6-26.7c19.6-14.9,41-27.5,62.4-39.6,14-7.9,28.1-15.4,42.6-22.4,8.3-3.5,16.6-6.8,25-9.9,32.1-12,65.5-21.2,99.7-24.7a346.65,346.65,0,0,1,76.2.6,3.48,3.48,0,0,0,1.1,3.2,189.88,189.88,0,0,1,30,41.2,171.37,171.37,0,0,1,10.5,23.6c.3.8.6,1.7.9,2.6.7,4.5,1.4,9,2.3,13.5-102.5,8.2-198.2,50.9-289.7,95.6-27,13.2-55.9,25.1-79.1,44.6-4,3.3,1.7,8.9,5.7,5.7,20.4-17,45.6-27.7,69.3-39.3,23.9-11.7,47.9-23.3,72.2-34.2,48.7-21.9,98.8-41.3,151-53.3a504,504,0,0,1,72.2-11.2c.2,1.2.5,2.4.8,3.7,3.4-.8,6.9-1.4,10.3-1.9,0-1.5-.1-3-.2-4.5a54.73,54.73,0,0,0-1.6-9c-2-5-4.1-10-5.8-15.1-1.1-2.3-2.2-4.7-3.3-7h-.1c-.5-1.3-1.1-2.6-1.7-3.9l-.6-1.2c0-.1,0-.1-.1-.2-2.1-4.7-4.3-9.3-6.8-13.8a192.22,192.22,0,0,0-26.9-37.6q13.65,1.95,27,5.1c.1.2.3.3.4.5a149.54,149.54,0,0,1,41,71.8,5.72,5.72,0,0,0-.8.7,3.7,3.7,0,0,1,.5,1.1c.1.2.1.4.2.6a5.07,5.07,0,0,1,.9,1.6,20.54,20.54,0,0,1,.9,4.3h.1c.1.6.2,1.2.3,1.9.1,1.1.2,2.2.3,2.9v.1c3.4-.1,6.8-.2,10.2-.2a41.16,41.16,0,0,0-2.3-5.8,2.73,2.73,0,0,0-.9-1.2c-.1-.2-.1-.4-.2-.6a158.35,158.35,0,0,0-33.8-71.2q5.85,2.85,11.7,6a3.58,3.58,0,0,1,3-.5,160,160,0,0,1,25.2,7.9l-5.7-3.4c8.4,3.5,16.7,7.3,24.8,11.6a317.75,317.75,0,0,1,63.8,44c-1.7-1.3-3.5-2.5-5.2-3.8,1.4,1.4,2.7,2.9,3.9,4.3a122.71,122.71,0,0,1,15.5,16.7c1.1,1.4,2.2,2.9,3.3,4.4,0,0,1.1,1.2,1.5,1.7,1.8,2,3.7,4,5.5,6.1,1.5,1.7,3.6,3.7,5.3,5.9a43.88,43.88,0,0,1,8.1,10.6,25.24,25.24,0,0,1,4.6,6.6l4.7,5.4c4.6,5.3,9.2,10.7,13.8,16,2.1,3.6,4.2,7.3,6.1,11-2.2-1.1-4.3-2.1-6.6-3.1-8.9-5.4-18-10.4-27.3-14.9a223.63,223.63,0,0,0-54.8-21.1,236.1,236.1,0,0,0-23.5-4.2c-2.4-.4-4.8-.8-7.1-1.2-3.3-.7-6.7-1.4-10-2a3.52,3.52,0,0,0-2.5.3c-3.5-.4-7-.7-10.4-1a3.23,3.23,0,0,0-3.3-1.6l-6,.3a3.1,3.1,0,0,0,.6-1.3c.3-1.4.4-2.8.6-4.2-3,0-6,.1-9,.2l.7,3.9a3.15,3.15,0,0,0,.9,1.7l-1.9.1c-8.3-.2-16.7,0-25,.6a3.38,3.38,0,0,0-.6-1.2,4.3,4.3,0,0,0,.2-2.5,3.55,3.55,0,0,1-.2-1c-2.7.2-5.3.5-8,.8a9.36,9.36,0,0,0,.4,1.6,461.75,461.75,0,0,0-85.5,25.4c-.1,0-.2.1-.3.2-44.3,16.6-87,37.5-128.8,59.7q-20.55,10.8-40.8,22.1-60.6,29.4-120.1,61C132.68,303.1,125,307.2,117.38,311.4Zm678.3,67.2a4.4,4.4,0,0,0-.2,1.6c-5,5.7-11.7,10.4-17.7,14.6a274.42,274.42,0,0,1-34.6,20.6l-4.1,1a10.93,10.93,0,0,0-.8-1.5c-.1-.8-.2-1.7-.3-2.5-2.9-43.8-12.6-87.2-32.8-126.4-22.6-43.8-58.1-81-103.7-101-48.1-21.1-101.2-22.5-151.1-7.3-27.1,8.3-53,20.1-78.8,31.8-26.8,12.1-53.4,24.3-80.4,35.8-15.5,6.6-31.2,12.9-47,18.7-15.1,5.6-30.4,10.4-45.4,16.2A286.5,286.5,0,0,0,158,300.4c-8,4.7-16.5,9.6-25.6,11.8,36.8-19.7,73.8-38.8,111.3-57.2a3.69,3.69,0,0,0,2.9-.4l17.6-9.6c12.1-5.9,24.3-11.7,36.4-17.5,30-14.1,60-28.1,90.5-41.1,30-12.9,60.6-24.6,92.3-32.7,26.8-6.8,54.6-10.8,82.2-10.5a292.36,292.36,0,0,1,138.8,52.6c1,.7,1.9,1.4,2.9,2.1l.3.2c5,3.7,9.8,7.5,14.6,11.5l3.6,3a.1.1,0,0,1,.1.1,322.15,322.15,0,0,1,24.6,23.6,362.12,362.12,0,0,1,26.2,36.5c3.6,5.7,7,11.6,10.3,17.5,2.9,5.9,5.7,11.8,8.5,17.7a1.38,1.38,0,0,0,.3.4,226,226,0,0,1,5.9,39.3A143.1,143.1,0,0,1,795.68,378.6Z"/>
    <g id="nose">
      <path class="cls-5" d="M412.48,767.5a.76.76,0,0,1-.2-.5,2.48,2.48,0,0,0-1.4-1.6.91.91,0,0,0,0-1c-3.5-5.9-9.4-9.6-15.4-12.5-1.2-.6-2.4-1.2-3.7-1.8a29.62,29.62,0,0,0-3.1-1.5c-3.3-1.5-6.8-2.7-10.5-1.7l-.2.1h-.4a3.13,3.13,0,0,0-1,.5l-1.5.6a1,1,0,0,0-.3,1.4.82.82,0,0,0,.6.4,2.43,2.43,0,0,0,2.1,2.6,3,3,0,0,0,1.6-.2l4.6,1.7c2.2,1.2,4.5,2.4,6.8,3.5,2.2,3.8,6.7,4,10.2,5.6l.6.3c.5.5,1.1,1.1,1.6,1.7a28.57,28.57,0,0,0,3.7,4.1,11.09,11.09,0,0,0,3.2,2.5,2.47,2.47,0,0,0,3.4-.9A2.3,2.3,0,0,0,412.48,767.5Z"/>
      <path class="cls-5" d="M522.08,738.3a27.41,27.41,0,0,1-10.3,15.6,43.56,43.56,0,0,1-9.1,4.7c-3.2,1.4-7.8,3.6-8,7.6-.2,3.2,4.8,3.2,5,0,0,.4.2-.1.4-.3a5.5,5.5,0,0,1,.9-.7,10.59,10.59,0,0,1,2-1.2c1.5-.8,3.2-1.4,4.8-2.1a30.19,30.19,0,0,0,8.7-5.4,32.65,32.65,0,0,0,10.4-16.8C527.68,736.5,522.88,735.2,522.08,738.3Z"/>
      <path class="cls-5" d="M419.28,617a24.27,24.27,0,0,0-2.2-7.4,57.42,57.42,0,0,1-9.7,11.2c.1.2.1.3.2.5-6.6,18.6-18.9,34.5-34.4,46.5a4.13,4.13,0,0,1-1.4,5c-5.1,4-7.8,9.6-11.5,14.8-.2.3-.4.5-.6.8,1-.5,2-1,3-1.6-1.4,1.7-2.9,3.3-4.3,5a4.24,4.24,0,0,0,.1,5.5,3.87,3.87,0,0,0-1.9,1.2,36.49,36.49,0,0,0-9.5,23,35.31,35.31,0,0,0,1.5,12.1c.4,1.3.9,2.6,1.4,3.8,1,6.8,3.3,14.6,9.3,12.6,3.3-1.2,4.3-5,2.9-8a68.22,68.22,0,0,0-4.2-7,41.57,41.57,0,0,1,5.4-27.8,3.48,3.48,0,0,0-.4-4.4,3.94,3.94,0,0,0-.9-3.9,3.22,3.22,0,0,0,1.8-1.2c7.5-9,15.4-17.7,23.7-26a3.47,3.47,0,0,0,1-3.6,113.41,113.41,0,0,0,27.8-41.2c1.2-3.1,2.2-6.2,3.1-9.4C419.28,617.1,419.28,617.1,419.28,617Z"/>
      <path class="cls-5" d="M434.58,564a3.08,3.08,0,0,0-.5-1.2c-1.2.2-2.5.3-3.7.4-2.3.2-4.6,0-5.9,1.8h.6a19,19,0,0,0-3.1,6,2.2,2.2,0,0,0-.1.8.1.1,0,0,0,.1.1,5.84,5.84,0,0,1,.4,1.8,4,4,0,0,0,2.6,2.1,3.81,3.81,0,0,0,3.9-1.2,4,4,0,0,0,4.7-2.6h.5C439.08,572.1,439.28,564.6,434.58,564Z"/>
    </g>
    <g id="eyebrows">
      <path class="cls-6" d="M422.78,480.9c-1.8-3.4-4.1-6.5-7.1-7.9s-5.1-.9-6.7.5a36.66,36.66,0,0,0-6.1-10.7,4.86,4.86,0,0,0-5.8-.9c-.5-.8-.9-1.6-1.4-2.4a4.91,4.91,0,0,0-4.7-2.3,18.12,18.12,0,0,1-4.5-6.5c-1.4-3.3-5.2-3.1-7.4-1.1a189.61,189.61,0,0,1-18.6-14.9,4.48,4.48,0,0,0-6.4-.3l-.3.3v-.3a10.1,10.1,0,0,0-1.2-3.3,12.19,12.19,0,0,0-3.6-4.8c-2.8-2.2-8.3-1.4-8.5,2.8A99.55,99.55,0,0,1,323,418a5.24,5.24,0,0,0-7.4.6,3,3,0,0,0-.5.7,5.48,5.48,0,0,0-4.5.8c-.3-.6-.5-1.1-.8-1.7a24.16,24.16,0,0,0-2.7-3.6,4.89,4.89,0,0,0-3.8-1.4,5.35,5.35,0,0,0-3.2-2.1c-1.1-4.7-8.4-4.7-9.7,0a3.1,3.1,0,0,0-1.3.6,21.1,21.1,0,0,1-4.6,2.1,6.81,6.81,0,0,0-1.6-5.8c-3.1-3.3-8.5-1.8-12.3-1-2.1.4-4,1-5.7-.4s-2-3.3-4.2-4.3a10.27,10.27,0,0,0-6.7-.4c-.2-3.4-4.1-6.2-7.5-4.2l-11.4,6.7a4.84,4.84,0,0,0-6.3-2.8,3.86,3.86,0,0,0-1.7,1.1c-1.9,1.8-3.9,3.5-5.9,5.2a4.9,4.9,0,0,0-4.7,0,320.92,320.92,0,0,0-52.1,31.5,5.14,5.14,0,0,0-2.1,5,5.59,5.59,0,0,0-3.4,5.6l-9-.6c-5.8-.5-6.6,8.3-1.3,9.8,4.1,1.2,8.2,2.4,12.4,3.7a4.9,4.9,0,0,0,4,1.3l.2.1a10,10,0,0,0,9.9,2.3,4.88,4.88,0,0,0,3.4-6c0-.1-.1-.3-.1-.4l3-.1c.4,0,.9-.1,1.3-.1a3.91,3.91,0,0,0,3.5-3.9,11.23,11.23,0,0,0,2-1.8l1.9-.3a4.84,4.84,0,0,0,5.5.5l7.6-4.1a4.53,4.53,0,0,0,5.6,3.1,3.1,3.1,0,0,0,1.3-.6c1.6-.9,3.1-1.9,4.6-2.8,2.3,0,4.7,0,7-.2a13.78,13.78,0,0,0,7.2-1h.1l9.4,2.5a5,5,0,0,0,6.1-3.7,4.87,4.87,0,0,0,.1-1.2,4,4,0,0,0,4.8,1.4,5,5,0,0,0,6,.9c1.5-.8,3.1-1.7,4.6-2.6a6.55,6.55,0,0,0,1.8,1.5l10,4.9a5,5,0,0,0,5.7-.7,50.81,50.81,0,0,0,13.5-.6c.2,0,.3-.1.5-.1a46.06,46.06,0,0,0,12.2,4.5,5,5,0,0,0,5.6-2.7l1.1.7a50.71,50.71,0,0,0,8,8.7,5.74,5.74,0,0,0,4.9,1,9.94,9.94,0,0,0,5.8,3.8,8.27,8.27,0,0,0,5.8-.8,21.11,21.11,0,0,0,1.8,2.7,6.15,6.15,0,0,0,6.1,2.1,8.15,8.15,0,0,0,8.8,1.5,7.17,7.17,0,0,0,4.7,2.4,6.41,6.41,0,0,0,3.8-.8h.4c.3.3.5.6.8.9,3.3,3.2,6.5,3,9.9,1.5,1.9,1,3.7,3.1,5.1,4.2l5.2,4.3,11.2,9.2c3.3,2.7,8.5,1.1,8.5-3.5l.1-4.6a6.6,6.6,0,0,0,1.4.1l.5,1.3c1.8,4.6,7.9,4.9,9.6,0,.2-.5.3-1.1.5-1.7.4.6.7,1.1.8,1.2a35.16,35.16,0,0,1,2.7,6.3,5,5,0,0,0,6.3,3.4,4.45,4.45,0,0,0,2.1-1.2,15.17,15.17,0,0,0,4.6-8.6A5.36,5.36,0,0,0,422.78,480.9Z"/>
      <path id="right-eyebrow" class="cls-6" d="M701.58,483.9c-1.8-4.2-3.8-8.3-5.9-12.4s-3.9-8.2-7.8-10.8a86.49,86.49,0,0,1-11-8.1c-3.5-3.1-7-6.1-11.4-8a20,20,0,0,0-11.6-1.6c-4.6.9-7.1,3.7-10.5,6.5-4,3.2-6.7.3-10.4-1.4s-7.7-2-11.2.1c-3.2,1.9-5,5.5-8.2,7.2-4,2.2-9.2,1.8-13.7,2.1-9.7.8-18.3,5.2-28,6.1a42.38,42.38,0,0,0-13.2,3.6c-4.5,1.9-8.9,2-13.5,3.1a15.43,15.43,0,0,0-5.8,2.7,5.24,5.24,0,0,0-1.1,1c-.9.3-1.8.6-2.7,1-2-.5-3.7-.8-5.8.2-1.8.9-2.5,2.7-4,3.9-3.3,2.6-7.8,2.5-11,5.7a17.55,17.55,0,0,0-2.4,3,20.29,20.29,0,0,0-2.6,1.1,5.87,5.87,0,0,0-3,1.6,26.68,26.68,0,0,0-4.7,3.6,3.4,3.4,0,0,0-1-.1c-1-3-5.2-4.5-7.1-1-.2.4-.5.8-.7,1.2-.7.7-1.3,1.4-1.9,2.1l-.7.5a10.93,10.93,0,0,1-1.5.8c-1.9.8-3.6,2.9-2.9,5a34.22,34.22,0,0,0-2.7,6.2c-1.3,3.8,4,6.8,6.7,3.9.4-.5.8-.9,1.2-1.4a4,4,0,0,0,5.6.9,4.26,4.26,0,0,0,1.1-1.2l1.3-2.2a4.62,4.62,0,0,0,2.6-.4,5.28,5.28,0,0,0,0,2.5,58,58,0,0,0-2,6.3c-1.7,6,7.1,8.6,9.4,3.4a5.78,5.78,0,0,0,4.9,1.1,5.41,5.41,0,0,0,6.2,4.4,6.47,6.47,0,0,0,1.3-.4c11.7-5.5,24.3-8.3,37.1-10.3a4.86,4.86,0,0,0,6.3-.4,5.72,5.72,0,0,0,.8-.7l6.5-.9a3.86,3.86,0,0,0,3.6-4.2v-.3a88.39,88.39,0,0,1,14.4-3.3,185.27,185.27,0,0,1,30.7-2.6,197,197,0,0,1,57.1,8.1,4.74,4.74,0,0,0,3.8,1.9c4.4.2,8,3.3,12.5,1.6a7.57,7.57,0,0,0,1.8-.9,2.92,2.92,0,0,0,.2.9,4,4,0,0,0-.9,2.5l.2,1.1h0a4.19,4.19,0,0,1,1.4.9l.2.2a9.23,9.23,0,0,1,2.5.9,27.15,27.15,0,0,1,2.8.1.78.78,0,0,0,.4-.4,2.58,2.58,0,0,0,.8-1.3,3.08,3.08,0,0,0,.3-1.3,4.19,4.19,0,0,0,.4-1.5,4.86,4.86,0,0,0,1.7-3.31C707.58,502.4,705.38,492.9,701.58,483.9Z"/>
    </g>
    <g id="eyebrows-up">
      <path id="left-eyebrow-up" class="cls-7" d="M424.38,454.1c-2.1-3.2-4.7-6.1-7.8-7.2s-5.1-.4-6.6,1.2a39.25,39.25,0,0,0-7.1-10.1,5,5,0,0,0-5.9-.3c-.5-.8-1.1-1.5-1.6-2.3a5,5,0,0,0-4.9-1.9,17.73,17.73,0,0,1-5.1-6.1c-1.7-3.2-5.4-2.6-7.5-.4A175.13,175.13,0,0,1,358,413.9a4.47,4.47,0,0,0-6.4.3c-.1.1-.2.2-.2.3v-.3a10.36,10.36,0,0,0-1.5-3.2,11.29,11.29,0,0,0-4-4.4c-3-1.9-8.4-.6-8.2,3.6a97.11,97.11,0,0,1-18.5-9.3,5.19,5.19,0,0,0-7.3,1.3,5.58,5.58,0,0,0-.5.8,5.41,5.41,0,0,0-4.4,1.3,14,14,0,0,0-1-1.6,23.52,23.52,0,0,0-3-3.3,4.6,4.6,0,0,0-3.9-1,5.68,5.68,0,0,0-3.4-1.8c-1.5-4.5-8.8-3.8-9.6.9a4.73,4.73,0,0,0-1.2.7,24.25,24.25,0,0,1-4.4,2.6,6.83,6.83,0,0,0-2.1-5.6c-3.4-3-8.6-1-12.4.2-2,.6-3.9,1.4-5.7.1s-2.3-3.1-4.5-3.9a10.94,10.94,0,0,0-6.7.2c-.5-3.4-4.7-5.8-7.9-3.4l-10.7,7.7a4.85,4.85,0,0,0-6.5-2.2,4,4,0,0,0-1.6,1.3c-1.7,2-3.5,3.9-5.4,5.8a5,5,0,0,0-4.7.5,327.56,327.56,0,0,0-48.8,36.4,5.12,5.12,0,0,0-1.6,5.2,5.44,5.44,0,0,0-2.8,5.9c-3,.1-6,.2-9,.2-5.8.1-5.8,8.9-.4,9.9,4.2.8,8.4,1.6,12.7,2.5a4.72,4.72,0,0,0,4.1.9l.3.1a9.74,9.74,0,0,0,10.1,1.3,4.87,4.87,0,0,0,2.8-6.3c0-.1-.1-.2-.2-.4l3-.4a6.11,6.11,0,0,0,1.3-.3,3.85,3.85,0,0,0,3.1-4.2,10.71,10.71,0,0,0,1.8-1.9l1.9-.4a5,5,0,0,0,5.5,0l7.2-4.8a4.51,4.51,0,0,0,5.8,2.6,3.53,3.53,0,0,0,1.3-.8c1.5-1.1,2.9-2.2,4.3-3.3q3.45-.3,6.9-.9a13,13,0,0,0,7-1.7h.1l9.6,1.6a5,5,0,0,0,5.7-4.3,2.44,2.44,0,0,0,0-1.2,4,4,0,0,0,4.9.9,5,5,0,0,0,6.1.3c1.5-1,2.9-2,4.3-3a4.64,4.64,0,0,0,2,1.3l10.4,3.9a5,5,0,0,0,5.6-1.3,47.29,47.29,0,0,0,13.4-2c.2,0,.3-.1.5-.2a46,46,0,0,0,12.6,3.3,4.93,4.93,0,0,0,5.3-3.2l1.1.6a50.75,50.75,0,0,0,8.8,7.9,5.85,5.85,0,0,0,5,.5,9.86,9.86,0,0,0,6.2,3.2,7.69,7.69,0,0,0,5.7-1.4,24.33,24.33,0,0,0,2,2.5,5.92,5.92,0,0,0,6.3,1.5,8.22,8.22,0,0,0,8.9.6,7.33,7.33,0,0,0,4.9,1.9,6.28,6.28,0,0,0,3.7-1.2h.4a6.47,6.47,0,0,0,.9.8c3.6,2.8,6.8,2.4,10,.5,2,.8,4,2.7,5.5,3.7l5.6,3.7,12,8c3.5,2.3,8.5.2,8.1-4.4l-.4-4.6a6.15,6.15,0,0,0,1.4-.1l.6,1.2c2.3,4.4,8.4,4.1,9.6-.9q.15-.75.3-1.8c.4.6.8,1,.9,1.2a35.06,35.06,0,0,1,3.3,6,5.12,5.12,0,0,0,6.6,2.8,5.22,5.22,0,0,0,1.9-1.4,15.82,15.82,0,0,0,3.8-9C432.58,454.6,427.38,452.5,424.38,454.1Z"/>
      <path id="right-eyebrow-up" class="cls-7" d="M708.38,485.9c-1.1-4.5-2.4-8.8-3.9-13.2s-2.6-8.7-6-11.8a87.93,87.93,0,0,1-9.6-9.7c-3-3.6-6-7.1-10-9.7a20.21,20.21,0,0,0-11.2-3.4c-4.7.1-7.6,2.5-11.4,4.8-4.4,2.5-6.6-.7-10.1-3s-7.3-3.2-11.1-1.6c-3.5,1.4-5.8,4.6-9.3,5.9-4.3,1.6-9.4.3-13.8,0-9.7-.7-18.9,2.3-28.6,1.7a42.52,42.52,0,0,0-13.7,1.6c-4.7,1.2-9.1.6-13.8,1a17,17,0,0,0-6.2,1.8c-.4.2-.8.5-1.3.8a23,23,0,0,0-2.8.6c-1.9-.8-3.5-1.4-5.7-.7-1.9.6-2.9,2.3-4.5,3.2-3.7,2-8.1,1.3-11.7,3.9a17.27,17.27,0,0,0-2.8,2.6,28.64,28.64,0,0,0-2.8.7,5.39,5.39,0,0,0-3.2,1.1,37.38,37.38,0,0,0-5.2,2.8c-.3-.1-.6-.2-1-.3-.5-3.1-4.5-5.2-6.9-2.1a9,9,0,0,1-.9,1,12.39,12.39,0,0,0-2.2,1.8l-.7.4c-.5.2-1.1.4-1.6.6-2,.5-4,2.3-3.6,4.5a34.13,34.13,0,0,0-3.6,5.7c-1.8,3.5,2.9,7.3,6,4.9.5-.4.9-.8,1.4-1.2a4,4,0,0,0,5.4,1.8,4.12,4.12,0,0,0,1.3-1l1.6-2a3.87,3.87,0,0,0,2.6,0,5.07,5.07,0,0,0-.4,2.4,64.47,64.47,0,0,0-2.9,5.9c-2.6,5.7,5.7,9.6,8.7,4.8a5.45,5.45,0,0,0,4.6,1.8,5.38,5.38,0,0,0,5.5,5.3,5.07,5.07,0,0,0,1.3-.2c12.4-3.7,25.3-4.5,38.2-4.5a4.87,4.87,0,0,0,6.3.6,8.79,8.79,0,0,1,1-.6l6.6.1a3.9,3.9,0,0,0,4.2-3.5v-.4a104.2,104.2,0,0,1,14.8-1.1,195.29,195.29,0,0,1,85.9,18.9,4.68,4.68,0,0,0,3.4,2.4c4.3.8,7.4,4.5,12.1,3.5a13.89,13.89,0,0,0,1.9-.6,2.77,2.77,0,0,0,.1.9,3.11,3.11,0,0,0-.7.9,3.39,3.39,0,0,0-.6,1.5v1.1h0a4.26,4.26,0,0,1,1.2,1.1c.1.1.1.2.2.2a7.28,7.28,0,0,1,2.3,1.3,25.58,25.58,0,0,1,2.7.5c.2-.1.3-.2.5-.3a3.46,3.46,0,0,0,1-1.1,2.11,2.11,0,0,0,.5-1.3,6.11,6.11,0,0,0,.7-1.4,5.08,5.08,0,0,0,2.2-3C711.48,505.1,710.68,495.3,708.38,485.9Z"/>
    </g>
    <g id="close-eyes">
      <path id="right-eye-close" class="cls-8" d="M635.68,584a23.35,23.35,0,0,1,2.5-.7c5.7-3.7,11.9-6.6,17.5-10.5.7-.5,1.4-1,2-1.5a4.37,4.37,0,0,0-.7-2.1,10.22,10.22,0,0,0,4.2-2.5c1.4-1.4,3-7.7,4.5-8,3.8-.8,4.6-5.8,2.2-8.3a35.21,35.21,0,0,0-7.2-5.5,4.77,4.77,0,0,0-2.3-5.1l-.8-.5a5.2,5.2,0,0,0-3.4-5.3l-14.8-5.6c1.2-.1,2.5-.1,3.7-.1a4.71,4.71,0,0,1-1.5-.6c-1.7-1-2.9-2.6-4.4-3.7a29.46,29.46,0,0,0-14.2-5.4,2.57,2.57,0,0,1-2.4-2c-8.1-1.3-16.6-.5-24.7.7-4.6.7-9.2,1.7-13.8,2.6s-9,1.8-13.4,3.6c-1.6.6-3.2,1.3-4.7,2-2.2,3.6-6.8,4.2-10.5,5.5-4.2,1.6-8.5,3.2-12.3,5.7-.9.6-1.7,1.2-2.5,1.8-.1.1-.2.3-.3.4h0v.1c0,.4-.1.5-.1,0v.9c.2,1.3-1.2,2.4-2.4,2.4a2,2,0,0,1-.9-.2,59.51,59.51,0,0,1-7.1,7.1,53,53,0,0,0-5.1,7.3c-.2.4-.4.7-.6,1.1a4.52,4.52,0,0,1,2.6-.9,51.3,51.3,0,0,0,11.7-2.1l1.2-.9a16,16,0,0,1,.5-2.1,4.38,4.38,0,0,1,.7-1.9c5.9-13.8,26.6-18.6,39.7-20.9a160.43,160.43,0,0,1,30.9-2.5c7.9.2,16.3.7,23.5,4a4.17,4.17,0,0,1,2.4,2.5,51.12,51.12,0,0,1,6.3,5.2c.8.5,1.6,1.1,2.4,1.7a21.26,21.26,0,0,1,3.8,4.2,16.32,16.32,0,0,0,2,1.7c3.2,2.7,7,5.9,7.1,10.4.1,4.8-3.5,8-7.3,10.4a4.61,4.61,0,0,1-2.3,1.6,5.24,5.24,0,0,0,1,1.1,138.39,138.39,0,0,1-56.4,11,15.52,15.52,0,0,0,2.1-.4c-6,0-12.2-1.5-18.4-2.4.3.2.7.3,1,.5a27.64,27.64,0,0,0,5.3,1.8,137.88,137.88,0,0,1-45.7-11.9,4.76,4.76,0,0,1-3.8-.9,28.27,28.27,0,0,1-7.7.3h-.1a6.75,6.75,0,0,1-1.4-.2c-.2,0-.4-.1-.6-.1.4.9.9,1.8,1.3,2.7a4.67,4.67,0,0,0,.5,1c.1.2.2.3.2.5a6.73,6.73,0,0,1,.7,1.1,3.18,3.18,0,0,0,.9.3v.4c7,2,13.4,5.6,20.1,8.5,1.7.7,3.5,1.4,5.2,2a4.28,4.28,0,0,0-1.5-1.8,148,148,0,0,0,67.1,4.7,83.13,83.13,0,0,0,13-3.5C632.78,581.7,634.58,582.5,635.68,584Z"/>
      <g id="left-eye-close">
        <path class="cls-8" d="M369.68,512.1c-27.2-21.2-62-25.1-95.3-28a3.36,3.36,0,0,0-3.8,2.8v.2c-15.7.8-29.6,7.9-43.2,15.4a4.49,4.49,0,0,0-2,6c0,.1.1.1.1.2l-1.3.3v.1a21.75,21.75,0,0,1,.1,2.5,36.32,36.32,0,0,1,4.5-1,23.48,23.48,0,0,1,6.5-.3h.2a1.27,1.27,0,0,1,.6.1,1.77,1.77,0,0,1,1.4.9h1.1c.1-.1.2-.1.3-.2,4.2-2,8.5-2.4,13-2.4,3.1-6.5,11.1-9.4,18.9-11.1a23.76,23.76,0,0,1,6.7-2h-2.8a4.71,4.71,0,0,0,1.4-3.3c30.4,2.7,63.2,6.2,88,25.5a4.76,4.76,0,0,0,1.8.8,4.87,4.87,0,0,1,1.2.1C370.08,518.4,372.78,514.5,369.68,512.1Z"/>
        <path class="cls-8" d="M350.08,566.5a3.83,3.83,0,0,0,3.8-4c.7-.2,1.4-.4,2-.6a4.3,4.3,0,0,0,5.5,2.2,65.07,65.07,0,0,0,15-7.3,5.22,5.22,0,0,0,1.7-6.7c1.9-2.2,2.1-5.6-1.2-7.2a67.64,67.64,0,0,1-10.1-5.8c-3.8-2.4-7.1-5.7-10.4-8.6a2.65,2.65,0,0,1-.5-.6,15.88,15.88,0,0,0-6.5.1,2.38,2.38,0,0,1-.9,1.3c1.2.4,2.5.8,3.7,1.3v.1a4.7,4.7,0,0,0-.3,7.1,69.2,69.2,0,0,0,15.8,11.6,25,25,0,0,0-3.5,2.1,4.74,4.74,0,0,0-1,1c-.4.2-.9.4-1.3.6a3.07,3.07,0,0,0-2.4-.8c-16.8,1.1-33.6,1.6-50.4,1.6l-3.8-.6c.2-.1.4-.3.6-.4a5.08,5.08,0,0,1-1.8-.9c-6.4.9-12.9.2-19.3-1a37.52,37.52,0,0,1-7.7-1.3,4.89,4.89,0,0,1-3.5,1.4,5.26,5.26,0,0,1-2.6-.6c-2.7-.1-5.4-.3-8.1-.5a109.11,109.11,0,0,1-29.5-15.3,3.26,3.26,0,0,0-4.6.4c-.2-.2-.3-.4-.6-.5a18.48,18.48,0,0,1,7.4-4.9,5.09,5.09,0,0,0,3.5-6.1,11.13,11.13,0,0,1-1.7-5.6,8.81,8.81,0,0,1,.2-1.7c-4.2,0-8.4,0-12.6.4a34.18,34.18,0,0,0-4.3,2.1c-.1.1-.1.2-.2.3-.9,1.4-1.9,2.9-2.7,4.4l-.3.6a1,1,0,0,0-.1.3,1,1,0,0,1-.1.3c-.1.2-.1.4-.2.6-.1.4-.2.7-.3,1.1v.7a2,2,0,0,1-.6,1.5v.9l1.3-.7a4.18,4.18,0,0,0,1-.4,8.33,8.33,0,0,0,1.5.4c-.2.2-.4.5-.6.7A6.36,6.36,0,0,0,218,533c5.6,4.5,9.7,10.8,15,15.7a76,76,0,0,0,13.2,9.2,174,174,0,0,0,25.1,3.2C297,567.3,324.18,567.2,350.08,566.5Z"/>
      </g>
    </g>
    <g id="eyes">
      <g id="right-eye">
        <g id="eyeball-right">
          <path class="cls-9" d="M612.28,541.4a26.7,26.7,0,0,1-6-6.1,24.2,24.2,0,0,0-5.7-3.1c.3,0,.5-.1.8-.1-6.3-3.8-14.7-2.6-21.6-1.1-3.7.8-7.6,1.6-10.8,3.7a51.94,51.94,0,0,0-4.6,3.6c-.1.2-.3.5-.4.7-.4.6-.8,1.1-1.2,1.7,1.3-.5,2.6-.9,3.9-1.4a22.61,22.61,0,0,0-1.6,2.6,4.59,4.59,0,0,0-2.8,1.7c-10.1,12.3,2.6,29.1,14.4,34.4,14.7,6.6,29.7.1,36.9-13.9A21.69,21.69,0,0,0,612.28,541.4Z"/>
          <circle class="cls-10" cx="599.68" cy="556.3" r="42.2"/>
        </g>
        <path id="light-right2" class="cls-11" d="M632.1,557.55c0-.07,0-.14,0-.21v-1a4.32,4.32,0,0,0-2.76-4.11,3.47,3.47,0,0,0-1.74-.39l-1.19.16a4.56,4.56,0,0,0-2,1.16c-.23.31-.47.61-.7.91a4.53,4.53,0,0,0-.62,2.27v.17a4.28,4.28,0,0,0-2.43-.7c-5.74,0-5.79,8.82-.15,9a4.33,4.33,0,0,0,8.23,0C632.79,564.67,633.9,560.13,632.1,557.55Z"/>
        <path id="light-right" class="cls-11" d="M585.88,545.5a4.1,4.1,0,0,0-4.9-2.8,7.4,7.4,0,0,1-5.9-1.5c-1.8-1.3-4.4-.3-5.5,1.4a4,4,0,0,0,.9,5,2.34,2.34,0,0,0,1,1.6c-.3.5-.5,1-.8,1.5-.1.2-.1.3-.2.5a1.1,1.1,0,0,0,0,.8.9.9,0,0,0,.1.5c.1.2.2.5.4.6s.3.2.4.3.3.1.5.2a1.1,1.1,0,0,0,.8,0,1.45,1.45,0,0,0,.7-.2,2.09,2.09,0,0,1,.6-.4c.1,0,.3-.1.4-.1h.2a2,2,0,0,0,1.4-.6,2.09,2.09,0,0,0,.4-.6,1.88,1.88,0,0,0,.2-.8.75.75,0,0,0-.1-.5h0a17.75,17.75,0,0,0,6.5,0A4.13,4.13,0,0,0,585.88,545.5Z"/>
        <path class="cls-12" d="M667.78,550.1a35.21,35.21,0,0,0-7.2-5.5,4.77,4.77,0,0,0-2.3-5.1l-.8-.5a5.2,5.2,0,0,0-3.4-5.3l-14.8-5.6c1.2-.1,2.5-.1,3.7-.1a4.71,4.71,0,0,1-1.5-.6c-1.7-1-2.9-2.6-4.4-3.7a29.46,29.46,0,0,0-14.2-5.4,2.57,2.57,0,0,1-2.4-2c-8.1-1.3-16.6-.5-24.7.7-4.6.7-9.2,1.7-13.8,2.6s-9,1.8-13.4,3.6c-1.6.6-3.2,1.3-4.7,2-2.2,3.6-6.8,4.2-10.5,5.5-4.2,1.6-8.5,3.2-12.3,5.7-.9.6-1.7,1.2-2.5,1.8-.1.1-.2.3-.3.4h0v.1c0,.4-.1.5-.1,0v.9c.2,1.3-1.2,2.4-2.4,2.4a2,2,0,0,1-.9-.2,59.51,59.51,0,0,1-7.1,7.1,53,53,0,0,0-5.1,7.3c-1,1.7-1.9,3.3-2.9,4.9.4.5.7,1.1,1.1,1.6,1.4,2.5,2.6,5.2,3.9,7.7a6.73,6.73,0,0,1,.7,1.1,3.18,3.18,0,0,0,.9.3,2.44,2.44,0,0,0,0,1.2h0l.3.6a4.1,4.1,0,0,1,.1,1.1,9.62,9.62,0,0,0,4.2,5.1c4.6,3.2,9.3,6.3,14,9.4a3.94,3.94,0,0,0,3.9.6,3.74,3.74,0,0,0,1.5,1.3c16.4,8.5,34.9,8.2,52.9,7.7,8.9-.3,17.6-1.2,25.8-5.1,6.7-3.2,12.5-7.8,18.1-12.7a3.49,3.49,0,0,0,2.7-2.4l1.6-1.4c2.8-2.5-.2-8.2-3.9-6.7a7.89,7.89,0,0,0-4.3,3.3c-5.2,4.6-10.6,9-16.7,12.2-7.9,4.1-16.4,4.6-25,4.8-15.9.5-32.6.9-47.1-6.6a4.42,4.42,0,0,0-2.2-.5,4.54,4.54,0,0,0-2.2-3.2l-7.8-5.2-3.6-2.4-1.5-1c1.9-4-2.7-7.6-6.4-6.4a4.3,4.3,0,0,0-.9-1,73,73,0,0,1,11.5-12.7c7.4-6.2,16.2-10.4,25.3-13.4a.1.1,0,0,1-.1.1,52.26,52.26,0,0,1,13.2-3.4,15.52,15.52,0,0,1,2.1-.4c6.3-2.5,12.6-4.6,19.1-3.4,4.2-.6,8.5-1,12.7-1.5-2.3,2.6-2.2,7.2,2.1,7.8,7.6,1.1,17.5,2.5,23.6,7.6,5.5,4.5,6.2,12.5,6.8,19.1a5.08,5.08,0,0,0,5,5c3.6,0,7.1-.5,9.8-3.2,1.4-1.4,3-7.7,4.5-8C669.38,557.7,670.18,552.7,667.78,550.1Zm-12.4,6.2c-.3-1.4-.6-2.8-.9-4.1.7.5,1.4.9,2.1,1.4A16,16,0,0,0,655.38,556.3Z"/>
      </g>
      <g id="left-eye">
        <g id="eyeball-left">
          <circle class="cls-10" cx="304.68" cy="529.6" r="42.2"/>
          <path class="cls-9" d="M315.28,516.7a26.7,26.7,0,0,1-6-6.1,24.2,24.2,0,0,0-5.7-3.1c.3,0,.5-.1.8-.1-6.3-3.8-14.7-2.6-21.6-1.1-3.7.8-7.6,1.6-10.8,3.7a51.94,51.94,0,0,0-4.6,3.6c-.1.2-.3.5-.4.7-.4.6-.8,1.1-1.2,1.7,1.3-.5,2.6-.9,3.9-1.4a22.61,22.61,0,0,0-1.6,2.6,4.59,4.59,0,0,0-2.8,1.7c-10.1,12.3,2.6,29.1,14.4,34.4,14.7,6.6,29.7.1,36.9-13.9A21.46,21.46,0,0,0,315.28,516.7Z"/>
        </g>
        <path id="light-left2" class="cls-11" d="M334.79,538.54a4.55,4.55,0,0,0-4.5-4.5,4.46,4.46,0,0,0-1,.15,4.17,4.17,0,0,0-3-1.14,4.27,4.27,0,0,0-4.34,4.6,4.14,4.14,0,0,0-1.5,1.72c-3.83,1.7-3.21,8.62,1.88,8.62a4.05,4.05,0,0,0,3.84-2.36l.14-.07a3.3,3.3,0,0,0,.66,1l.05.06.05.06a1.27,1.27,0,0,0,.13.11,4,4,0,0,0,2.11,1.12,3.66,3.66,0,0,0,.94.09,4.19,4.19,0,0,0,2.94-1.1l.25-.22,0,0,.11-.15.55-.71a4.42,4.42,0,0,0,.61-2.27v-1a4.43,4.43,0,0,0,0-.63c0-.12,0-.23,0-.36Z"/>
        <path id="light-left" class="cls-11" d="M288.38,524.1l-.6-3.6a1.86,1.86,0,0,0-.9-1.2,1.63,1.63,0,0,0-1.5-.2,2.07,2.07,0,0,0-1,.6,2.39,2.39,0,0,0-.9-.2h-5.3a2.45,2.45,0,0,0-1.2.4,1.27,1.27,0,0,0-.6.1,1.86,1.86,0,0,0-1.2.9,2.3,2.3,0,0,0-.2,1.4,4.33,4.33,0,0,0-.1.5v1.8a1.2,1.2,0,0,0,.2.8c.1.2.2.3.3.5a1.39,1.39,0,0,0,0,.9,2,2,0,0,0,2.5,1.4l7.6-1.8h0a1.63,1.63,0,0,0,1.5.2,2.26,2.26,0,0,0,1.2-.9c.1-.2.1-.3.2-.5A2,2,0,0,0,288.38,524.1Z"/>
        <path id="skin" class="cls-11" d="M357.58,504.4c-12.1-5.6-24.6-13.3-39.1-14.5-14.1-1.2-28.9.2-42.9,1.6-17.3,1.7-17.5,22.2,0,20.4a312,312,0,0,1,33.5-1.9c13.2.1,23.7,6.9,34.6,12C358.78,529,372.58,511.3,357.58,504.4Z"/>
        <g>
          <path class="cls-12" d="M328.38,562.7a154,154,0,0,1-83-3.3,3.32,3.32,0,0,0-1.6-1.7l-.3-.2c0-.1-.1-.2-.1-.4a2.61,2.61,0,0,0-.3-.8,4.22,4.22,0,0,0-1.3-4.9,58.6,58.6,0,0,1-12-15.6,5.09,5.09,0,0,0-1.3-1.6,18.48,18.48,0,0,1,7.4-4.9,5.09,5.09,0,0,0,3.5-6.1,11.13,11.13,0,0,1-1.7-5.6,8.81,8.81,0,0,1,.2-1.7c-4.2,0-8.4,0-12.6.4a34.18,34.18,0,0,0-4.3,2.1c-.1.1-.1.2-.2.3-.9,1.4-1.9,2.9-2.7,4.4l-.3.6a1,1,0,0,0-.1.3,1,1,0,0,1-.1.3c-.1.2-.1.4-.2.6-.1.4-.2.7-.3,1.1v.7a2,2,0,0,1-.6,1.5v.9l1.3-.7a4.18,4.18,0,0,0,1-.4,8.33,8.33,0,0,0,1.5.4c-.2.2-.4.5-.6.7-1.7,2.1-2.1,5,0,7.1a4.44,4.44,0,0,0,1.1.8,5.06,5.06,0,0,0,.3,4,68.7,68.7,0,0,0,13.5,17.7,5.5,5.5,0,0,0,.9.7,8,8,0,0,0,4.1,5.4l.2.1a3.49,3.49,0,0,0,2.5,2.2,161,161,0,0,0,75.5,6c0,2.4,1.9,4.8,4.8,3.7a20.24,20.24,0,0,0,10.2-8C335,565.5,331.68,561.9,328.38,562.7Z"/>
          <path class="cls-12" d="M369.58,511.9c-27.2-21.2-62-25.1-95.3-28a3.36,3.36,0,0,0-3.8,2.8v.2c-15.7.8-29.6,7.9-43.2,15.4a4.49,4.49,0,0,0-2,6c0,.1.1.1.1.2l-1.3.3v.1a21.75,21.75,0,0,1,.1,2.5,36.32,36.32,0,0,1,4.5-1,23.48,23.48,0,0,1,6.5-.3h.2a1.27,1.27,0,0,1,.6.1,1.77,1.77,0,0,1,1.4.9h1.1c.1-.1.2-.1.3-.2,5.7-2.7,11.7-2.5,17.7-2.4a46.85,46.85,0,0,1,5.3,0,2.27,2.27,0,0,1,2.5-.1,2.58,2.58,0,0,1,.9.9c.3-.1.5-.2.8-.3a86.55,86.55,0,0,1,13.3-2.5,83.69,83.69,0,0,1,23.8-2,65,65,0,0,1,6.6.8,4.8,4.8,0,0,0-2.8-6,.9.9,0,0,0-.5-.1,106.3,106.3,0,0,0-31.8-3.9A4.71,4.71,0,0,0,276,492c30.4,2.7,63.2,6.2,88,25.5a4.76,4.76,0,0,0,1.8.8,4.87,4.87,0,0,1,1.2.1C370.08,518.2,372.68,514.3,369.58,511.9Z"/>
          <path class="cls-12" d="M376.88,542.7a67.64,67.64,0,0,1-10.1-5.8c-3.8-2.4-7.1-5.7-10.4-8.6a2.65,2.65,0,0,1-.5-.6,15.88,15.88,0,0,0-6.5.1,2.38,2.38,0,0,1-.9,1.3c1.2.4,2.5.8,3.7,1.3v.1a4.7,4.7,0,0,0-.3,7.1,69.2,69.2,0,0,0,15.8,11.6,25,25,0,0,0-3.5,2.1,4.74,4.74,0,0,0-1,1,36.56,36.56,0,0,1-4.6,1.8c-6.1,2.1-3.4,11.8,2.7,9.7a65.07,65.07,0,0,0,15-7.3,5.22,5.22,0,0,0,1.7-6.7C380,547.7,380.18,544.3,376.88,542.7Z"/>
        </g>
      </g>
    </g>
    <path id="glasses" class="cls-13" d="M772.68,543.3c-.2-.3-.3-.5-.5-.8a5.08,5.08,0,0,0-.3-1.7,38.52,38.52,0,0,0-4.5-8.8,224.87,224.87,0,0,0-17.3-27c-3.8-5.1-7.7-10-11.9-14.8-4.6-5.3-9.4-10.2-12.7-16.5h0c-.2.2-.3.4-.6.5,1.2,4.8.6,10-.1,14.9-.7,4.7-1.7,9.4-1.9,14.2l3.6,3.6h0a4.89,4.89,0,0,0,1.6,1.6,250,250,0,0,1,19.1,22.1c-8.7-1.8-17.4-3.7-26-6v-.1a49.94,49.94,0,0,1-5.1-1.6c-1-.3-1.9-.6-2.9-.9a8.33,8.33,0,0,1-1.5-.4c-.2,0-.4-.1-.6-.1a.76.76,0,0,1-.4-.1h-.1v.1c-1.2-.4-2.5-.8-3.7-1.2-2,0-3.8-.8-5.7-1.1a6.31,6.31,0,0,1-2.3-.8,5.24,5.24,0,0,1-1.1-1c-10.5-3.3-20.9-6.4-31.9-7.9-32.6-4.5-65.5.4-97.1,8.9-18.2,4.9-36.1,11-54,17a5.85,5.85,0,0,0-1.7,1,4.18,4.18,0,0,0-1-.4c-17.1-4.5-35.7-3.7-53.2-4.4-18.3-.8-36.8-2.2-54.9,1.6a6.47,6.47,0,0,0-1.3.4c-10.9-6.6-21.8-12.8-34.4-14.9a257,257,0,0,0-34.2-11,181.84,181.84,0,0,0-17.8-3.8c-3.6-.7-7.3-1.2-10.9-1.7a.9.9,0,0,0,.1-.5c-.6-.1-1.1-.3-1.6-.4a29.79,29.79,0,0,0-4.3-.9,40.48,40.48,0,0,0-5-.4c-12.5-.8-24.9-1.3-37.4-1.3a168.29,168.29,0,0,0-22.4,1.3,37.88,37.88,0,0,0-11.8,4.7,2.17,2.17,0,0,1-1.7.3v.1c-4.4.9-8.7,1.9-13,3a4,4,0,0,0-3.8-1.5l-39.6,4.3-19.3,2.1c-5.8.6-11.7.9-17.3,2.7a98,98,0,0,0-11.7-16.4c-12.3-14.5-21.9-29.5-27-48a4.56,4.56,0,0,0-2.7-3.2c-1.1-3.7-2.1-7.5-3-11.3a4.92,4.92,0,0,0-.6-2.9h0c-1.3-5.5-2.3-11.1-3.2-16.7a1.76,1.76,0,0,1-.5-.4l-.9-.9c-.1-.1-.3-.2-.4-.4a382755509170.44,382755509170.44,0,0,0-.2-.2,17.61,17.61,0,0,0-2.3-1.4l-1.2-.6c-.1,0-.1-.1-.2-.1s-.3-.1-.4-.2a21.72,21.72,0,0,0-2.4-.7,5.07,5.07,0,0,0-1.3-.2H68a6.15,6.15,0,0,0-1.1.3c-.2.1-.7.3-.1,0-.1.1-.3.1-.4.2s-.3.2-.5.3h-.1a4.35,4.35,0,0,0-.6.7c0,.1-.1.1-.1.2a.76.76,0,0,0-.2.4c0,.1-.1.1-.1.2s-.1.3-.2.5-.1.5-.2.8a.6.6,0,0,1-.1.4v1.3a2.27,2.27,0,0,1-.9,1.8c.1.4.3.8.4,1.2a1.42,1.42,0,0,0,.6-.2c.2-.1.3-.1.5-.2.7,7.9,1.4,15.8,2.2,23.7l.2,2.5a2.92,2.92,0,0,0,.2.9c.2,2.3.5,4.7.8,7,1.3,4.2,2.7,8.3,4.2,12.4a206.4,206.4,0,0,0,9.1,21.1c.9,1.6,1.9,3.1,2.9,4.7a2,2,0,0,1,1.4.6,19.17,19.17,0,0,1,1.8,2.2c.1-.4.1-.7.2-1.1,1.8,3.5,3.7,7,5.7,10.4,5.9,9.9,12.3,19.4,19.1,28.6a67.35,67.35,0,0,0,8.3,10.8c8,10,16.4,19.5,25.2,28.6a4.61,4.61,0,0,0,2.6,1.5,94.29,94.29,0,0,1,9.5,19.4c5.1,25.1,14.7,49.2,30.8,69.4,18.5,23.2,45,39.3,74.7,42.7,31.2,3.5,65.4-2.8,93.6-16.6.8-.4,1.5-.8,2.3-1.2a26.4,26.4,0,0,1,4.7-2.5c2.7-2.4,6.2-3.9,9.5-5.3,3.9-4.3,9-7.4,13.7-10.8a2.07,2.07,0,0,1,.6-1,4.23,4.23,0,0,1,.7-.5c0-.2-.1-.3-.1-.5a113.41,113.41,0,0,0,27.8-41.2,97.64,97.64,0,0,0,6-25.5,28,28,0,0,0-.1-20.9l-.3-.6a79.45,79.45,0,0,0-2-9.7c.2-.4.5-.9.7-1.3a14.56,14.56,0,0,1,3.4-3.6,4.33,4.33,0,0,1,.5.1,17,17,0,0,1,7.8-3.6c1-.2,2.1-.4,3.1-.5a.35.35,0,0,0,.2-.1c.7-.1,1.5-.1,2.2-.2a17.7,17.7,0,0,1,2.3-.1,5.39,5.39,0,0,0,2.1-.8,143.42,143.42,0,0,1,20.7.9,191.51,191.51,0,0,1,21.2,3.6c1.3.3,3.3.6,5.4,1.2a4.55,4.55,0,0,0,.6,3.6c2.2,3.6,2.1,7.9,2.4,12l.3,4.5a5.31,5.31,0,0,0-.7,3.5c.6,4.5,1.4,9,2.4,13.4,2.8,28.5,7.8,57.3,25.7,80.5a4.45,4.45,0,0,0,1.6,2.8c6.3,5.3,12.6,9.7,20.3,12.6,7.4,2.9,15.1,5.2,22.7,7.5,15.8,4.6,32.3,7.8,48.8,6.8s31.8-6.8,46.9-13.3c7.8-3.4,15.7-6.8,22.8-11.5l-.1.4c.4-.2.8-.5,1.2-.7a13.84,13.84,0,0,0,3.3-3.1,44.66,44.66,0,0,1,7.3-6.4,27.83,27.83,0,0,0,7.2-7.8,33.15,33.15,0,0,1,6.3-6.1h0c0-.11.1-.11.1-.2a2.92,2.92,0,0,1,.5-.61l.1-.1c.2-.1.4-.4.6-.5s.3-.1.4-.2a171.51,171.51,0,0,0,13.9-24.3c6.2-12.8,9.6-26.6,11.9-40.6a4.38,4.38,0,0,0,4.4-2.5c5.8-11.3,15.7-17.3,26-24,4-2.6,8-5.9,9.6-10.6C777.88,554.3,775.68,548.5,772.68,543.3Zm-608.1,4.1a15.36,15.36,0,0,1-11.3.8c-3-.9-10.1-3.9-6.6-6.8a4.09,4.09,0,0,0,3.5-1c.9-.2,1.8-.4,2.8-.6a43.59,43.59,0,0,1,7.2-.5c1.1,0,2.3.1,3.4.2a6.94,6.94,0,0,0,1.3.5,3.72,3.72,0,0,0,1,2.2,5.55,5.55,0,0,0,.4,4A12.49,12.49,0,0,1,164.58,547.4Zm243,73.5c-8.5,23.9-26.3,43.4-48.3,55.9-24.7,14-54,20-82.2,19.8-28.6-.2-54.3-11.7-74-32.4-18.1-19-29-43.6-34.6-69.1a4.92,4.92,0,0,0-.2-2.4,14.27,14.27,0,0,0-.8-2.2c-.2-1-.4-2-.6-2.9a5.37,5.37,0,0,0,.6-3.5c-1.3-7.3,2.5-14.3,6.2-20.4a105.25,105.25,0,0,1,12-16.1,114.7,114.7,0,0,1,14-13,85.75,85.75,0,0,1,7.9-5.5c1.3-.8,2.7-1.7,4.1-2.5l2.1-1.2h0a19.78,19.78,0,0,1,4.8-1.8c2.9-1.5,6.2-2,9.4-2.5.5-.1,1-.2,1.4-.3a54.42,54.42,0,0,1,5.2-1.9.1.1,0,0,0-.1-.1,1.7,1.7,0,0,0,.7-.1,13.28,13.28,0,0,1,4-.4l3.9-.3c6-.5,11.9-.8,17.9-1-.1.1-.1.2-.2.3a77.34,77.34,0,0,1,18-.5c4,0,8,.2,12,.4l-.2.2c8.3-1.1,17.3-.8,25.3,1.9,2.2.3,4.4.5,6.5.8h.7c7.6,1.9,15.1,4.1,22.4,6.7,6,.6,11.3,4.3,16.6,7.1-.7-.5-1.4-1-2-1.5a239.75,239.75,0,0,1,28.7,14.3c13.8,20.8,23.7,45.3,18.1,70.5A5.4,5.4,0,0,0,407.58,620.9Zm118.1-78.4c-.5.5-.9,1-1.4,1.5-.1-.2-.2-.5-.3-.7a.35.35,0,0,0-.1-.2Zm196.4,72.6-.3.1c-5.7,2.3-7.6,11.1-10.1,16.3-1.4,2.8-2.9,5.6-4.4,8.3,0-.2.1-.3.1-.5-1.1,1.9-2.5,3.6-3.7,5.5-1.7,2.7-3.5,5.3-5.1,8.1a33,33,0,0,1-2.8,3.5c-.8,1-.9,2.4-1.6,3.4a21.61,21.61,0,0,1-3.8,3.6,30.7,30.7,0,0,0-2.6,2.5c0,.2-.1.4-.1.7a82.07,82.07,0,0,1-18.8,13.8,4.14,4.14,0,0,0-2.3,2.7c-19.7,11.4-43,15.7-65.7,13.8a140.28,140.28,0,0,1-44-11.5,157.17,157.17,0,0,1-20.4-10.5c-6-3.6-11.9-7.4-15.7-13.3-.2-.3-.5-.6-.7-.9-9.8-24.7-17.3-52.5-6.6-77.9,2.5-4.8,5-9.5,7.9-14.1.1.1.3.1.4.2a19.28,19.28,0,0,1,1.9-3.8,34,34,0,0,1,2.3-3,.1.1,0,0,1-.1-.1,73,73,0,0,1,11.5-12.7c7.4-6.2,16.2-10.4,25.3-13.4-.1.1-.2.3-.3.4,3.1-1.1,6.3-1.9,9.5-2.7,1.6-.5,3.3-1,5-1.4a91.32,91.32,0,0,1,10.2-1.9c1.3-.3,2.6-.5,3.8-.7,1.9-.3,3.8-.5,5.8-.7a.1.1,0,0,1-.1-.1c4.2-.6,8.4-1,12.6-1.5a151.32,151.32,0,0,1,19-1.1l1.7-.3a55.09,55.09,0,0,1,5.7-.6l-.3-.1a185.73,185.73,0,0,1,36.5,1.7,125.09,125.09,0,0,1,36.8,11.5v.2a3,3,0,0,1,.7.5,12.09,12.09,0,0,1,1.6,1.6,8.64,8.64,0,0,1,1.4,1.3c1.1.9,2.2,1.7,3.3,2.7.5.5.9,1,1.4,1.5.2.2.5.4.7.6a7.09,7.09,0,0,1,2.2,3.7c.4.5.7,1.1,1.1,1.6,3.2,4.9,6.4,10,8.3,15.6.1.3.2.7.3,1C727.88,584,726.28,600,722.08,615.1Zm18.6-39.8h0a6.15,6.15,0,0,0-.1-1.3,4.87,4.87,0,0,0,1.2.1A12,12,0,0,0,740.68,575.3ZM763,561a40.47,40.47,0,0,1-3.4,2.3,5,5,0,0,0-3.2-.2,33.4,33.4,0,0,1-15.7.8,4.3,4.3,0,0,0-1.6,0,4.13,4.13,0,0,0-1.5-1.7c-1-2.4-2.1-4.7-3.3-7l.9-.3a56.43,56.43,0,0,1,12.7-4.5,10.07,10.07,0,0,1,2.5-.3h0c.2.2.4.5.6.7a5.19,5.19,0,0,0,4.9,1.2,13.19,13.19,0,0,1,5.4,3.9,4.52,4.52,0,0,0,4.8,1.2A8.72,8.72,0,0,1,763,561Z"/>
  </g>
</svg>
