<svg id="Layer_1" data-name="Layer 1" xmlns="http://www.w3.org/2000/svg" viewBox="0 0 304 304">
  <defs>
    <style>
      .backgroung {
        <!-- fill: #ee82ee;
        fill:var(bubble-color); -->
        opacity:.3
      }

      
      .line {
        fill: none;
        stroke: #050303;
        stroke-miterlimit: 10;
        stroke-width: 5px;
      }

      .bubble-body {
        <!-- fill: #ee82ee; -->
        <!-- fill:var(bubble-color); -->
        fill:url(#0);
        transition: fill .5s;
        stroke: #050303;
        stroke-width: 3px;
        stroke-miterlimit: 10;
        opacity:.3;
        
      }

      .bubble-turn{
        transform-origin:center;
      }

      .reflection {
        fill: #fff;
        fill-rule: evenodd;
        opacity:.4
      }
    </style>
    <radialGradient id="0" gradientTransform="translate(-0.15 -0.15) scale(1.34, 1.34)">
      <stop offset="15%" stop-color="#f7fafc"/>
      <stop offset="20.86%" stop-color="#f2f6fb"/>
      <stop offset="26.71%" stop-color="#edf2fa"/>
      <stop offset="32.57%" stop-color="#eaeef9"/>
      <stop offset="38.43%" stop-color="#e7e9f9"/>
      <stop offset="44.29%" stop-color="#e6e4fa"/>
      <stop offset="56%" stop-color="#e9d8fd"/>
      <stop offset="56.43%" stop-color="#e2d4fd"/>
      <stop offset="56.86%" stop-color="#dbcffc"/>
      <stop offset="57.29%" stop-color="#d2cbfc"/>
      <stop offset="57.71%" stop-color="#c9c8fb"/>
      <stop offset="58.14%" stop-color="#bec5fb"/>
      <stop offset="59%" stop-color="#a3bffa"/>
      <stop offset="59.43%" stop-color="#a0c1f9"/>
      <stop offset="59.86%" stop-color="#9dc3f8"/>
      <stop offset="60.29%" stop-color="#9ac5f7"/>
      <stop offset="60.71%" stop-color="#98c7f6"/>
      <stop offset="61.14%" stop-color="#95c9f6"/>
      <stop offset="62%" stop-color="#90cdf4"/>
      <stop offset="62.43%" stop-color="#80d7f3"/>
      <stop offset="62.86%" stop-color="#76dfee"/>
      <stop offset="63.29%" stop-color="#80e6e7"/>
      <stop offset="63.71%" stop-color="#89ece0"/>
      <stop offset="64.14%" stop-color="#92f2d9"/>
      <stop offset="65%" stop-color="#c6f6d5"/>
      <stop offset="65.43%" stop-color="#ccf8d1"/>
      <stop offset="65.86%" stop-color="#d2f9cd"/>
      <stop offset="66.29%" stop-color="#d9fac9"/>
      <stop offset="66.71%" stop-color="#e1fcc3"/>
      <stop offset="67.14%" stop-color="#e9fdbc"/>
      <stop offset="68%" stop-color="#fefcbf"/>
      <stop offset="68.57%" stop-color="#fef5d8"/>
      <stop offset="69.14%" stop-color="#fdf0da"/>
      <stop offset="69.71%" stop-color="#fdebd9"/>
      <stop offset="70.29%" stop-color="#fde6d8"/>
      <stop offset="70.86%" stop-color="#fde1d7"/>
      <stop offset="72%" stop-color="#fed7d7"/>
      <stop offset="72.57%" stop-color="#fbdedf"/>
      <stop offset="73.14%" stop-color="#f8e4e5"/>
      <stop offset="73.71%" stop-color="#f7eaeb"/>
      <stop offset="74.29%" stop-color="#f7f0f1"/>
      <stop offset="74.86%" stop-color="#f9f5f6"/>
      <stop offset="76%" stop-color="#ffffff"/>
    </radialGradient>
  </defs>
  <g id="bubbleSprit">
    <g id="explosion" class="bubble-part hide">
      <path class="backgroung" d="M130.64,240.12c13.78-75.58-10.29-110.49-85.6-96.84,0,0,54-9,4.55-37.43,67.2,36.64,101,11.07,111.72-65,0,0-3.86,49.58,21.73,10.45C150.37,120.5,177.86,152.78,254.43,159c0,0-62.07-2.44,6.28,22.25C188.1,156.18,149.94,174.66,152,251.17,152,251.17,149.92,176.24,130.64,240.12Z"/>
      <g id="lines">
        <path class="line" d="M49.59,105.85c67.2,36.64,101,11.07,111.72-65"/>
        <path class="line" d="M183,51.29C150.37,120.5,177.86,152.78,254.43,159"/>
        <path class="line" d="M45,143.28c75.31-13.65,99.38,21.26,85.6,96.84"/>
        <path class="line" d="M152,251.17c-2-76.51,36.13-95,108.74-69.88"/>
      </g>
    </g>
    <g id="bubble" class="bubble-part">
    <g class="bubble-turn">
    <path id="body" class="bubble-body" d="M298.21,152.62c5,54-26.48,101.47-72.16,126.58-22.14,19-47.29,19-73.43,19a145.1,145.1,0,0,1-99.8-39.59C20,236.51,7,194.4,7,152.62A145,145,0,0,1,40.27,60C60.87,22.74,107.39,7,152.62,7c37.16,0,76.1,8.45,100.8,30.65C282.16,63.51,294,106.44,298.21,152.62Z"/>
    </g>
    <path class="reflection" d="M76.8,106.42C97.35,69.86,129,44,163.76,31.49,119.47,22.06,70.11,45.14,44.33,91,17.37,139,25.11,196,60,228.36,49.76,190,54.58,145.94,76.8,106.42Z"/>
    </g>
  </g>
</svg>
