<svg xmlns="http://www.w3.org/2000/svg" viewBox="0 0 100 100">
  <defs>
    <style>
      .cls-1 {
        fill: #2d2926;
      }
      
    </style>
  </defs>
  <g id="Layer_4" data-name="Layer 4">
    <g id="transparent">
      <polygon class="cls-1" points="49.97 43.63 40.55 50 49.82 56.19 59.39 50 49.97 43.63"/>
      <polygon class="cls-1" points="26.24 59.39 47.12 73.4 47.12 60.9 35.43 53.22 26.24 59.39"/>
      <polygon class="cls-1" points="73.4 40.61 52.58 26.59 52.58 38.92 64.15 46.59 73.4 40.61"/>
      <polygon class="cls-1" points="47.12 38.8 47.12 26.59 26.24 40.37 35.66 46.59 47.12 38.8"/>
      <polygon class="cls-1" points="24.09 45.49 24.09 54.21 30.6 50 24.09 45.49"/>
      <path class="cls-1" d="M50,0a50,50,0,1,0,50,50A50,50,0,0,0,50,0ZM81.25,58.75a3.06,3.06,0,0,1-1.34,2.54L51.69,80.59a3.06,3.06,0,0,1-3.46,0L19.8,61.41a3.09,3.09,0,0,1-1.35-2.55V40.4a3.08,3.08,0,0,1,1.38-2.57l28.3-18.77a3.05,3.05,0,0,1,3.39,0L79.87,37.83a3.09,3.09,0,0,1,1.38,2.57Z"/>
      <polygon class="cls-1" points="52.58 60.78 52.58 73.4 73.4 59.45 64.33 53.22 52.58 60.78"/>
      <polygon class="cls-1" points="75.61 54.21 75.61 45.49 69.16 50 75.61 54.21"/>
    </g>
  </g>
</svg>
