<svg xmlns="http://www.w3.org/2000/svg" viewBox="0 0 100 100">
  <defs>
    <style>
      .cls-1 {
        fill: #fff;
      }

      .cls-2 {
        fill: #2d2926;
      }
    </style>
  </defs>
  <g id="Layer_4" data-name="Layer 4">
    <g>
      <circle class="cls-1" cx="50" cy="50" r="50"/>
      <path class="cls-2" d="M100,50A50,50,0,1,0,33.73,97.29c1.2-.86,2.57-1.93,2.57-3.72,0-2.75-.06-9.83-.06-9.83a34.59,34.59,0,0,1-5.26.37c-7.81,0-10.27-5-11.45-7.72a13.5,13.5,0,0,0-5.62-6.66c-1.29-.83-1.59-1.82-.09-2.1,6.91-1.29,8.67,7.79,13.29,9.24,3.29,1,7.52.59,9.63-.77a10,10,0,0,1,4-6.43C29,68.55,22,64.49,18.41,58L18,57.25l-.91-2.07-.26-.74a35.1,35.1,0,0,1-1.64-11.33c0-7.51,2.36-10.34,5.52-14.35-2.42-8.56.86-14.41.86-14.41s5.08-1,14.68,5.79c5.21-2.22,19.08-2.4,25.65-.49,4-2.65,11.4-6.41,14.37-5.36.8,1.29,2.54,5.05,1,13.3,1,1.81,6.26,5.67,6.28,16.57a43.22,43.22,0,0,1-1.29,10.29l-.43,1.47s-.25.69-.52,1.35l-.32.73C77.58,65.61,70.44,68.44,58.9,69.62c3.74,2.35,4.81,5.28,4.81,13.23s-.1,9-.08,10.84c0,1.62,1.32,2.78,2.48,3.66A50,50,0,0,0,100,50Z"/>
    </g>
  </g>
</svg>
