<svg xmlns="http://www.w3.org/2000/svg" xmlns:xlink="http://www.w3.org/1999/xlink" viewBox="0 0 97.34 97.34">
  <defs>
    <style>
      .cls-1 {
        fill: #2d2926;
      }

      .cls-2, .cls-3 {
        fill-rule: evenodd;
      }

      .cls-2 {
        fill: url(#linear-gradient);
      }

      .cls-3 {
        fill: url(#linear-gradient-2);
      }
    </style>
    <linearGradient id="linear-gradient" x1="20.62" y1="46.64" x2="34.75" y2="46.64" gradientUnits="userSpaceOnUse">
      <stop offset="0.01" stop-color="#fff"/>
      <stop offset="1" stop-color="#eae8ea"/>
    </linearGradient>
    <linearGradient id="linear-gradient-2" x1="40.87" y1="55.31" x2="79.22" y2="55.31" xlink:href="#linear-gradient"/>
  </defs>
  <g id="Layer_4" data-name="Layer 4">
    <g>
      <circle class="cls-1" cx="48.67" cy="48.67" r="48.67"/>
      <g id="letters">
        <path id="letter-i" class="cls-2" d="M33.92,74.65V36.85H21.36v37.8ZM27.64,31.7c4.38,0,7.11-2.91,7.11-6.54s-2.73-6.52-7-6.52-7.1,2.82-7.1,6.52,2.72,6.54,6.94,6.54Z"/>
        <path id="letter-n" class="cls-3" d="M40.87,74.65H53.43V53.54a8.58,8.58,0,0,1,.42-3.06,6.87,6.87,0,0,1,6.44-4.6c4.55,0,6.37,3.47,6.37,8.55V74.65H79.22V53c0-11.61-6.2-17-14.47-17a12.51,12.51,0,0,0-11.4,6.37h.08V36.85H40.87c.17,3.55,0,37.8,0,37.8Z"/>
      </g>
    </g>
  </g>
</svg>
