<?xml version="1.0" encoding="UTF-8"?>
<svg id="Layer_1" data-name="Layer 1" xmlns="http://www.w3.org/2000/svg" viewBox="0 0 100 100">
  <defs>
    <style>
      .cls-1 {
        fill: #fff;
      }
    </style>
  </defs>
  <circle class="cls-1" cx="50" cy="50" r="50"/>
  <g id="Layer_42" data-name="Layer 42">
    <g>
      <path d="M52.86,38.8c-.14-.26-.32-.5-.55-.61s-.39-.07-.52,.04c-.11-.3-.27-.58-.47-.82-.12-.12-.3-.15-.45-.07-.04-.06-.07-.12-.11-.18-.08-.12-.22-.19-.36-.18h0c-.15-.14-.27-.32-.35-.5-.11-.25-.4-.24-.57-.08-.5-.35-.98-.73-1.43-1.15-.13-.15-.35-.15-.49-.02l-.02,.02v-.02c-.02-.08-.05-.18-.09-.25-.06-.15-.15-.27-.28-.37-.22-.17-.64-.11-.65,.22-.48-.24-.93-.52-1.35-.85-.17-.15-.42-.12-.57,.05-.02,.02-.03,.04-.04,.05-.12-.03-.25,0-.35,.06-.02-.05-.04-.08-.06-.13-.06-.1-.13-.19-.21-.28-.08-.08-.18-.12-.28-.11-.06-.08-.15-.14-.25-.16-.08-.36-.65-.36-.75,0-.04,0-.07,.02-.1,.05-.12,.07-.23,.12-.35,.16,.03-.16-.02-.32-.12-.45-.24-.25-.65-.14-.95-.08-.16,.03-.31,.08-.44-.03s-.15-.25-.32-.33c-.16-.07-.35-.08-.52-.03-.02-.26-.32-.48-.58-.32l-.88,.52c-.07-.19-.29-.29-.49-.22-.05,.02-.09,.05-.13,.08-.15,.14-.3,.28-.45,.4-.12-.06-.25-.06-.36,0-1.41,.68-2.76,1.49-4.01,2.42-.12,.08-.18,.24-.16,.39-.17,.07-.28,.25-.26,.43l-.69-.05c-.45-.04-.51,.64-.1,.75,.32,.09,.63,.18,.96,.28,.08,.08,.19,.12,.31,.1h.02c.2,.2,.49,.27,.76,.18,.2-.05,.32-.26,.26-.46,0,0,0-.02,0-.03h.23s.07-.02,.1-.02c.15-.02,.27-.15,.27-.3,.05-.04,.11-.08,.15-.14l.15-.02c.12,.1,.28,.12,.42,.04l.59-.32c.05,.18,.25,.29,.43,.24,.04,0,.07-.02,.1-.05,.12-.07,.24-.15,.35-.22,.18,0,.36,0,.54-.02,.18,.02,.38,0,.55-.08h0l.72,.19c.21,.05,.42-.08,.47-.28,0-.03,0-.06,0-.09,.08,.12,.23,.16,.37,.11,.12,.12,.31,.15,.46,.07,.12-.06,.24-.13,.35-.2,.04,.05,.08,.08,.14,.12l.77,.38c.15,.08,.32,.05,.44-.05,.35,.03,.7,.02,1.04-.05,.02,0,.02,0,.04,0,.3,.16,.62,.28,.94,.35,.18,.04,.35-.05,.43-.21l.08,.05c.18,.25,.39,.47,.62,.67,.11,.08,.25,.11,.38,.08,.11,.15,.27,.25,.45,.29,.15,.03,.32,.02,.45-.06,.04,.07,.08,.14,.14,.21,.12,.14,.29,.2,.47,.16,.18,.17,.45,.22,.68,.12,.09,.11,.22,.17,.36,.18,.1,0,.2,0,.29-.06h.03s.04,.05,.06,.07c.25,.25,.5,.23,.76,.12,.15,.08,.28,.24,.39,.32l.4,.33,.86,.71c.25,.21,.65,.08,.65-.27v-.35s.08,0,.12,0l.04,.1c.14,.35,.61,.38,.74,0,.02-.04,.02-.08,.04-.13,.03,.05,.05,.08,.06,.09,.08,.15,.15,.32,.21,.49,.06,.21,.28,.32,.49,.26,.06-.02,.12-.05,.16-.09,.18-.18,.32-.41,.35-.66,.07-.39-.31-.59-.55-.49Z"/>
      <path d="M51.87,60.87s-.02-.02-.02-.04c-.02-.05-.05-.1-.11-.12,.02-.02,.02-.05,0-.08-.27-.45-.72-.74-1.19-.96-.09-.05-.18-.09-.28-.14-.08-.04-.15-.08-.24-.12-.25-.12-.52-.21-.81-.13h-.05s-.05,.03-.08,.05l-.12,.05s-.05,.07-.02,.11c0,.02,.03,.03,.05,.03,0,.1,.06,.18,.16,.2,.04,0,.08,0,.12-.02l.35,.13c.17,.09,.35,.18,.52,.27,.17,.29,.52,.31,.79,.43l.05,.02s.08,.08,.12,.13c.08,.12,.18,.22,.28,.32,.07,.08,.15,.15,.25,.19,.09,.05,.21,.02,.26-.07,.05-.09,.04-.2-.05-.25Z"/>
      <path d="M60.31,58.61c-.12,.49-.4,.91-.79,1.2-.22,.15-.45,.27-.7,.36-.25,.11-.6,.28-.62,.59-.02,.25,.37,.25,.39,0,0,.03,.02,0,.03-.02,.02-.02,.05-.04,.07-.05,.05-.04,.1-.07,.15-.09,.12-.06,.25-.11,.37-.16,.25-.1,.47-.24,.67-.42,.39-.34,.68-.79,.8-1.29,.06-.24-.31-.35-.37-.11Z"/>
      <path d="M81.03,20.69c-.86-1.39-1.96-2.56-3.17-3.67-.04-.03-.07-.07-.11-.1,0-.02-.02-.05-.03-.06-.06-.12-.16-.2-.29-.24-.56-.52-1.12-1.06-1.66-1.61l-.02-.05c-2.06-4.16-5.36-7.66-9.31-10.09-3.71-2.27-8-3.54-12.34-3.77-2.83-.27-5.69,0-8.42,.82-.03,0-.06,.02-.08,.04-3.13,.79-6.15,2.03-9,3.51-2.18,1.14-4.25,2.52-6.02,4.24-1.35,1.31-2.49,2.82-3.4,4.47-2.02,3.13-3.15,6.85-3.36,10.56-.02,.04-.02,.08-.02,.12v.24c-.05,1.29,0,2.59,.18,3.87v.46c0,.6,.02,1.19,.04,1.79,0,.2,.12,.38,.29,.46,0,.17,0,.34,.02,.51-.02,.12-.05,.22-.07,.34,0,.05,0,.08,0,.13-.7-.32-1.52-.28-2.19,.1-1.34,.76-1.97,2.41-2.16,3.86-.22,1.73,.18,3.44,.69,5.08,.55,1.76,1.22,3.5,1.78,5.26,.15,.46,.29,.92,.42,1.39-.26,1.06-.46,2.71,.69,3.19,.02,0,.03,0,.05,.02,.07,.3,.16,.6,.27,.89l-.2,1.23-.19,1.19c-.04,.27-.17,.62-.08,.89-.15,.65-.18,1.33-.12,2-.15,.52-.3,1.04-.45,1.56-.28,.88-.58,1.76-.83,2.65-.35,1.19-.45,2.43-.28,3.66,0,.96,.04,1.91,.09,2.87,0,.75-.03,1.5-.08,2.26-.02,.17-.02,.35-.03,.52,0,.39,.14,.76,.41,1.04,.06,.52,.14,1.02,.22,1.53,.03,1.16,.21,2.31,.54,3.43,.46,1.56,1.25,3.01,2.03,4.43,.75,1.36,1.53,2.73,2.32,4.07,.81,1.36,1.87,2.52,2.94,3.67,.55,.6,1.12,1.19,1.7,1.74,.3,.28,.62,.56,.94,.83,.48,.39,1.01,.92,1.67,.88,1.93,2.6,4.64,4.51,7.76,5.36,1.02,.27,2.06,.42,3.11,.45,.1,.05,.21,.1,.32,.12,.92,.22,1.86,.42,2.8,.59,1.06,.19,2.28,.52,3.25-.13,.12-.08,.22-.17,.32-.27l.32-.02c1.72,.15,3.43,.28,5.08-.29,.35-.05,.71-.12,1.05-.24,.37-.12,.69-.36,.9-.69,1.02-.61,1.94-1.35,2.81-2.16,1.25-1.15,2.36-2.43,3.31-3.84,1.06-1.56,1.87-3.35,2.25-5.21,.02-.11,.03-.21,.03-.32,.52-.02,1.05-.26,1.26-.75,.05-.12,.1-.25,.15-.37h0l.02-.05c.1-.26,.18-.54,.23-.82l.02-.13,.3-1.12c.02-.05,.02-.12,.03-.17l.07-.18s.17-.43,.15-.38c.17-.41,.35-.81,.52-1.22,.29-.72,.55-1.45,.77-2.19,.05-.18,.11-.36,.16-.55,.28-.12,.52-.33,.65-.6,.34-.71,.49-1.45,.33-2.2l.22-1.29c.62-2.45,1.02-4.96,1.16-7.49,0-.21-.03-.42-.12-.6,.06-.72,.11-1.45,.15-2.17,0-.19-.02-.38-.09-.55,0-.23,.02-.46,.04-.69,.13-.93,.22-1.86,.25-2.8,0-.12-.02-.25-.07-.37,0-.09,0-.18-.02-.28,0-.11-.03-.22-.08-.32,0-.81,.1-1.62,.22-2.41l.15-1.09c.02-.07,.04-.15,.05-.22,.1-.76,.23-1.52,.39-2.27,0-.02,0-.02,0-.04,.45-.64,.85-1.32,1.19-2.04,.48-.99,.74-2.05,.92-3.13,.14,.02,.28-.06,.34-.19,.45-.87,1.21-1.33,2-1.85,.31-.2,.62-.45,.74-.82,.15-.45-.02-.9-.25-1.3-.02-.02-.02-.04-.04-.06,0-.05,0-.08-.02-.13-.08-.24-.2-.46-.35-.68-.39-.72-.84-1.42-1.33-2.08-.29-.39-.59-.77-.92-1.14-.35-.41-.72-.79-.98-1.27-.02-.03-.04-.06-.06-.08,.1-.69,.22-1.39,.37-2.08,.05-.18,.08-.35,.12-.53,.18,.05,.41-.04,.41-.28,0-.32,0-.62,0-.94,1.79-.4,3.44-1.32,4.71-2.65,.36-.32,.67-.69,.92-1.1,.19-.27,.36-.55,.52-.83,.17,.02,.32-.09,.35-.26v-.04c.14-3.05-.65-6.12-2.3-8.75Zm-54.22-3.05c.77-2.12,1.86-4.14,3.33-5.86,.63-.74,1.31-1.42,2.05-2.06,1.51-1.15,3.16-2.12,4.81-3.05,1.08-.61,2.16-1.19,3.28-1.73,.64-.27,1.28-.52,1.93-.76,2.47-.92,5.05-1.63,7.68-1.9,1.96-.2,3.92-.18,5.87,.05-.02,.09,.02,.18,.08,.25,.91,.95,1.69,2.02,2.31,3.17,.32,.59,.59,1.19,.81,1.82,.02,.06,.05,.13,.07,.2,.05,.35,.11,.69,.18,1.04-7.89,.62-15.27,3.92-22.31,7.36-2.08,1.02-4.31,1.93-6.09,3.44-.31,.25,.13,.69,.43,.44,1.57-1.31,3.51-2.13,5.34-3.03,1.84-.9,3.69-1.79,5.56-2.63,3.75-1.69,7.61-3.18,11.63-4.11,1.83-.42,3.69-.71,5.56-.86,.02,.09,.04,.19,.06,.28,.26-.06,.53-.11,.79-.15,0-.12,0-.23-.02-.35-.02-.23-.06-.47-.12-.69-.15-.39-.32-.77-.45-1.16-.08-.18-.17-.36-.25-.54h0c-.04-.1-.08-.2-.13-.3l-.05-.09s0,0,0-.02c-.16-.36-.33-.72-.52-1.06-.57-1.05-1.27-2.02-2.07-2.9,.7,.1,1.39,.23,2.08,.39,0,.02,.02,.02,.03,.04,1.55,1.51,2.65,3.43,3.16,5.53-.02,.02-.05,.04-.06,.05,.02,.02,.03,.05,.04,.08,0,.02,0,.03,.02,.05,.03,.04,.05,.08,.07,.12,.03,.11,.06,.22,.07,.33h0s.02,.09,.02,.15c0,.08,.02,.17,.02,.22h0c.26,0,.52,0,.79,0-.05-.15-.11-.3-.18-.45-.02-.04-.04-.07-.07-.09,0-.02,0-.03-.02-.05-.39-2.02-1.29-3.91-2.6-5.48,.3,.15,.6,.3,.9,.46,.07-.05,.15-.06,.23-.04,.66,.15,1.31,.35,1.94,.61l-.44-.26c.65,.27,1.29,.56,1.91,.89,1.77,.92,3.42,2.06,4.91,3.39-.13-.1-.27-.19-.4-.29,.11,.11,.21,.22,.3,.33,.44,.39,.83,.82,1.19,1.29,.08,.11,.17,.22,.25,.34,0,0,.08,.09,.12,.13,.14,.15,.28,.31,.42,.47,.12,.13,.28,.28,.41,.45,.25,.24,.46,.52,.62,.82,.15,.15,.26,.32,.35,.51l.36,.42c.35,.41,.71,.82,1.06,1.23,.16,.28,.32,.56,.47,.85-.17-.08-.33-.17-.51-.25-.69-.42-1.39-.8-2.1-1.15-1.32-.72-2.75-1.27-4.22-1.63-.6-.14-1.2-.25-1.81-.32-.18-.03-.37-.06-.55-.09-.25-.05-.52-.11-.77-.15-.07-.02-.14,0-.19,.02-.27-.03-.54-.05-.8-.08-.05-.09-.15-.14-.25-.12l-.46,.02s.04-.06,.05-.1c.02-.11,.03-.22,.05-.32-.23,0-.46,0-.69,.02l.05,.3s.03,.09,.07,.13h-.15c-.64,0-1.29,0-1.93,.05,0-.03-.02-.06-.05-.09,.02-.06,.03-.13,.02-.19,0-.02-.02-.05-.02-.08-.21,.02-.41,.04-.62,.06,0,.04,.02,.08,.03,.12-2.26,.44-4.46,1.09-6.59,1.95,0,0-.02,0-.02,.02-3.41,1.28-6.7,2.89-9.92,4.59-1.06,.55-2.1,1.12-3.14,1.7-3.11,1.51-6.19,3.07-9.25,4.7-.59,.32-1.18,.63-1.77,.95-.05,.02-.09,.06-.12,.11-.11,0-.21,.06-.26,.15-.11-.04-.23-.02-.32,.06-.14,.12-.28,.25-.4,.38,0-.11-.05-.21-.13-.28-.49-.38-.65-1.03-.46-1.6,.12-.38-.47-.54-.59-.16-.21,.64-.08,1.33,.32,1.86-.32,.23-.55,.65-.72,.99-.15,.29-.29,.59-.42,.89-.05,.04-.08,.08-.1,.14-.25,.62-.48,1.26-.68,1.89-.06-3.97,.34-8.01,1.69-11.78h0Zm-.21,9.81s-.05-.05-.08-.06l.09-.21h0c0,.05-.02,.12-.03,.18,0,.03,0,.06,0,.08Zm-2.3,29.35l-.05,.27h-.02c.02-.1,.05-.21,.08-.32,0,.02,0,.05,0,.05h0Zm1.16-18.59c-.08,1.09-.17,2.18-.25,3.27-.1,.41-.16,.82-.19,1.25-.06,.29-.12,.58-.19,.87-.02,.09-.02,.19,.03,.28l-.27,1.62c-.07-.12-.12-.25-.16-.38-.1-.32-.07-.55,.05-.85,.16-.41,.22-.85,.15-1.29-.05-.28-.12-.57-.21-.85h0v-.02l.04-.04c.05-.09,.05-.22,0-.31-.02-.05-.06-.08-.1-.12-.16-.38-.23-.79-.19-1.19,.02-.15,.06-.28,.12-.42,.05-.11,.04-.25-.04-.34,.08-.56,.15-1.12,.15-1.69,0-.83-.24-1.7-.82-2.28,0-.08-.03-.15-.08-.19l-.79-.66c-.12-.12-.32-.11-.43,0-.04,.02-.07,.06-.09,.1-.14,.03-.25,.13-.28,.27-.02,.07-.02,.14-.04,.2-.18,.55-.21,1.15-.18,1.73,.02,.62,.05,1.28,.27,1.87,.14,.37,.82,.36,.75-.1-.11-.89-.22-1.78-.16-2.67,.03,.03,.07,.06,.11,.08,.18,.19,.49,.11,.61-.08,.58,.66,.58,1.71,.49,2.57-.06,.58-.17,1.15-.22,1.73-.02,.35,.03,.69,.15,1.02l.07,.28s0,.02,0,.02c-.02,.13-.02,.27,.02,.4-.07,.5,.02,1.02,.23,1.48,0,0,0,0,0,.02-.02,.06-.04,.12-.06,.18-.1,.26-.21,.49-.19,.77,.02,.55,.28,1.05,.62,1.46,.05,.08,.16,.12,.25,.1l.04,.04c-.14,.63-.31,1.25-.51,1.86-.05,.15,0,.32,.13,.4-.03,.56-.08,1.12-.16,1.67l-.02-.12c-.16-.79-.37-1.56-.59-2.33-.45-1.52-.99-3.01-1.5-4.51-.93-2.71-2.17-6.05-.56-8.77,.35-.59,.9-1.18,1.62-1.32,.57-.11,1.27,.14,1.49,.71,.08,.22,.32,.32,.53,.24,.02,0,.02,0,.04-.02,.05,.61,.11,1.22,.17,1.83l.02,.19s0,.05,.02,.07c.05,.53,.12,1.06,.18,1.59,0,.06,.03,.12,.07,.17-.07,.05-.09,.13-.1,.2h0Zm.47-6.55c0-.16-.13-.3-.29-.3h-.02c-.05-.21-.07-.43-.05-.65,.32-.9,.64-1.8,.96-2.7,.12,.16,.39,.22,.49-.02,.12-.28,.27-.55,.43-.82l.02-.03c-.6,1.09-1.02,2.26-1.24,3.47-.12,.36-.22,.72-.31,1.09,0,0,0-.02,0-.04h0Zm.15,14.57c0-.09,0-.18-.02-.27l.03,.02c.02,.22,.02,.44,.02,.66-.02-.14-.03-.28-.04-.42h0Zm.42-10.98c-.1-.42-.18-.86-.25-1.29,0-.12-.08-.22-.19-.25,.03-.04,.05-.09,.06-.15,.14,.25,.6,.21,.58-.14-.06-.89,0-1.78,.15-2.66,.49-1.56,1.15-3.08,1.95-4.51,.08-.13,.05-.31-.08-.39-.02-.02-.05-.03-.08-.04l.05-.06s.03-.04,.04-.05h0c1.94,.38,3.54-1.06,5.17-1.86,1.96-.97,4.11-1.55,6.15-2.34,4.1-1.59,8.02-3.6,12.09-5.25,1.96-.8,4.01-1.47,6.12-1.66h.05c.02,.1,.1,.19,.22,.2l2.22,.3c2.78,.53,5.43,1.62,7.78,3.2,.02,.02,.04,.02,.06,.03,.75,.67,1.49,1.36,2.19,2.1,.85,1.14,1.59,2.36,2.21,3.64,.58,1.47,1.04,3,1.48,4.51,.25,.85,.49,1.69,.66,2.55,.12,.94,.18,1.89,.19,2.84-.14,.18-.15,.43-.04,.63v.02c-.04,.24,.18,.49,.42,.36-.2,.78-.4,1.56-.56,2.34-.14,.68-.41,1.55-.18,2.23,0,.81-.05,1.62-.12,2.43-.14-.04-.28-.08-.42-.13,.02,0,.03-.02,.05-.04,.03-.03,.05-.06,.06-.1,.02-.03,.02-.07,.02-.1,.02-.04,.03-.08,.03-.12,.08-.07,.12-.15,.13-.25,.08-.75-.09-1.49-.38-2.18-.14-.32-.29-.64-.45-.96-.16-.32-.3-.63-.6-.83-.3-.18-.58-.39-.85-.62-.27-.24-.54-.47-.88-.62-.28-.13-.59-.17-.89-.12-.35,.07-.55,.28-.81,.5-.31,.25-.52,.02-.8-.11-.28-.13-.59-.15-.86,0-.25,.15-.39,.42-.63,.55-.31,.17-.71,.14-1.06,.16-.75,.06-1.41,.4-2.16,.47-.35,.04-.7,.13-1.02,.28-.35,.15-.69,.15-1.04,.24-.16,.04-.32,.11-.45,.21-.03,.02-.06,.05-.08,.08-.07,.02-.14,.05-.21,.08-.15-.04-.28-.06-.45,.02-.14,.07-.19,.21-.31,.3-.25,.2-.6,.19-.85,.44-.07,.07-.13,.15-.18,.23-.07,.02-.14,.05-.2,.08-.08,.02-.17,.06-.23,.12-.13,.08-.25,.17-.36,.28-.02,0-.05,0-.08,0-.08-.23-.4-.35-.55-.08-.02,.03-.04,.06-.05,.09-.05,.05-.1,.11-.15,.16l-.05,.04s-.08,.05-.12,.06c-.15,.06-.28,.22-.22,.39-.08,.15-.15,.31-.21,.48-.1,.29,.31,.52,.52,.3,.03-.04,.06-.07,.09-.11,.1,.14,.29,.17,.43,.07,.03-.02,.06-.05,.08-.09l.1-.17c.07,0,.14,0,.2-.03-.02,.06-.02,.13,0,.19-.06,.15-.11,.32-.15,.49-.13,.46,.55,.66,.72,.26,.11,.08,.25,.12,.38,.08,.04,.22,.25,.38,.48,.34,.03,0,.07-.02,.1-.03,.9-.42,1.87-.64,2.86-.79,.15,.11,.35,.1,.49-.03,.02-.02,.05-.04,.06-.05l.5-.07c.16,0,.29-.15,.28-.32v-.02c.36-.12,.73-.2,1.11-.25,.78-.13,1.57-.2,2.36-.2,1.49,0,2.97,.2,4.4,.62,.07,.09,.18,.15,.29,.15,.34,.02,.62,.25,.96,.12,.05-.02,.09-.04,.14-.07,0,.02,0,.05,.02,.07-.02,.02-.04,.05-.05,.08-.02,.04-.03,.08-.02,.12l.02,.08h0c-.82-.25-1.65-.5-2.52-.62-2.51-.35-5.05,.03-7.48,.69-1.4,.38-2.78,.85-4.16,1.31-.05,.02-.09,.05-.13,.08-.02-.02-.05-.02-.08-.03-1.32-.35-2.75-.28-4.1-.34-1.41-.06-2.83-.17-4.23,.12-.03,0-.07,.02-.1,.03-.84-.51-1.68-.99-2.65-1.15-.85-.35-1.74-.62-2.63-.85-.45-.12-.91-.22-1.37-.29-.28-.05-.56-.09-.84-.13,.07-.19-.02-.4-.22-.47-.02,0-.02,0-.04,0-.79-.22-1.62-.32-2.45-.3,.07-.07,.11-.16,.12-.25,2.34,.21,4.87,.48,6.78,1.96,.31,.24,.75-.19,.44-.44-2.1-1.63-4.78-1.93-7.34-2.16-.14-.02-.27,.08-.29,.22v.02c-1.21,.06-2.28,.61-3.33,1.19-.17,.08-.24,.29-.15,.46,0,0,0,0,0,.02-.34,.07-.67,.15-1,.23-.07-.09-.18-.13-.29-.12l-3.05,.33-1.49,.16c-.45,.05-.9,.07-1.33,.21-.25-.45-.55-.87-.9-1.26-.95-1.12-1.69-2.27-2.08-3.7-.02-.11-.1-.2-.21-.25-.08-.28-.16-.58-.23-.87,0-.09-.02-.17-.07-.23h0Zm45.52,4.42l-.16-.05,.11-.02s.03,.05,.05,.07h0Zm-6.15,5.53c-.1,.08-.22,.14-.33,.18,.12-.05,.22-.12,.33-.18Zm-1.88-1.63c.03-.05,.07-.11,.12-.15,.05-.05,.12-.08,.18-.12,.04,.18,.18,.31,.36,.32,.12,0,.24,.02,.37,.03-.04,.02-.07,.04-.1,.06-.05,.05-.09,.1-.12,.16-.22,.05-.43,.16-.59,.32-.02,.02-.03,.03-.04,.05-.06-.06-.13-.12-.21-.16,0-.1,.02-.21,.04-.31,.04-.07,.03-.14,0-.21Zm-3.4,0s-.07,.08-.11,.12c0-.02-.02-.04-.02-.05,0,0,0-.02,0-.02l.14-.05Zm-9.1,6.04c-.65,1.84-2.03,3.34-3.72,4.31-1.9,1.08-4.16,1.54-6.33,1.53-2.2-.02-4.18-.9-5.7-2.5-1.39-1.46-2.23-3.36-2.67-5.32,0-.06,0-.12-.02-.18-.02-.06-.04-.12-.06-.17-.02-.08-.03-.15-.05-.22,.05-.08,.06-.18,.05-.27-.1-.56,.19-1.1,.48-1.57,.27-.45,.58-.85,.92-1.24,.33-.36,.69-.7,1.08-1,.19-.15,.4-.29,.61-.42,.1-.06,.21-.13,.32-.19l.16-.09s.05-.02,.08-.03c.04,.02,.08,.02,.12,.03-.02,.02-.03,.04-.05,.05-.13,.16-.16,.39,0,.55,.02,.02,.05,.05,.08,.06-.04,.1-.02,.22,.02,.31,.27,.51,.62,.97,1.04,1.36,.02,.02,.05,.04,.07,.05h0c.04,.18,.15,.33,.32,.42h.02c.03,.09,.1,.15,.19,.18,1.87,.62,3.87,.77,5.82,.46,0,.18,.15,.37,.37,.28,.32-.12,.6-.33,.79-.62,.15-.23-.1-.51-.35-.45-2.11,.5-4.33,.42-6.39-.25-.02-.05-.07-.11-.12-.13l-.02-.02h0s0-.02,0-.03c0-.02,0-.04-.02-.06,.05-.13,.02-.28-.1-.38-.38-.35-.69-.75-.92-1.2-.02-.05-.06-.09-.1-.12,.15-.17,.35-.3,.57-.38,.2-.06,.32-.27,.27-.48,0-.04-.03-.08-.05-.12,.22-.03,.45-.05,.66-.07,.46-.04,.92-.06,1.38-.08-.75,1.21,.59,2.74,1.88,2.87,1.29,.12,2.83-1.4,2.3-2.7l.55,.07h.05c.65,.16,1.29,.35,1.92,.59h0c-.15,.14-.21,.38-.02,.55,.36,.35,.77,.65,1.22,.89-.09,.05-.18,.1-.27,.16-.03,.02-.05,.05-.08,.08-.12,.05-.23,.1-.35,.14-.46,.16-.27,.91,.21,.75,.41-.14,.79-.32,1.16-.56,.17-.12,.22-.34,.13-.52,.15-.17,.16-.43-.09-.55-.34-.15-.65-.35-.96-.58,.76,.32,1.49,.69,2.21,1.1,1.06,1.6,1.83,3.49,1.39,5.43-.03,.11-.02,.22,.04,.3Zm-9.15-7.51c-.32-.02-.65,.03-.96,.12v-.05s0-.08-.02-.12l-.02-.32c0-.05-.02-.11-.05-.16,.4,0,.81,0,1.21,.03h0c-.15,.14-.17,.32-.16,.5Zm-9.44,1.76s-.08,.06-.13,.09c-.08,.04-.15,.06-.24,.08-.21,.05-.42,.04-.63-.02-.23-.07-.78-.3-.51-.52,.1,.02,.19,0,.27-.08,.07-.02,.14-.03,.22-.05,.18-.03,.37-.04,.55-.04,.08,0,.18,0,.26,.02,.03,.02,.07,.03,.1,.04,0,.06,.03,.12,.08,.17-.03,.1-.02,.22,.03,.31Zm-3.42,39.75h.07s0,.09,.02,.15l-.08-.15Zm27.84-13.56h0c-.05,.08-.11,.15-.15,.23l-.05,.07-.03,.05s-.04,.06-.05,.08c-.77,.02-1.53,.35-2.1,.85-.35-.11-.72-.07-1.03,.09h0c-.39-.39-.91-.6-1.45-.59-.12,0-.23,.02-.35,.05-.12-.08-.27-.12-.42-.11l-4.08,.4c-.22,.02-.43,.1-.59,.25-.09-.04-.18-.07-.28-.09-.3-.15-.59-.32-.89-.49-.5-.28-1.16-.56-1.52-1.06-.24-.34-.65-.52-1.04-.36,0-.03-.02-.06-.03-.09,.21-.07,.39-.19,.52-.35,.2-.25,.39-.5,.59-.75,.07-.08,.14-.16,.19-.25,.02-.04,.05-.08,.08-.12l.06-.08s.02,.02,.04,.03c.43,.33,1,.41,1.51,.22,.07,.13,.15,.25,.26,.35,.47,.43,1.3,.65,1.86,.24,.14-.1,.27-.19,.41-.29,.27,.18,.58,.29,.91,.32l1.59,.18c.35,.04,.69-.1,.96-.33,.14,.28,.42,.46,.72,.48,.74,.08,1.48,.18,2.22,.31,.72,.22,1.44,.51,2.15,.79h0Zm15.29-14.8s-.05,.1-.06,.15c-.13,.11-.22,.25-.27,.42-.37,1.31-.75,2.62-1.22,3.89-.27,.66-.58,1.44-1.06,1.99-.12,.04-.22,.11-.3,.19l-.03,.03c-.09,.09-.16,.21-.2,.33-.07,.11-.13,.22-.18,.34-.06,.07-.12,.15-.17,.24-.3,.54-.62,1.07-.97,1.59-.17,.25-.35,.51-.53,.76-.02,.04-.23,.3-.23,.3-.08,.09-.15,.18-.22,.28-.29,.36-.6,.71-.92,1.05l-.39,.35c-.27-.1-.53-.24-.77-.4-.08-.09-.15-.18-.23-.25-.07-.07-.15-.12-.23-.18-.02-.02-.03-.05-.05-.06-.39-.54-.69-1.13-1.2-1.56-.1-.09-.22-.15-.35-.18-.14-.22-.28-.42-.44-.63-.47-.6-1.05-1.12-1.69-1.53-.04-.05-.08-.08-.12-.12-.19-.18-.44-.28-.7-.3-.4-.17-.82-.28-1.25-.35-.24-.05-.49,0-.69,.15l.02-.06c.02-.05,0-.1-.02-.15-.02-.03-.05-.06-.09-.08-.02,0-.05-.02-.08-.02h-.04c-.05,0-.1,.02-.14,.05-.15,.12-.27,.27-.37,.43h0c-.27-.14-.6-.09-.83,.1-.56,.21-1.16,.35-1.75,.43-.42,.05-.99,.08-1.32-.22-.22-.22-.55-.28-.85-.16-.27-.06-.55,0-.75,.2-.06,.06-.11,.13-.15,.21-.12-.11-.26-.19-.42-.25-.18-.1-.39-.15-.59-.13h-.02c-.16-.37-.45-.66-.82-.82-.09-.04-.19-.07-.29-.08-.15-.25-.41-.4-.69-.42-1.83-.15-3.67,.22-5.31,1.06-.18-.02-.35,.02-.5,.11-.58,.3-1.12,.68-1.59,1.12-.1,.08-.17,.19-.22,.32-.41,.35-.8,.72-1.19,1.09-.71,.71-1.35,1.52-2.1,2.19-.15-.25-.59-.25-.69,.04l-.16-.12c-.16-.48-.35-.95-.55-1.41-.12-.26-.52-.24-.65,0l-.46-1.55c-.06-.21-.28-.32-.49-.26-.03,0-.06,.02-.09,.04l-.24-.86c-.06-.23-.31-.31-.5-.25l-.18-.64c-.09-.34-.68-.39-.75,0v.02l-.4-.89c-.13-.29-.65-.22-.7,.09-.02,.08-.03,.15-.05,.22-.04-.08-.07-.17-.1-.26-.03-.14-.08-.28-.15-.41-.1-.2-.31-.23-.48-.15l-.19-.42c-.08-.19-.3-.22-.47-.15-.05-.15-.08-.29-.12-.45-.04-.28-.11-.55-.22-.8-.08-.22-.32-.32-.54-.23-.03,0-.05,.02-.08,.04-.25-1-.56-2.23-.61-2.4-.06-.24-.33-.32-.53-.25-.02-.06-.05-.12-.08-.18-.02-.1-.05-.21-.07-.32-.02-.12-.1-.2-.21-.24-.5-1.41-.8-2.92-1.01-4.39-.12-.82-.23-1.63-.29-2.45-.06-.87-.03-1.74-.12-2.6,0-.08-.05-.16-.09-.22,.07-1.42,.21-2.85,.42-4.27,.03-.23-.13-.45-.37-.48h-.05c.04-.2,.08-.4,.12-.61,.14,.27,.28,.54,.44,.8,.45,.76,.95,1.49,1.47,2.2,.18,.3,.4,.58,.64,.83,.62,.77,1.26,1.5,1.94,2.2,.05,.06,.12,.1,.2,.12,.3,.47,.55,.97,.73,1.49,.39,1.93,1.13,3.79,2.37,5.35,1.42,1.79,3.47,3.03,5.75,3.29,2.4,.27,5.04-.22,7.21-1.28,.14-.07,.28-.14,.42-.22-.11,.13-.22,.25-.33,.39-.1,.12-.1,.3,0,.42-.05,.02-.11,.05-.15,.09-.45,.49-.7,1.12-.73,1.77-.02,.32,.02,.63,.12,.93,.03,.1,.07,.2,.11,.29,.08,.52,.25,1.12,.72,.97,.25-.09,.33-.39,.22-.62-.09-.2-.22-.36-.32-.54-.12-.74,.03-1.5,.42-2.14,.07-.11,.06-.25-.03-.34,.03-.11,0-.22-.07-.3,.05-.02,.11-.05,.14-.09,.58-.69,1.19-1.36,1.83-2,.08-.07,.11-.18,.08-.28,.94-.89,1.67-1.97,2.14-3.17,.24-.63,.4-1.29,.46-1.96,.21-.52,.2-1.09,0-1.61l-.02-.05c-.04-.25-.08-.5-.15-.75,.02-.03,.04-.07,.05-.1,.07-.11,.16-.2,.26-.28,.03,0,.06,0,.09,0-.11,.14-.18,.29-.24,.46-.04,.16,.06,.33,.22,.37,.11,.03,.23,0,.3-.09,.15,.04,.32-.05,.36-.2h.04c.39,0,.39-.57,.03-.62,0-.05-.04-.11-.08-.15,0,0-.02-.02-.03-.02,.06-.03,.12-.05,.19-.07,.09,0,.19-.02,.29-.02,.08,0,.15-.02,.22-.06,.53-.02,1.06,0,1.59,.07,.55,.06,1.09,.15,1.63,.28,.1,.02,.25,.05,.42,.09-.02,.09,0,.2,.05,.28,.17,.28,.16,.61,.18,.92l.02,.35c-.05,.08-.07,.18-.05,.27,.05,.35,.11,.69,.18,1.03,.22,2.2,.6,4.41,1.98,6.2,.02,.08,.05,.16,.12,.22,.49,.41,.97,.75,1.56,.97,.57,.22,1.16,.4,1.75,.58,1.22,.35,2.49,.6,3.76,.52s2.45-.52,3.61-1.02c.6-.26,1.21-.52,1.76-.89l-.12,.49Zm1.42-7.32v.02l-.52,2.99c-.08,.41-.15,.82-.22,1.22-.05,.07-.09,.15-.11,.25-.05,.23-.09,.46-.15,.69-.43,.42-.92,.78-1.45,1.06-.08,.04-.15,.12-.18,.21-1.52,.88-3.31,1.21-5.06,1.06-1.17-.11-2.31-.41-3.39-.89-.54-.23-1.07-.5-1.57-.81-.46-.28-.92-.57-1.21-1.02-.02-.02-.04-.05-.05-.07-.75-1.9-1.33-4.04-.51-6,.19-.37,.39-.73,.61-1.09,.03,.02,.05,.03,.09,.04-.03,.24,.1,.45,.35,.62,.35,.25,.72,.49,1.08,.72,.08,.07,.2,.08,.31,.05,.03,.05,.07,.08,.12,.1,1.26,.65,2.69,.63,4.07,.59,.69-.02,1.36-.09,1.99-.39,.52-.25,.96-.6,1.39-.98,.1-.02,.18-.09,.21-.18l.12-.11c.22-.19-.02-.63-.3-.52-.14,.05-.25,.13-.33,.25-.4,.35-.81,.69-1.29,.94-.61,.32-1.26,.35-1.93,.37-1.22,.04-2.51,.07-3.63-.51-.05-.03-.12-.04-.17-.04-.02-.1-.08-.19-.17-.25l-.6-.4-.28-.18-.12-.08c.15-.31-.21-.59-.49-.49-.02-.03-.05-.05-.07-.08,.25-.36,.55-.69,.89-.98,.57-.48,1.25-.8,1.95-1.03-.05,.06-.08,.13-.12,.2-.08,.02-.16,.06-.22,.13-.78,.95,.2,2.24,1.11,2.65,1.13,.51,2.29,0,2.84-1.07,.51-.99-.04-2.07-1.01-2.45,.34-.05,.68-.08,1.02-.12-.18,.2-.17,.55,.17,.6,.59,.08,1.35,.19,1.82,.59,.42,.35,.48,.96,.52,1.47,.02,.21,.16,.39,.39,.39,.28,0,.55-.04,.75-.25,.11-.11,.23-.59,.35-.62,.29-.06,.35-.45,.17-.64-.16-.16-.35-.31-.55-.42,.03-.15-.04-.32-.18-.39l-.06-.04c.02-.18-.09-.35-.26-.41l-1.14-.43c.94-.05,1.88,0,2.81,.13,.99,.15,1.94,.45,2.83,.89-.05,.32-.11,.63-.17,.95-.02,.11,0,.22,.05,.31l-.52,3.43Zm-3.85-3.84c.05,.04,.11,.07,.16,.11-.04,.07-.07,.14-.09,.21-.02-.11-.05-.21-.07-.32Zm5.53,5.08h-.02c-.44,.18-.59,.86-.78,1.26-.11,.22-.22,.43-.34,.64,.13-.8,.32-1.6,.45-2.39,0-.04,0-.08,0-.12,.06-.05,.09-.13,.1-.21l.22-3.5c0-.08,.02-.15,.03-.22,.05-.08,.07-.16,.05-.25,0-.02,0-.04,0-.05,.02-.08,.02-.15,.04-.23,.05,.07,.09,.14,.13,.21,.25,.38,.49,.77,.64,1.2,0,.02,.02,.05,.02,.08-.11,1.18-.23,2.42-.55,3.58Zm1.43-3.07s0-.06,0-.1c.03,0,.06,0,.09,0-.03,.03-.05,.06-.08,.09h0Zm.74-1.93s.03,.04,.05,.05c.1,.09,.25,.13,.38,.09,.16,.06,.31,.17,.42,.3,.09,.1,.24,.14,.37,.09-.05,.12-.13,.22-.23,.28-.08,.06-.17,.12-.26,.18-.08-.03-.16-.04-.25-.02-.39,.12-.81,.14-1.21,.06-.04,0-.08,0-.12,0-.02-.05-.07-.1-.12-.13-.08-.18-.16-.36-.25-.54l.07-.02c.31-.15,.64-.27,.98-.35,.05,0,.12,0,.18,0h0Zm-1.82-3.32s.07,.09,.12,.12c.52,.54,1.02,1.11,1.47,1.7-.67-.14-1.34-.28-2-.46,.06-.55,.1-1.1,.12-1.66,.09,.1,.18,.19,.28,.29h0Zm5.13-10.67s-.02,.08-.02,.12c-.39,.44-.9,.8-1.36,1.12-.85,.59-1.74,1.12-2.67,1.59l-.32,.08s-.04-.08-.06-.11c0-.06-.02-.13-.02-.19-.22-3.37-.97-6.72-2.53-9.74-1.74-3.38-4.48-6.25-8-7.79-3.7-1.63-7.79-1.73-11.64-.56-2.09,.64-4.08,1.55-6.07,2.45-2.06,.93-4.11,1.87-6.19,2.76-1.19,.51-2.4,.99-3.62,1.44-1.16,.43-2.34,.8-3.5,1.25-1.09,.43-2.13,.96-3.14,1.56-.62,.36-1.27,.74-1.97,.91,2.83-1.52,5.69-2.99,8.57-4.41,.08,.02,.15,0,.22-.03l1.36-.75c.93-.45,1.87-.9,2.8-1.35,2.31-1.09,4.62-2.16,6.97-3.17,2.31-.99,4.67-1.89,7.11-2.52,2.06-.52,4.21-.83,6.33-.81,3.85,.41,7.53,1.8,10.69,4.04,.08,.05,.15,.11,.22,.16l.02,.02c.39,.28,.75,.58,1.12,.89l.28,.23h0c.66,.58,1.29,1.19,1.89,1.83,.73,.89,1.4,1.83,2.02,2.81,.28,.44,.54,.89,.79,1.35,.22,.45,.44,.91,.65,1.36,0,.02,.02,.02,.02,.04,.24,.99,.39,2,.45,3.03-.06,.81-.21,1.61-.45,2.39Z"/>
    </g>
  </g>
</svg>